<mxfile host="65bd71144e">
    <diagram id="Md_BRDYtaKA7uqRM2du2" name="第 1 页">
        <mxGraphModel dx="766" dy="609" grid="0" gridSize="10" guides="1" tooltips="1" connect="1" arrows="1" fold="1" page="1" pageScale="1" pageWidth="850" pageHeight="1100" math="0" shadow="0">
            <root>
                <mxCell id="0"/>
                <mxCell id="1" parent="0"/>
                <mxCell id="2" value="" style="shape=image;verticalLabelPosition=bottom;labelBackgroundColor=default;verticalAlign=top;aspect=fixed;imageAspect=0;image=data:image/png,iVBORw0KGgoAAAANSUhEUgAAAP0AAABPCAYAAAAgN8OCAAAgAElEQVR4nO2ddZwd1dmAn3POzFxb340bELQE90KDS5FSKNpSHIoXPigtWlxb3CWQQotbKVYIDg0WQgJECPEQouvXZs55vz/m7mYTYpAgpff5/ZYld2funDkz75FXVf/+/UTjkdI5dtkJ9vvVxrz0SgtDHxkFthLEQ5RDUJQpU+b7RxT06N0LBKyznZ8rpdECHgoRQRnNhIYiBZtH6/gzL0iiQcDkMaqd7pW1BFQwa1YR5ypxJHDossCXKfMDQwkoQMuCz0QcAA6LJULEUllRTW1tPb6XANHkcu14IKy+apLD9luTzTeo4ekXPuaNd6YBVd/LzZQpU+aboVQ8hzujAIN1QltbGwWbR2mw1uLE4gFkKqGmmyORTJD0e+PrdiD6fu+gTJkyXx+tAMEpQEEYhfiBh9aayFqCIIWprq6+YOaXbQx7YSKBU+y4/drMnhMyYXITSgKUADjKK/wyZX4gKKiorARARJBO2RRAIQhKa0SExkSIMkKhmMc6SzabxQOFlgBsmjkteUKy1NdlAFP6ElnsdcuUKfP9oGTBXl4EdMfnpeW9Ugpxgq80Whs8DeIg6SfwqzJoUGgyeEElrfk2Gltmobx5wFyMLpSUBRol5am+TJn/BkQEa2OtfkuxlYaBfXEVAU1Rjmxjc7ynF2WxDubMDWnOZqmoBd93SGQBn67yrqC05C9dACiPB2X+mxFZ+mpWqW/nBV/adVfkmlYcosAh1NQ3MGbEKIznk0wm8RI+pqa6+gIlIMqjaX6eRJBk6623wqgk48fPxJHoFOwOgS/pCOLGlRr/bWwClFLLfCBlyvyvoZSissuevlMeRRAEhwOlcFqTr0/yk/V+QnNjE1HREoZ5VP/+/QVAK40vCh0WSSZDjK9pbveItI+oeG+vkHg/QSz8AjgFbiFlQpkyZb5tevbsiVIK59xCn4uCSBxOOZTvMbYyh5/wsPkCxhiMIV7eAwhCqED5KYpRChdGsSCrDmVeecYtU+b7RkQ69+ye5y37BKUoFgoYYju90rpD6BWUPO9EOVAOEVtau6vOiykE1akrLFOmzPeBtRbn3Fdm+UUxDjwPPD+FihyFQoFcNsciQ4WUlvIuNvI7BThEDOKEo363G3/4w8E4R2niV6AMolR5HVCmzA8EZYpgq8nbqWx4wlW0ZQtENkQpRVVVVYfQlwSdDs286lzNx78cKIvIbIz6mKQv4OJNvYguC32ZMj8oijhbiRSaaW1tprW9SEJ7+J5Hc3PzojP94ohne3AonUdRhLAKrHT+VSFlj70yZX4IlHRwxsvii0IBQRAQaA9rbWy2W9r5HUoDwSIISAZUAjF5FsztFrBl7X2ZMt8VLsmSZlmlFGgHonGJCN/zsQJhGAJQ362hi/Z+KfZwEQNKUNoH5YHkY7udKAQPIVhiI8qUKbOS0UtWpgsOLR7OKYSAYj4HXoIgFWCMobGpcXlm+thRV0lHZL0uCTp0Lu7L8l6mzHfI0rX2VgzxrFykpqaSmfOaqW2oZ86sWSSCZSzvlYojdqTLlr3D+yfW95Xt92XK/JAQkZKZXVAK2tvzrLHGWoz7bDyVFdXkc/klC/2SlvvS+Z8OujrllilT5vtEqTjyLla8C54xjB8/HuMZevftw9SpU8ueNmXK/BhRWqGVok+fvjgHWhnGjBlDFEVloS9T5sfM/PnzyWQyoBSpVAqlyj61Zcr8eFGQy+UJwxCtDQCpxDIUeaXz6IixW/pRi/m7LPq5dAnG/6oSMA7xtaVzFm6aIo7tFZHScUtr9behYOy44PehuFza/SxLp7Ii565sOlXA3xAHP7h5amma9KW1VS/j3G96TS+Om3EatCBiMSaOqRHryLa1L49H3vLQ8WKVXqKvCPvynNtxuoVSZu6Fj5IFrsH/c3rDFRHOH5CiVTRxvIblx2P1+bYGoW/6vQ6lNEoveO5xcI6gBRKp1MoS+m+DsjmwTJkVRWsN2HiFrBTZ3Fei7FYQiUN0O/+J4Fg49c/i5x2FKv3BASIKjaIcxtOVroPgD2j2/sZ0LPW7Lvk7lrzxb6cA0Wit4wyv7sf0PnzTpT0sexWwYOWcTCVpjwQXxVF2HmYlrU1Eg/gsnEFXcC7DkDvfYItNj+PO215Ak+hyUpeBwBRRxhJZRTFyOKv+xyf5Uh+KAfGIl8RxnoP/yo5xCb6cHvHKi2OYPSuPc6q01NcsfD+lSE80JujDNVe+wO9/fzWfT56JE72MO18RIfoBIN7CP1hQRRZff8It9aej0g1APpcnlUrheT6hOAi8lST02qJMPo7jVRHoIsqEeF5Arr2C6ZM8mpsC0IlFHlw80keFNFde+jynn3o/UyfnYv9+9V/4cq80SjO5ikAVEcLSOGCIFZw/NGXWMpAkF583hN8cdD2PPPQizY0tSxm7NIqAXDM89fQ4htw5gRkzCtjI/I8pcxRIUPrfPF9nsFcqfj+staw2cDWamppo6NZARWUlztmV8fYIECIifDJqOs8//THTJ4WI9bGSRZkIrT2sK5ZGrkXOFcX8ee3MmNbKXXe+xWMPj8SoNCj/f7iGnqAwjP30C5585B0mjm8rzY6GFdeAfw+4FPPnQrGQoLamJ4lEOk7crkIWvpf4dRTnk/BqCLRHz4ZqMukMxphvLSvtD5E5M4XnnvyUKNcNpRJ8k+2cOGHi5xNJJBI0NTaSy+YI/GDZQt+ZbbOrgr3L9R2GUCUJTRXPPD+JfQ+8hSuve5nZLYoiBi+RwEsliGwG6ypxkiYKqwkjgxWFU4q6bmmuvelY5rXfxSln7kiEh3UViNRhXQNh2I1i2J2iSxKqCOsyiKtYro4QBZYk4iXQXi9gAEr3wHg9gLp4QaQcyqQouiw5W6CoI7I2IiwGaJsmzBrCrMa5Chy1OGoR6nHSDSfdsK4eJxmsGKwLsC5BoSgUi4qoUElUrCWMMhRdiiIeRW0JSRJKDZHyibSPM2kilcHqSiLjUyTBNde+wpFH/I2/XPUEk6c0oX0D2uCI+06ZePWkdBK0j2gDKoEiKC0ROwaJxaODNMWogrbWOvK2SGTaKBJRdB6RBPFzUB4RPhaD1Q6rLRGGSCVpDzXZyFAgoqgdoVZEJiJSjsglUX4aMQFFl6S9IGido0e/BF4qILIZoqgO5zI4FQeJuKgbYaEvkYJQ5XE4qroX0al2nFekqDyK+BTxiVQlVtcSuRqsSyPSVTBKWwfxQALE+QgJQonvqy1fpKiaiQBre2FddxxVOKpx2ieSJEURrFJYl0IHvTDJgbSHPtYEhMonH9UQugbmNjrwanDawyqNxSfCYElgJUPkKolcBkclViusBh1U0dRSpBiBwyNyCp3wiCTEioeTFM/9eyqHH3sXo8doitEAIuPj0LQX5hFawUU9MWZVrPg4W49zNVjR8XtRqoShjUHpOHlmZC1aNLZQXHFFngOcS1LIJWjPCp7SdK/rRU1Vf4q2EdEOp4TQGebMzJBrTVJbkyKZLkCiDWWaUFqIbAIxYLwQsZpIAlxkyLX6jHh/EoW80KdfNXU9k3Tr7giMxSyXsk8QnSUUzZdfFPh4xJdoz7LG2t2orFIESUMykeSLaRrDQCrrfZxuxPOTzJwWMW7056w+qAerr96Xxx57gVS6GxtvtCnZbEiuPUTEUVVnqKu3+EER0KioBl9qmDZpLqNGjqOmLkOf1aqp7eGRzGhQQpg3uDBBkFS4YhUfjfycIUPu4qBfH8j2O62HtSHWeoiAb7pji92JwjqMXwDnM2NSnsb5RWbNnENDXT0NPdL06J0kXREiKhunQ15G+vBcto0pU/MMf3sCgwdvQ0NDHaFtwfeSFIvQ3hYSJHOkq0I8z6BVGK86XYqP/pNj5ox2+vbrQW2PkB69A/ykQlFAtEdYSDB+rOa9d8ay7roV5IoCPvhmVXC9yGY11hrSmRZ8r0C+EDF/zmwSQS+q6gWlIhyCMganikSllG3a1jJ5Qo7Royaz6oCBDBzYj4qq+SivEdElU2DHBKU14gxIii9ntDJmzAya5io23HR1uvdWBOksomYyY2KGlpZ21linlmRGYZ1mziyPG679O4cdchgDVs9w1ZW3suVWG7PllltgIyEsaiCioipJIWfBFOMtrvKYNiHJtKmz+OLL2ay33rqkKyP69E2hdQEjmpZGyGUr0aRJJVNcc9X9fPjhh5x7/h9YfY3uKM+RLyos4KeryBUjkp6H1o6K1CDe+c8U8u1zGTtmHBtusir19W30G1CN9gMUBTpWTLo0O6tSZqvIRgSeWQnae5fgvXem8cqwT3nr9c/wvVrefu1zzm35O9vsuAqIwqD5YPhojnr3Y157+V0MsMN2W3Pmnw5lk5/WkS82cvkl9+KnHH8455cEXobWRp+br/87t97+EIWcI/AgH8JmW6zB2eccyLbbrlFaHi4LBeLTOMdw7vl38fA/XiQVgPFgrbV6ceKJB7DnXjtw7V/v4d47n+K8C0/hwEN3Zvz4SVxx6d/46P33+Ou1pzCgfw1vvjaKjz6ci9aPMGbMZ4RRlrr6FM0tIeeddywHH7IFnqdonae44KwreOKJf2O04AVQ172aP557Cj/fewOCFJx68i088o/hXHfdmfzn7RE88shLiIKtt9mZt177lJEjxvHxqCloBePGjueO24ZyxO8OYr0NBvLRu9P5vzNu5vX/jCSlIBJI+nD+WSdz+PGbUdcA2GUPh0Yn+fdzr3DN9S/huYdpb2ln1YENXHnllVx11e28/uob9B2Q4u6hV7Phxv3AGVyU5pQTLuepR0dQLAhaQz6C6244mX0P2IKKyiTZ1oBjjriYYS+ORgnkLNRUJEilNSZoAuW4+KKbePOVsVx/63Fssnlf0smAE885n389PZYnnz2PzTbfgg7pFSfYyGILiovPvYlHH3iX+U1t+EF8/Wuu/hO/PGAVMhUl61GHH4ACz69k7qw2Dv/NBbz//nScg6zAxoN6M2ToBay2dpq/3fsk99z1Ag88dCMbbJ5ColpOPPos3hs+moH916XfgEH8++lx3H/3G2z500155503mNfYhgCZBDz+xF38ZONqgpQj6Vex754nMHPWl0QWnIv75/6hf2HXvetJeVXstv3vGP3JXN5/92muuvJynn/+XZyLePO1T/n4w9k0NrXz5LMvITbgumvuoHvPdo466hesMiDNzdcO49pr7mLGvHbqq6G9FSILn0/8F7U9EiiTQ3Xmu1UU8nkSyQoiZ/FTPmEht+J7eoXP8DfGc+NfH2bEe2MJbRvjJwxn4sQRKCmAU0QOXn/zPWoywltv3Mbllx/FOyPe5smnX6G1KaKQc9hiiFYaEQ/E8MarI3n22Y/YaJOBPPGvs5kw4xEuvvTXTJk4lRHvT4uPW0481cAdNz3P1PETePjxPzJt/uM8P+wuqhtW46ZbnubNN95n2+37sf7GvRhyz8O8MmwkTz3+Gh+Pep8LLzmKPfbaHJEcPXo0MPazibw1/EP23HtXXnn7bt4b9Q/OOPMgXn31NT4aOZFMRU9uvukBnn3xNX579G4MH30/r793L2uvvQ5XXX4Hrw77EGsTRKJJpyq4+vJbef31Vzn3gt8weuwd7LXvAG677SHOPmsIn346mbyD6bOm4XQzSs3HWbjt1n/w8fsjueLCA5ky4z5Gj7qJ7bcbxNCh9zHqw1GIBbcM81ZHViStkyQIyOXmc8jhu5Atevzxjxcxdco4rrrqQqob1uHfz45l7uwQsdVcetEdvPz8GC678gQ+/fwR3hs1lJ/vshmXXHAro0bMREsVZ/3haoa/+Sn77L8eb75/M+effSw96nvQ2qwpSgvOayKRMqyx1ipkKqpK20UDLjYoKWW7KHJNp2Vo2Mtv89yzI9hr7134aOztzGv/F0MfOJPrrrmbzz+b1nlvWhb82GKCww+/hPdHTOfOIRczY96TvPnyEDxJc/JxVzJjknD0Mb+he0MvTjvxr8yY5PG7o87l5bc/Zre9tmO/325OujJP0bZSCNt44cUX2HWvQYwccxdTZ99Pt+69OOy3pzL589mEBY+zz7qEppa53HP/mUz+4p989MmjbLfNGpzyu/OZO7sdh48rKeSvu/pBnnvuI4a9cSujxt3DMcf9gr9cfQtnnn0dw4d/QEu2nVdfeYvJk74gChPk8yEXXTOEULXz4Uc3MGHaE7w5/D42GDSA448/kWy2/SvP2RiPfD5PoVCIS10tSIG9Auhmfn/m1px8xs5cf/Wz3H/PK5x+5m/49RFbYIm47abXkcjSr1+KnfbsxzobaWp7rsPH4wczfswMJk+cxzrr1+J5AQqDUh6Ipi37BcXiTIzrj7hKUqk0x560G0edtBU+dcvYzXexYwt88MFIPvhgHL/Ybzt22HkzXOiz3gZbs8G6I3j4HyOYMXMav9p/W7QRLrvin5x26pXU1lkuu/ogDth/M8TlUcZDqwSBSfDHP/2SI47ZmboeFq1aWHW13jz6yFt8PqmRbt1nM3HSDHr2KbDLL1ah/+p5nIULr9qH00//O5OmzCUsOAIMhfYiswuWcy7ZhUOO2ICqKsHTSe5/8ASUq+DYY27m8Yfe5OyzzuCAQ36C8fIUck1UZBLoIEEm3Z9Esh+rr1PNkAePRqsEmVSqVI1ELdWKFVcPgkwqQyqhufqG09l2u22YMvlS/v3s+xz+u23YZd8UL7wScvft9/OzwWvSp+8gRo2cD0pYbe0U1d2aqPc8brn7bA4/+ELee+cjMukEoz9tZX6r5bCjfsnAtSs55oRf8dqr79PcPo3AqwDRRJHwk0HrUlNTiyVEo3CSxFPJOM26C1hgtzdgM9z81zdobmrk8KMHU12boKl5Nj/dehNSlY+Vqrp03LBDiUKcYvq0JmZOizjuhD3YbpdVqagO2WrwIHr1reG9dz4kKiSo69nMS+9cxDbbnMluu5xMc3MLRx65LWee+0sqKpJYHJ4PTW05zr1kV046aT+ClCYs+nhJYe60IvMb2+kb1TLsublccd3R/HTb1VHBLBr6ap5+/m9stcnBJBJ1JDMehZLl9f6H/s5p/7cPPfpmSSQhZDRvjrwIR8CN147k2r/+g1eGX099QzPKKVSkqdUpvpzdRirZF6dyrLKO44U3r8DzDH6Qj+vbiEOLBhH69u3D3NYcjS3NcRZr7a240KuOTPglt3oPhacUWsChsVZwUuSgX+/DIb/ZG0MrFZkK0pk08+ZNZs6ceaxlawHQKhYsQbH/gb+kZ7c1uezKIez9i7PYbafN+O2Ru7HJFj2pq2/F6OXXZr7yyluM/PAjRrz/ES++9CqZyjTvDJ9GW2PESSf9gh12WR8xzfz0Z+uz4TNj+eDdlznh5EPY/efbx7n+TezH3JbPssZaq7D5TwfRvXc1YppAdGxOV0LkYPTosUyeOpMjjj6GwYN/BqqdyFrqGxpoqKmiaW4jxYKLtdG6yGVXnMRBh29CuipCa41ygu4wxytwWkq1CCKUdoRuLmeddySBV89ll97OxRdcx4knH8ghR+xAXTcPZ2M9hyhBLdN2HWE8gxNNFEYkk4Z+/bsTZBJsv+OO9O7dm5oaD+M5jCe89/67zJwzlyOOOZq1114H48WOMz26d6Nbt3re/+ADjJcn19rMLTddwEYbroVWltqaSlKpBDYqJVFWYJ1BRGF8g/byYC2IhzE+Si9w01U6VsSBR1RMM7vRcOhv/8iOO63PtMk5Xn/7M/bYbQPqu2XoHOVE0KJwAvsfcC4Txn/JjCnz+OSjKfTsk+Hfz48mm83y1DM3scZP0viJHK1tGg/F3Hnt9OyR5JRTjqOuLotQwJiQfCRUVCj22msXvKQltHnAw/OEyBXxA5958xrRCjbeZEOSSR9XGoT8dCbeU0cKEY1zscwceui+nHHeiaTTU3AuLiWNMrHfPEXi/JOlFY9pQeuQl167m8N/ex7rrLM/BWs56w/7cvrpv8avVLEAuoWtO03NzbS05TuzYFlk5Rt8ldaozhxecQMcDu2HBMGCPfjSfcoEz3MM3mEQTz15DVdcchojPprEQftfzO+Pu5vRHzaiSC5/m1ScVmyjjTZgrTXXpKGhniOP2pPnX7qT0848jIYeaSoru/Pk46/x8stvs87aA3ngvpe4995nyBUc4KNVgNFgpR1r2wmjNqKwiIsUEz+fSi43l0TCYYyHUoYgkUBBZyWSpqYmmlvbsA7CKMI5R6oS6ns6MpWq5C4Zz8BKxbHQapEeEhE8E4DXyDkX7s+b/7mT7XbYkBuvv5+dBx/LPbcNY/68dpzY5e6buLfjh+GsQylF0vPxtEYpReD7aK2JIosxHimtqa6owPO9zlqDM2d+yaxZcxnQvx/WWsIwpLKyEmU0YRRhEgkKkSNfkFi2xWGdJZfPYZ1FKUUum2XKjPnk8sWOFqEVFHI5AHzfI1QRP99xJw464GACr44Bq/TjT2ccxjU3nMGA/usgEpRSuXk4PJwYPD/e5x93/Mmss+76aJPg9DOP4MNPH2a9TavQQRvz25ponKvwnKF/vzTz5rdy7p9uZvYXhlyhFStteJ5gPAGdA91OZTJBJqPJ5SF0kEyn8RM+zW1ZIidxubfS43PFFhRCFIVk8y2gHAbY76BtSJh5xL40qvPZG2O+KhwSxyx06x0x7N2HeeQfd7H9pttw7TX/ZEDv/WicE2AjH3SIVqbztFw2BwKpZJJ0OkVqWdlwvw5KxamwldKo0kWVCFpiR39NyILRy6JxaB273woRHd5ExXweV7S88OzLBClhz7234IjjN2XXPTfk9pueYOjQp1lt1TVZtX9PGrp1dIguddLiZ7ZMJiCR9Nlh1/U46oS9USbAGAVWsMUQ46p56Zm3eOCeN1il56acfdEpPPrE81x1+d9IJzwO/e0v8NNJtHjMn9dMS0sxrgbkfMQGTBw/lyMPO54dttuSsZ9OwU9XMnP2PFpaW6gN4rRFd97xJB9/NJ6DDtqDHj3qOjOcGM9hDHHtgK7adhUBtuSEFzvkKFLMmd3Myy+/yEabrME66wxk6ANnMWlcyKmn/oUrrxjKqqtn+Pkem3emTIrp8HxbZJ+vAOUQFRcgtS6ksjKNMgqn4v2h0pDPZykU86yy6kBq6it4+KFH2Gq7IxlU0w9tDA8+8DhfzJzC0cfvjFaWysrhTJ8+hdaWKhq6J/nrFX9h/Nhx9OmbIZXUKIENBq3PjdcPZevB/enRexVef+1dWpsaUUAUalxpWdAyP4svSVJBCqUtLa3T2HPvA1htjQZ8H6LIIraFbNYS+B7a2FIxRx+Ang0wJZ2kvnuWo/b/OX36V9Ha5tB+I1qlUa6Busqe7P/zY6mtq+KpB27h4rMf5MknX+TCc4dyxTWHk0l0RzmPxkawxVqwVTTn8wx/awQeeQZvtSU1lVWsOqA7mVSAUbE+oUPo//znC5kw40ucDdE2IOHFA1oyVSS0WRKeimUhrhyP4DAlmdE2g5JWtG3ASTMP3f8Ye+wzl533rmSb7c9n0jjHnnscwH6/OoQnn/krNfUd8qhAKYIgIF+IMNqQy+fxgsTyzfTCkp2hNIImwjMFjGeZPmM6n34yieuvfZp77n6B6oo6kl6aXLMi2xIPBGEhJCqEGKXQ2iIuD65ImBO0SxJZzTv/+ZwTj7qV008aythP55Mv5Jjf1EIxJ2SCWoJEij+f/wgNmeO55IInaGrOdnmlhU63ROXY/4BfMnj77bjttge4984HmDhmKo/+7TW2/9kf2HyzfXj04Zd44vEJjBzxJfv+cgc23aiBfXdfjw3WGcRppz7ISSdfzyfjJmFFM21GK6eeegUX/PEBXn5mIr/e/1LuG/pvMtWz6d67hR12XIvNNujNrdc9wC03vMCoEXlOPOZuht7xBltssSHr/KQnShVBHMUs2GKsbFZFQYdAJIgLEZdjo/W60bNHJe+/O4rdd7qM229+g5eencSNV49kt22v4rorP2DieENb1pITh3MNCFWE4nPIgTexxYZ/ZPg7U1DaR8TFM0rJ/VWUAeWYNmUibS0teAqMLuJ7DqNAEYLEPtue0iR9j+rKChrqPcaNncCId6Yz7bOQay59mNuuf5oB/Xqw2qq92WnnTejRo4aLLriBv9/1H0a/U+RfT45kzpdNtLflkGIC7dLsvvu2NNQ3cNJxf2a3wWdz3NF3M+6zORSiCOsilM6RSvgU23zaW4W27EzWWsVn7OiJXHz2fUz5bC5zZ8/m1htvZ9tNT2DCmMl4kuL80//OwB6/55d7ncCUydMYMvR8Bq5RxZ/PuYHH/vEuMydr7rvjJQat9n+sNuAgxoyezWm/u56xo77guusuorrCcvk1e7D2Oh5PPfo2m657JJ9//imaCAtsu/mJXPTHh3jl2emccuRQZn3RzO13XEjf3t0otLex0WZpdt/+RN4cNpnW6dVcfc7LPDTkbfrXJUkkmtBK8DUUgDkzLUoUSlm0KLTTaEIUebYfvDm11YY503NcfeHj3H3z87TN78WF5z/Hbw/+Pz4dOQulCqhgPChHZbp37IknGtdl8kil03ieR1t7G9ZZGhvnrbyZ3onlwIN3pHGO4x/3P02qwnDCKfuzxqCe7LnXJqy+Ri1BAsCitVBT57H14LVZd9CqVFYZ1l2/L9pLkU77pJIBp51+CA3dMjz1xPO88NwwwkhIpRKccvq+HH70tlRW+dRUVpFI+zz1r+dZf5M0e/1i567DVGfbMlXCeRfszVWXhVx6/hNc4p6gV+9ubLzxIA49/FBSqQJPPPAWe+2+DdtstwrpmjYG77w6Awb8meeeG8Z6G/ZnjYFrERbeYf999qRbzxRvvvUST//zadYY2J8h95zB9juvC+Qo2C8585zDcTbFzTc+w1VXPEEygF/svQ2nnXEY6w7qSejmkkpHJNIgyiISLWivimsMiAo58eRD+WJqG48/+hQ9+9Wz7rprs+0OO7Dq6qtw2833cuvNQ7n4kjswwJqr9+G2285j2+1XIQybEOf4fEIjs75oIipGaOPiaSdgIAAAABCpSURBVLsLSjuUCVlllRS1dSk837HdDlvR1pqnd58UCLS3CzoI8ZIGpS2333kJF/e5lcsvupczfn8LFZUwePAmXHTFCay+dhIb5Rhy7yVccckQhtz1IDdcN4STTzmKyOYZNXoSoWvGD1po6J7ipFP25fHHkhTyRY4++nAmfP4Jjz70MokgRRCkOP7EXzFkSDueDlEi3Hz7BQzZ6EXuu/cpdt35GGzk6NevksuvOpM1B26McpqfrLU+VZmPqKtNkUgGpFOaRx69gvPPuYMbb7iDK6+6kV59AvbedwvO+fOf6FZXyaSJM7ES4iebydQkMUbz/LB7eOyhYYjOUl2TIoqEvXfdmo02GcQrw97luX+OZJufDeKyy0+iZ/+AKJyFkxw3XPcX9tjhbPbf5xLyzlJhDLvuugU33XoB1T2no6KI1QZW88W0RjIVoM2iVpZ4otpgo9WoqTH8fOf9WWOt7jz62J3U1GpOOfHX3H3P/ey63am0FgRPoP+AFPf9/QYqq5oRmb3QzqBx/nycCQgSCYrFYrwt6yhVvSgdS8242IVGIRx/3Nb86cwdUa5I15WoK6XEFjxsMYPWVRhf46Qdz/dwVoiiVgytKHFgkliXxEYBxuSBLM4lY48zEyHW4FD4fgqJ0hRyCUQc2m8jkcwTFYs4ZzHRAC49/zE+GfcM/3fWz9lyyw1KN7xA6AWNVR5oH8/0wBbThFEedBuKHGExj1ERc75oI5WopL5HJWJiJQ0uiMt2SYSTIhef/ySFfA2HH7sbPfsYjIZkIkCbAuhmMC2xM4ith6iG1uaIxsYWUmmP7r3rCPwQJ604lccWk2TbI5LJIonEIvHlyiIS4pkM7S0euHpMoGLnD21RysOoDPmsJZuNCxsEyZBEKkLpIoLlwbs/5OYbHuWCy/Zh9z03RMgjolCYUsoDhUPItvtonSFIFlAmC7Zb7O6rW0HnaZznSCd6kqmA0M3DGI1R1UyblGP+vDbqG6ro2buSSM1E6RZ8Hwy9kKgeGwZxxKRXIIryzJ8zn8raHImkQ6sqcBUYk471Ty7EugL5XICfmo9WhnxO8H0NOofng1IGcQmwaaLQQ2wy3v/qeWhVxKDQpgokwKn5CG0IeXAJ2to8kqkGPJ3BeS1EksdZH18HuGKGSdNGM2C1JH7CoJXC2SB+B8Rj5sxWdt/hLAauWcNNd5xGXU1vnDiM14xnCjiJ0EpK1gOHkQHMnDGfubMjujcMoOeqKYz+giiahXIBRPVgKxEvFyuDVQEtCimZWZ0CkQxhsRqxFfhBhDYtoFvA1mJdgshG2MhiPIXxCniBw7kIrQpo5eIttc7T57f30JKP4thFo0GrFZzpS6G0ChMLm7KooAUn87GA1gYbxgohT0vJWUojroiiSOCrBQo9nQUszgqiPIwyuCiLYy5eqkMYFNYJ2hOIhLuHXMU/n3mR353wK7bacpN4xlQLh/cCKBwiRYrhNFCg/XhQ0AImELRy9F81DTiQVgSD6FzJsw1s5HAOjBKmTZ3E/HnTGbhmb9CNGB2h8OO+cMlYeHU7JFqp6wl1PTsG0CYi50paVIU2BSqq44EjHqO6rE5EoZWHtQWSqQKKNkTLAiukxCHLybQmlfLjPl3ouaR47sW3OP7Un7H9jqvjJIwFWUWgYyWfkviZpVMgMh+tdOxJwpxSHwo4R101wEyUBHgqBAdWZtO7n9C7nyAyH6QRHw2SRBUVVloQWmOrhwjOCb6n6d5TIRiUA1E5II91qtNnQGkhkRaUjkB8Esl4JjTGIQIiGqUK4LWQTMTvlbh486yIq7ha11h66F08EnWRiqoiMLXUPw5PaTAGpTQ66VhrrRRKORAXP0KKQAGUJqm7o5XHl9PnEhVz4M0k4cf9pcRilMTbJtGgHGE0hR59PHr2VdhoHDYyhFESrRMY7VD+PMSbiyJOWCliUbIg4tAIiGpGgrlx83VQiruIYkUdikyipKwrWXacWFA+Gj+2/pQsB1oblLKxBdc6sIvmpPpGqAW/RaNwsdY5fkooJyWllRA7WrjSzcYKnbj8deklEymdTxyLX3IfjAeUONw2VhQqCPIcd8K+HHvMYYgUcK6woPBH18w9KtYjxEK+8KJGScna0DWIRbnSIFE6V0EqnaRYgEyVxjGXQtSINt0wRqPQiItK99/RF1FJrdBFOVeaCeLYhVL+AFws4OJgkbZRsrN2JD/QnQND1z6nw/Gs9HGsEBVC/nbP8aAdXrCkLDUOTRynDip+R7pofeN7MXEcOwokWij+oksvds5wC8K4BSWq9DxLxziJX77OZ9JxnS7HUKqxICVFsHLxcVaX+m2BolasW+iuxC0ajt1h4y+Z/roEjBi6CAyxxQKxpfdgga2/oxuU10KQcEyaMpd8MYtWKZyLSlNdSX/UpW3agFKCcuBpEw8iOsSV2tDxTsRtWnwKsA7zd0czRbmS7wKgNGLdQvcQ/4Qlg5zpch9d+kgcOPl2MufEmkNKSoqvFx20qJlq0fPjWSFe0iodov35pRlg2ddZ9JjlbVkUxj71e++/EQcdtj3de1eX/KxjJxBYvFh11cbHVYLiCr+ds0LHOkcWHydfUsDGlYUWV1hEFOCz4KUpzRZaMBkbK3SUKk1ei/fQi5OXLLkn1CIv6neH6wwRXbACWpLeWXf2YWd7V1IrlEBNjXDFXw4mSGj69uqNQcBZlOqweS/SfyoW9IU//gay0HH/i9Gidz4PKTnILOGrW1taUEGK7Ly5bPTTnzJzxhcrLvQiPk58lIpi98llsPQbV11+lnbRAJxBVAEhWj6BX8JbsKSrxWafjuvFJpi11lodURbrCvGAJqpjQbPcLJDdjtG+9NC+6VuqOiwVXXAp4iQMcchzl6XAks0w3zXx0mIJf+wIsRWUVkipzepbzrGwpIHN89vZeZcNEOdjbRhvl5RbdFO1dL5JNaglDnIdM/six3aarRf0a2VVFXmrSNfXM37MWKy4FRR6BcoHP6rEFSqJOhxMKA0ALgFhqrTst4iKiLTDIiT4Eu3PQYzXZRZa0FjpcPFb7HULXVbvX/FiWOiFioX663f4woOngHaIbUGIvb06VnbxwnM5LJ+yhH90DgBLbp/rPG5xQmK7fF76HtW+yGcdk/ni2vkNXsavsJjvXeJLvhQvQdEo3ZH5Rbo4eZWW2kts5uLfFaWW47mw7FWMchZROZyNTa26Y0vQpW3Lg17k2K7Xla+suMxCx8bbIln0EzrdlHFxIqxO4V9AGIWdR2YymRUT+khBlE/R3lRHc6GSSAc4fJToWDCEkrIDKAl9UQv5QoFeVb3o3U0jzFuRJiyBlfEif5UFA4EsRQiXl5XVxiV9z3e9HF/02su6/mKOKe2LVcfGf7n76NtNlbVALxN2kcuv278ro43LTrcthFAKOu9AROKwZKCYL6z4TG+VUNBCVjtCZRHno51BiUYph9YSz7SK2D9dg2gP0l7saLa4FGBlyvzA+O51Gt+MDlfernS0PYp1sytqsgPtDH6UIAhTKPFQyscYH+ccYjVGGXA23pcphTJgrCUoFlD2a+2KypQpswJogcp0xYoJvedAu5AsFsRHi0Y7AYmXQZ4xKBGsCBodmx4ExMX2QtyStY4/PMrDU5n/cpSjPdu6Mkx2cRinKIOg0coxbvynPP/SC7S1tJBOJth4o4352TaD47BJQDmH6gy+KVOmzLeJUgrP6HiOVSvqkdfxpcSGf1sIuevOW7j1thtR4kin4oie+++8nV12243jjjuJfqutUVLPLIdprkyZMitMnNw2TpDpB/7Xiafv4lTiTKdziVMaqwxWIp564iGefORBDv31wbz99tu8+8FHvPGfdznl1N/z3jvv8OrLr6AxUPL//t/ObV9m+ekojLEyvmNxPz9utI4j74rFkKgYLs8dqzh8Vha4JXb174jQFEp+ldnW+dRWJVn3J2uTrKglJwmKfoY99vkVO+6yM5+O+YzPJ88E7ZXynv+XVyUp8x2xGGeUb/wdi/v58VLIx1lzNtl4YzzPR6FX3jCnujiDKAWuS2mdtvZ2su3tNDc309zc/D9VtKBMme8TP/AJw5Dhw4djbVzIcsVz5JWGjTAKyRcjwlABHlprrBJwGhspnAWFxdkc1hUWRI2VV/hlyqxUuvrlx1F2Cs/zMKVl/grO9IJWiigM+fyzCUybNImKVJLKdCa2zwOg6N6tB/XdutPY1Ejz/NkIFlGa/92yVWXKfDeYkiuzKeU8DPP5FV/eC4IT4dXXXuXFF4ex/qCN2HDDTUuKOoU4Q1VlHQN692f61Kk8++KzTJ8xGaeFUEP049ejlCnznSIudrt1IoRRSKGU9z6fz5NMJlZClJ0T7rvnHm6+7h623XIrdt9jDxoaGoh8n7Bkhm9ra2PbwYOZ/Pl4/vbgA3Tv3Z311v3Nil66TJkyy0CcECQSJDPp0ky/3BVuSpr2joB9ZUv/ju1/tXUNNHTvxYTxnzFq5AgK2XZsIUQ5MFqoqa1m1pwv+XjcGEw6Q119DyoSVShXXt6XKfNtUlFRwYABA2hvb8doTaYis2Sh79CwdyraOxM/aOLqDvG/tTHsf9ABnPT7E/ESPq8Of4s3P3yHQliMg9GUkC+08fbwtxk3djxHHXU0++13IGEhwrMK78dtMSlT5jtGo3SchwCgPdvO9OnT8X2f1tZWmpq/lhuuLDzTd34cK/N2330Pvpw8mVeG/Zvm1iaCIKAoINoy9rNPGPvZJ6w9aG022HgjUsk0RuJEFD+UnA5lyvw4+Gr6LRfXs6KqqoYwXAmlqgHipPo+qSBAOYuNwlIihJjYXODjeQFBnAe7TJky3zFtbe3k89mVUcsuzt7p+z7O98mhCJVPqBNYEjjihIOedqXSTR1JCdVSc7OVKVNm5WCMQbTCRo6E7y+v0C85dZUWUNZRyOcJPENtKkMQQSIUCgYiDzIVGerTFVQHNfTu1auUS59yvE2ZMt8ynvGIU8s7xEaI2JVQn76UNDKVSlNXV0O22ML02RPJuyZsOA/a5/Lqyy/z+LDXCGrrqKutLeW/ozzTlynzLdNRZLRju23DcHln+kVzii/AKcFqIYws2++0KzO/nMXd9w7llpvvJuFniJwlm21n621+xnY77YwfJLASxe67ZTfcMmW+E5TSKA3JZHrJQt81J5hDLTwpd7j2onAaRFkMQmVlFccfcxwH73Mgn034jKnTvyCTrmCDDdenT58+sbbexeUsxDlCVyqWWBb8MmVWOrJoPQWt49Lpy3f6UpbhyuApRaAsQoAKAup7V1DTqy+bi2CURpzFiVvga68iiqqIlejbqbZRpkyZztp4XUmuaH16BahQUGEOY9twGIQAUXFllY6yTEAcxatKJZBUiC85lLg4TXd5pi9T5jshn8+vqNArjNdCTV1Ibb2JixNqH9ERTgRxtlRHDhbUlxPivNxhXLSyLPBlynxnBEGwYkIfm96KiC52auIFBU7FZgG1ZFNfmTJlvnu09laGc44q29vLlPkvIZdb7ii7MmXK/Bjwva+VDbdMmTL/LXRo7hctx6W0WrbQxzmzF2zNF3KkU8T11lnUiB9H48kSq6KXKVPm26KrwFvnsDaOilUqrm777ZrJJYh/q+K3epkyZcosHt94+L6PJU54Y4z+loW+LOxlynwvKK3w/EScp1JKVaNFaG5tW1Gh71jKl9X3Zcr8UFBaxUt8a+M9vNalIDchVZHm/wHtUDZ3KdnD+QAAAABJRU5ErkJggg==;" parent="1" vertex="1">
                    <mxGeometry x="210" y="50" width="253" height="79" as="geometry"/>
                </mxCell>
                <mxCell id="3" value="" style="shape=image;verticalLabelPosition=bottom;labelBackgroundColor=default;verticalAlign=top;aspect=fixed;imageAspect=0;image=data:image/png,iVBORw0KGgoAAAANSUhEUgAAAQQAAABLCAYAAACWcfkHAAAgAElEQVR4nO2dd7wdRdnHvzOzu6feftMrSSAJvXepgvQqilThFRQBQemgqAiClNCRIlVAAhh6CSi9Q2gpgATS2725yW2n7e7MvH/sObelh6sCnl8++7nZs7uzs7szzzz9EUOHDrV0wCKExhNt7LTLYL637w68+PLnPPX4RwhTiZEWI6PzukNE/3r+vDqwIC0Iou3rA0vnc379eldGGTrU1NXVEY/H0UYDIEU0TrW1BEIjlERYzcz+DptsuREff/wx7ZkcUluSiQS+7+N5HqH2EUIiuhIEK0IsAlfHkKZALBWAErS1KaTwigTBsCxBWHsIC8pGf8tTrowyVh9hENKnbx9iXoxQhwjROYOsAG0F0nGw+EzvKwhtQKg1SkqUNdTV1rFw0UKUVBhrcV0Hp+sNhPXASgJhEdIlyKrS2g/0LiEoo4wyvhqsNSs5ZrFdpqvWIYbo/DDUOI5kUUMDQkgc18FaixCiO0EAEFgQBitMJAJYgxBEJKcIaS2quL86YkLpHLscFkAURQZEmdyUUcaaoDR3RBexu+uxnuQimUzh+z6FQoEgCDvECyEkYeCjHNWDQ+gyJQWiyMcLhBVYUdQUGM1PTjyQM395NNoHIQTSCiRyrR/MsnxiUUYZZawIBqkCECEQzUMhZKfYIFysVEjjkWEOG//fJTS3ZwFwXYd43COfz1MoFJDSw0cTd7zlcwjCdlWmlWABGZ1hG5HyI1xPI4tLuzBrp3gzWIwAI8UaEwVrI9ZC9DIxsdYWCeLXp91vWp+siVjQtWrXWITs/RXiq7S7smv/Xe2uHAaLAWGQRUJQ2qy1iNCgAx+TT+IlWijksxQKBXQYkk6naW5upr6+nnw+j+s6hIGDknJZgrBiiI6/UhRQ5FA6iSzNYttVK7/6kEJiERhjsT2uFx08y/LbFUgQAmuWvXdEKUWRaCx7LKJ5K2hXFAnfCtpd2bUrw1dpd1XX/jeeVQi5wuNCSLACa5aVc0uDdkUQQoFZvowc9XfFx1YmV6+q3VVda/Xyj3/VdtfmWiEifR9FzlwIEYkAJeJiLA4FkCm0lmhtUVKC4xCGIZ7n0dzSQp8+fVjU0IAUgiAIVo8gWFsSUCzSShQJlJIg2yNe39rOLeoea7Zs26LuYjkPvhpXr+ycFR37Ku1+1bVrRddLsWoua0VHo9V6RYRz7fu0qmvX9vg38bv+N551hddaF4EHKKDT3Ngx76QF0QrWoEU7YFHKAUKMMfTp04clS5awaMF8hgwbjnBcmpubuxMEi10+2y6Kk94YrIiGnbExlI1BiRZADw1jqaHiyrMy7aMV2LWeZmvCmfwn/AkipWz0Ykr363rfFfe3+6LZ89q148DK6AlT/D50W2E7jq0Uikj7LUEEdB9LK7lWdDlmS/db3fvK7v8XfvH+FOdMdK0u3arLOJM2AY6P0W50TAiUcvBiisWLl6CNoaK6joULGxEO1NfXrwGHUJIVhcUi0VZhjI4sBBQPi9LAXUN8pTkq16CB8qQqgxVMyuXtL++6tVGK9JjUy2DtFfLL3Kq0qoiIVHTlOo3RVFZWsWjRArx4nHgyhjEG4YAbj9G0dMma6BCWIyeucm6t7ur2VVZuy6ope9f79MbLX9nzCLBqFX1YIeO/knbL6B18he8vdNed3mt3GayEe7CrO2VlNJSERUqFsYbRo8fwySefUFGRplAIsNrguQ5KKQKjUY6zqqfoHLwd4oSgaILs+Up6DubSRF0dh6au567ptiYT6KvcZ23vubawXbayU9j/DlY2JVd34YtgrcUUOYZkMsmnn36KNoZ+/QZibEihUMD3A4J8gbjjoeSaOg8IE+kQWdPhWY4FKKOMVaM3uYySCB/97devH7lsjnQqzazZs4i7MaSFmsoqhBBkshnCUPdyD8ooo4yviLC49S7mzplLfZ96jNHoMEQ5CmsNbW2tuK5LZWUlQi7HdXnt0ZML6MlHdLWVd1KvstzcFSvipMrvaPXxTV3jltNvK7tbKNa0RSE6hAwpBe25PEIKYrEkOoxiHQoFn9AayGZJppJrQxBWYDLDdgRPdEx2a4uKx0iZZ7uENBbtFkUzSW+b1b6pprrlE9GOTWiWb87sSly/PhCYjr5aAaYLrese3dppPluWIBqWNdt9Uyf9ytAxdTv3uxEDw5o+tyn6D1lrqaqqpS3XiEIRhAUMIYMHD6a9vZ18Pk8ul8XPF3qPQ+j2gZfjhRZZLFeyAq5VMoX/MVhJV1L6dSYGq0bPsbASrb3lK62U3w6sPREUQtDQ2EBFRSX5XB6AeCLBzJkzicVi1NfXE4YGR63SylBGGWV8G+C5LkuWLI08WqWgkM+TTqdxHEVra6RHsMb0pg6hiA7njU4PxchwZjsDMCi62nZZ1EoekKWVrpwwpSdKL0tGokOHs0uJY/j6odN7tZOrKXnCdmMIrexyXpefheyMbxF0OsGVsVroqkPwXI9YzHZaHhxJzi+QTCRoaW2NsiYFwepzCNZazErYUovEWhdwiFw8i5tVWB3njtteYvutT+aO255BCKfbt7cU3Z9NiNYSK+JYxwDhWnLCX912L2zn9p9DyXGqtJVmjy7qD0p+END9+b6mupJuk9yCdWhsNLzy0kwaGyOfeig9W/f+G2Gw1hL6/fjTJU9xxum3MXNWM8jSe/i2ovSNZY9tLdBFzMrm8iTicaSSaG0QoSEd80i4DumYR8pzGdCnT2+JDDby7ZY5hAyK8RXF34SPclLksmlmzdA0LHQJw9gyMRNRfESC6655inPOvIfZXwZgE/y3Vj8rOrf/DroqRnW0iS5EQKyJ49d/BwY60u5ZYcCkOO/MuzjikHE8cO8/aV6aL3p1Lv8lWyRCKV56fhF33TaVhnlJCGrh38DYfm1hZXHzWCulYhEbb7IxrW1t9O3bj1QyiXJdUJKlLc0YAb72aWpe0lsEQVCKuhICPps2n4lPTmburAJSxTE2h5QaKV2QGsfVyw4BYWlcvJiZXy7h9ptf5OHxrxVn45p4OX49J8bawXaIX9OmzGXiE58xb6bAGi8KiV2hgvZrDBOnaXGBbCGgtr6WRKJI8Ffw2YyNOAcpFRVpiXJzoFrpDOX59qOtBZ57+gMC30HFZEfMkFiNaOIopD3i7j/79FMcx2HRooX4QYAQAh1qkqkoi5LrulEI9SqapEOmp5g5aUVnWRdjqghFHY89P51Dj7iFq659k4UNHoXAwfESOF4abUFjouAomwIpQWlA0n9ALeOuO4kFS+/ntLP3wKgCGkmgXQo6RmhTBCZBQQtCBAaJ7RBPuphrOohDJwtukRgZYJVFCxdj6jDUooVAI9DE0DZJaJMYEhgRQygP5dUS6EoyGYdszmKEi3QqQVYS4mKUQrgVSKcfVtRjTAJrBdZEAzqUmoKJ4+s6fBsnMAm0TqONh7aSsNCX9rY4fhhiFYSmBmOGI90+WMcltFXcdMub/OjoP/OHSx7j85lzMVLgW0EoQAsPX8cJdAytqwiDapAppIwhcBG4dETpLe/bCTAqRMSqEM5ATAzCWBvEDNoR+EKAl0CrOIGIEUiHQIUYV4JbQ9ZP055PUUASSpdAKgJlCVSI8ioRIoUJq8m31+MXasjnPPxQ0LffYFwvgRUJrNIYXKyIIWQcg4cfgDEuRigKpo3BI1LE0wYtPALh4AtBJvDwbTUFk0B4VWipMNJil7tJDBIcHxWrRnl9sKQxxLAksSQQphLl9UVQRRRe7NKeaUZrHxlLYB0FToKCCQkAIx2Em8KIJLkwQVveo2BdfCvRxPADF6lqEaIKa6uwpAh1HIODdXykI7G2jkB6BNJBxqrJhh4tWUtrPk8BuPeBtzj6x3fy3nsubW0JAqHQ1kVLS0HkyfgxZGwAKi7RpDA2HvGTNgo1MGissoQ2QBMS2hCUxg8tjpcglw9BeEg3hRNP9a5jkrUxsjmH1qxGeA71AwZQXTcIHbZghUQjCIxL44IKsq2K2poE8WSA8jIIlUUJix+4GBSeVwBdQIo0UtXQsNDng0nTcByH0WNHUVUjiSfbcZwc2HA11kqBNUkMDksXp/lsyhKMEQwe0peavppEMkAph4aFOWxYTW3fEDfRgvVDGmbF+GDSdEasV8HYDet46vHJ9O83hk232IxFC+bRsjQA61BVHaemDpxYlNrKksBvH0xjo8u0T6aRTFg22WQEFZVgbAtS5skVJL6fxIun8DO1vP7yF9x++/X88PA92Gv/zUEJfOvgA/FkBY5ThbFxHFdQyCsK7VW0LtV8/ulMKlN1rL/RSBQFjFqEkIXV+nLWVDLjiyzvvT2ZjTcZzaDBg9FeiFIBrYuTBL5FuC2kqw2uZ0BYHOmwtKnA1A9yfDl9IeuNGcTIsWlSFT7SyyJkQDaXIdsSZ+7MAh9NmsZuu66LFRWAwI0pDC7tTWm0riZd04ob88n7Aa0tPtofQKrGx42pSOEsBEZYjDAYK7C6nsULJFOnfE6fPnUMGZ6mujaF6+YR+NARhl6EccAmyLVUMOWjuTQvltTW1jFqgxgVNe0I4rS31LBkRgv9Bnm48QDpKKQdxKUX3cHBB/+AkWOG8Ztf/5F99tmHrbfagVw2JJvLIETAoOF1KNWOti0o5aNUBW2Lq3j3tc+ZOXMmG2y4PoOHpaitjwF5rJE0LPYxBUtFn0qE8DjzrGtYuGgul176e2pq6ihkwZppaATD1x2BZT5aG6Q06EJ/li72mP75UqZP/5jRo/uwzghFXW0M6ZhIXIdunIQUkkKhQBj6JLwEWgfE4x7aGIQQxGKx3iMIxkjefedfvPzqZ7z12lRCH55+4k2aFixkjz03BAQSw9uvT+bDd6Yw6a2PwcLmm2/JGWcdw467DSOTb+Kyi+9CODHOPGdfUrEEQaGKiy+6j6uuuY+KKki4kGmHnXfamlN+uT9bbduPRHw1OihAmCSNiwQX//Y2HnpoIsZAGMCwdWq54MJjOfCQnRl35d3cc/uLXHDRCRxz4u58NmUOl/72LiZ/9C6XXv4TRo9dh9de+IJpU97DiRne+WgSLc1NVKYkuQL86fKTOOa47RA4NM6Pc/ZZ1/HYE8+hvADHgZgLF190Fof9aCe8BFx4/jU8cP8rXHXlJbz62pvc9+ATYGGvvXfl5RemMO2Tf/HxB7MIA8EHk2Zw49VtHHPcPoxatz9TPprH2edfxftvTqEyDkEIjoLzzv8Zx5ywNdW1rJYUpWSCp5/4B9df/STJeJrmlqWMWm8wV1x+KVdecRWPPPEiQ4cmuO0vl7DldsOwSAp+Nb865RImPPY+hBZHglBwxbhfcOChm5OqkmRaPE476Wqef3Yyrmtozl9KGEqUskhlsFZyzplX8vI/P+buB3/F1jsMJJGo4NSf/o5nHp3D/U+cxdbb7xjlCuySZizIV3LeGTfx0INvEIR5hIRsDq6/9jQOO2JdKtJFbrHkxCTzQJIFs30OPuB3zJoxh4o0FLIx1h1Tz10P/Y7hwzxuuflBbrh+AvfdfxNb71iPIyo57MDjeX/SdPr2HUtd/5G8/vIinnjkGrbZ6l1eff1FFja1YCz07QO33TqObb8zlHhCUPAlu+90LJ/PWICrIv4slYLrrr+MPfZbh3iigh8cfBJT3m/izUnPcPEfL+bJJ9/GD0K22uIVqtNDmD23gbfefIfAD7jwwguprMhz8qlHMHRIkqv++HduuvHvtLTnqKuPofOKtlyOt9+8nRHrxZBegMB2i2cQQpBIJFAqSS6TI9SGQqFAPJ5ASEEmk+k9PwSlFK+/9hl/uuQ+Pnx7Mq4qsGDhVGbNnEQ+34yxhsAYXn5lMslUikefvp5fnX0Ekz58j2cnvkl7a4AxAqNBWqfI6jo8/eTLvPDcO3xv1x157NGr+WzGY5x3wY95+90pvPnmZ7hObPU6aC25bJ4br/0rM2ZN5q77T2PO4gd4+a3rGLbuKG65fQJvvvUWu+85ik22qOOm6+/jyUc+4v57XuOjyR9wyRVHc/hR2+F4PjV1ST6a8g4vvPwcB+y9I++8cwefffkoJ5+6Dw+Mf4jnn/+QfL6KP9/4DK+8/BY/Pn5XPph8O5M/uZvdd92OP116M08/9Rqh9sjlBY5KcP75l/H0M88y7qqfMX3Gnex70GDuvecRLjz/LqZ8NANpJXPnfUomvwAjm4jFYzz84LPM+vQTLrnkJ3z4r3v4x6tXs+V2G3DrX+7gnXffxlizWmoGSwYhCziOZf7CORz+o4NoazH86vTf89rrH3PjtZcyYOBGvPX6ApqbNOgqLv/jbfzzhWlcOe7HLFgynmnTH2LPPbbj1+f9mQ8mLQBdw0UXXcfzL05hzz135MVXbuR3vz6agf2qcJQFadE2YMjw/my+1WiqqisJdYA2PtY4hDbEEkbhvlYBtpiWzeHZp17jpRc+ZpddNuXlN8Yxc/59PP7kWVxz9f1M/3w+XbXzEgMGjBWc+ouLmDVjDrfc/gemfvk494y/jIVNmp8cdRlfzmjkmB8fxvqjN+SMUy9n9nTBDw4+hfcmzeDoYw/hB8dsR2WlwC8UWLSwkeeef5Td9xjL9C/voTUznr61g/jpT85j7qw2rHG46sobmN/UxITHf8fshRP47MsJbLTxUH78k/NoWpwBYVm6BKx2ueHau3lu4oe88uZ1zJr3IL8448dcMe4axo27ljfeeJNsEPDCi8/R2JDBhHFcL8lf/vI47YUcb3x4HTMXPMmzL9zA+qMHcPZZF5DJ5sHEiorICBUVFQghKBQK5HI5vHic6tpaKqurSaSSZDLtWGt7hyBE6q0Mvzz7OyxqvpczzjmcQQPq+e2Fp/LwY1ey/0FbRYowYxg63GHPA+rZYAs45IgNOPjQHfjiX/P5cvoCSjkUpbJIKUAE+EGBNr/Agua5NDcvIZ4UnHbud/l83jWc+qtdMNZnWRNND7NdEZ99OotpU+fxve/tz5577YIX02y00Wg232AkjXMWsWBuE7vtsTk/P31XavoIzj3rKh5/4nF++8cf8MOjtkEojRCCMFAYrTjngmO56PLDGDk2QMXmsdkWo2nPVDB7bsCsWa1M/vQTaga0sdf+oxg0RFHbR/KrXx/MsPWHM2PeUrIFTSgEDe1ZFra08rPTd+GgH4ygrk9AdZXkzntPoKn9Xr5/2I4I4I+XnceNt57LRpv1RaqAQt6iAxdtIl3KxlsO4JGJv+S9aX9hl923xliDthq7CoWrISSeiBOPxbj1jnO54A8HMWhIBe++9yH7HjCWXfeupE9dyOWXXsMHk6ZjdYwpHy5EWc2IkbUIt5HKPku58trTGTl2LJMmTeXTafOZ8kGGIKc56dTvsu5oj5N+fiwjR66DdEHIiJ3PZNpYf4MNqaisxWKwxkQsLCCEQQiJLG5CCLBJbrnueebObeKUXx3FyPVG4agU22y7E9WV1UVla5EYWAloJA4LZsG82ZbjTtqFLXaqQccWscN3x7D+hgOZ/Oks2vMhqfpm7nr4JAKniR22P4TnJ37GT366P2ddeCCVqSqEsYTG4hu44KL9GHfdT+nbx0MB8YQm0wZffjGPlpYs4++Zyh8vP5TNtq1ApRaSqm9k/IR76NuvH4gUVgoKPiA8JvztMX516sEMGVygqmohJvyAjyZfSePS+zn3vFOoSSV59Y2HufWenzN4pCHICfIWEimorx1AXi9i7GaC196/igcmjCOd9kAYhOjkEJLJFFXVVXieh1IKY0IaGxehdUAQFnBdh8DvRddlW/RblxakgZjjIi2EhQJKWazRYA1HHnEYRx21P8Y2k06lSKeSfNI0j0UNCxkxJo7RETGQUmAxHHzo96hMjWTc1bfxo+//gS23GcnpZxzOzrtvSjzRjrD+ahsXXnjhdSa9N5l335rKxOcepaIyzdQPG2lrCTjr/CPZ54DtUW7A/vvvy0fvZrj5pif4xWmHcuihe0akyoIxltC0M2p0HZtsOoR0hUaHAcqmEcQj5ZUQfDh1Gg0N8zjzjDPYZ+/vYO0StFWss84IBg+sp62tlfZcAQPEHMEfLz2FY47dgnSq0OGUZaOFFAW4QuKITmck5eYYd/1p9Knvx603TeC6cX/lxJMO4ejjd6dPP4PBUCqxs+qPZ1DKpRCAVA7JZIJBg/oST8Q54KB9GDZ8CP37V5KuSJBIVvHB+1NZ3LiE0087nbFj18OYHFhNRWUFfSo9XvrHSwTBUhqWNHPbnVez5RYjKGRn4bkuUjlICVZG+gBfaxLWYq3EdWJYLbBGYqzFFm2+xoI2IQJJGFjawhDpCH563PnssusONC9t4vXXJ7Pl5qOoqa3odNqyRecc43HUMRcy9V9z+PzL2Uz64AtGrdePF/85jVymwPhHLmed0SmSMU0u5+J5Ltm8YP0N+nP0cT+gqtbFqFa0dfEEVCfge3ttRSyVA1EgNBohNI50icdTNLdkaAk12++wPamUS2QVsTiuIe25LG1qp/+QOFJajIGDDt6L/zvhMFKpeUQK8a5fzRQHgh/tqmYwmknv3MUhB/2CMSN/QK5gOemn23LG2ceRToQ4MYuQxUItxeQlra2ttLZmOoILNZZAh4iggOd6WAOu5/a+6/LyM28XzYfCgMxF/goUU0ZH4zH6fjaynVoEWmtC3+J4OfbYbyTjJ/yRC397AjO+aOTIwy7hhCPH8ebL88hnVZGtdFiVnVYIMBg222IrNhi9GwP7bMqRRx/IoxMv5Scn746XyOMol7vveJQHH5zIkKEjeODe17jtpmfIZBykigEh8YQkXeEhHY2xeaw2GC2Z/vkMli5tIJYAoUKCMPIdCIJ2Qp0D4dPYuIjWtrbuHZOWqnqIp2xn5uTlEDlRzG1pjSIIQ6xq4ZzfHMM/Xryf73xnR264djy77nA8f/3Lq7S1+liri1l7V98cG2pDEARUVVXhxTrFsUw2Sy6Xo5DLkUwm0MZB97D+BX5ANqtZd931UFISBCFKRex+PJkkDEvOSJ3P4zgK3y+gAwUmTqZdM29ugUKh8zyJiIJvAh+lFAkp2HWXnTno4EPwA006XcnJpxzJzXf8luHDRkaZjEswLlgPvyBwrOS8s85lqy23IwwlJ598DG+88yibbT0AZJ7Fze20taZZmrUMGl7PjNnzuOTiW1jcKPHcKG+AkZCsSEQEDU1oA6QjyBXAiByjRg2gItWHuli8M/Fp6TmUxA8CpJSY4svTIuTQw7+Dl2yNvr1dleHPBRFS11fx5rt/Z8Ij17PHbptw/53vst7In5JprQCTwNpIqVgiALlcFiEEyWSSZDJJLBajoqICz42UioVCgUQi8e8IfxbF4i1FV9NOz1OkACkDJD62o8ZDlH49StpswVqksMRjDq4jeOyxx5COZNfv7sApZ+/Lj47dj4t+cxv33vMUm22+GdtusyFWNPWInqRIGbv7MVRUJKhMx9h9zw058eT98BIBUob4BYExIVIonnriRe6480VGjNiAc849nr899CyX/mk88YTg/37yPWJekkLBZf6cLEsXgwmrgFasiTF9ehNHH/Ej9v3ebiyYv5S6fgOY+uknLG0dQ58+MXSo+fOfx/PC8+9xwP57MnBALQKDkiClKfZcdnmXpXfX5SUWox6bGkKee/o1Nt18Q8aMHcjtf/sF0z48knPOvIY/XPhXBgxx2XPvjVfxrYqvxyqEEUXPzACrNUoIFAKMBqupTCdxhST0cwwcMIDBA2qY8PB4ttn5KDar7Q8WHnvkURbMncNpp/8I6bQzPv4+s2fPpj1bj5eA62+4iS8+n44jo7EhBWyx2ebcdN297HvAVgwa2ofXXn2bxsalCCRSKjAaazXtrSFhIeIeDdDUtIjvH34k62/cD4kkDAyB30KoLa7TlQBGJuktNxvAzOkN1PQpcOSBB1BVqxA2hXQ1SgnCsIrK2CD2PegEBtUM4q77LuXE489lwmOvEQR5rrz6RKor+2MNzGrIEfhp0NUIIXj++RdY2pRjpx23A/LUVw8j0BZMF/d8C7/99YUsXrKEilQKV4W4CiwayODI6qikQXFBEBgMYVT7tIvbtgwrwbg88sjD7PrdXdhyu1ru+9uVzJnRzCEHHM8xh5/NhCevpqLaA6elI427tZZCwSedTpPJ5EhXVrF4cQOpVIpkMkm2PYdSatUcQlQjrlR0Y2UMaMSgKmGQGGZ+OZdPJs/k5hue5LZbHkMJi7IQZhL4mUQ0cUMPq12MMdgQpHFxhCKfaSeTaWFxY45X/tnIsYffzS9Pvo+PPviShsWzCXR7pJQihxUBl108gYF9/o+rr3yBXEYRBkHRHbaLu68wHHDw3my/0w7cdMsd3H3Pg8z8op27//IWu+94NltvfjwP/m0S/3h2If+a3Mjee2/NVtsP5JADd2DjsZty/lkPcMrPr2TytOnk9RLmNMzmpJ9fyjln3cfEiXP40ZGXMf7BiQwYApV1GcZuNIAx6wzhpmue4U+XPsAn01o545d3c9dtr7DP3nuw8aZD0bY1UpQZhTAlj8RiggxR+ptni636M2xImtde+Jh9d7+cG698h6f/PoNrr3qDHbc+i+uueJ6Zny9F6wChwPHiSNGfbFsdxx9+B7ttexbvvvc5QnXJGlzchJVgJIsWLKCQzaBEgLABCS+GqxSCAGEsQV5jQoEjBJVph6raAv+aMZtPpixgyUKP+//yNtde9iyDBqUYPCzHjjuvw/BBAzj3vGu4/8FX+HDyEp6Z+AFLljSTcEHZOMq67LrrZkiV4rBDTufg/S7j5yc8wJczmghsgLUSbXMY67NwviWXl1iZY8zYWiZP/ZxzzryBD96dx+zZc/nD7y9j87E/4fVXJhH4Mc7+5R0M6Pdz9t7zDGbMnM8V485h3XUGcN4vr2P8PS+ypKHAbTc+wUbDj2X04B/xxSdL+c2Zt7JgzmKuuPpk6gc08PCTZ7Llxv159sm32HLD45k5ay5ZICZgi03P5He/Hs8Lz83iVyc9TjrhMu660xg8JI50FrDNdjH22eU03nphMYdQbxkAABisSURBVJnF9Vz12zd56J6PGDoggZf+AiUCEjFAhGTaU0gngREKK1XEfcgAZJ7ddt+KZMJjyQIYd8kEbho3gaYGwa9Of4wD9zqV6dMWUCgsQdg2lHWora1FKB+hckUlrMQaQU1NFclknCVLFpPL5WhoWEhtbTXt7a0sbmrEDws0ty7tRQ6htCILzeGH70LTojYeuO/vVFSl+cWZh7HRxmM46OBtGDI0jevJiHg4UFMDO+00hk03H0NVbZrNtx6B1QViniRdmea0M35GddU6/O1vDzP+3pcJDNTWJDj51MP4weG74kgHJTwCLbjz7gcYMizg+9//blRYw1q6Zp+p7SP43WWHceUlgj/8+j4u/s39xOMO2263DT/9+dkoN8OEB19j/wO+x+57bo4Xb2Xn3UYyYvh5vPLyq4zZqI4x643GlZ9w5OFHUts3wWuvv8RLL73OkCHDuP2uP7DbXsOQTjMmDPjtJcfixeDOOx/n5hsmkk5IDthvV37xy6MYM7YWIRrp3ydFZTq+Alk/kr9+csLRzJsV8Ne7nmKdkXVsu+2mbL3lzgwYMJgbrr+ZK/50DxdfdBcAo8f058abf8/Ou6+DFRl8A5M+amfBbI3Z3CKWtwRYiRAFBg2JUVnt4LiCnXbdiky2lQEDK9EmpGlxG1qHxNIOySqXW267nP51d3HphQ9x5ql3EHNhp1035OLLf8bI0TF808qtd5/Ntdf8jZuvH88lF4acfuYx5LPP8MUXX6JNDqly1NR5/Ozk/XjqsYEUCiEXXfQjFi6axx23PUwsFsPzAs488ziuv+4WEgkPYzyuu+V0tt3+BW7/80QO/N7JCAG1dSluvfMitt2+H46TYuutduP5pz6ntq4K1/Xw4gXGT7iU311wNzde8yDjLr+LmppaDj54F045/fsMGlLFtKnX0Z7NkEzlcNx2fGN45rnrePD+f1BRnWTg0L7EBey993cZMWIEb7/xOk8/+R7bb/8dLrrkWAYM1ljVgBCC2/4yju/ueDqHH/YbAh8STpqd9xzJDbeeSlWdwFjDkGEuc74UxJM+xvpIbHFhsECAEbDV9mMZOrSaPXc9kmFDR3H7X0+hps7ltJMO5f57J7L3bmfh+4aE59BvoMddD91MIj4PRK7bJ25sXIwW0XR3XRehJM0tbSjHI5vJUFUVJxaLdS8Hv9x53oVDMMWKkiee8B3OOWM3VBch0gpdFAMkoNBBAiXTOE4MIzIIR2ONIgxzQCbSGlsXHbpYLZGOjy1qhA0aZK4YiOEhZJIwjOMXHKRQxOMOys1jWIoMBbowhN9fOJ7Pv3yZs8/diy22XK8oR1pKte+i4KvIySUspDFBBRaLkDmEClBKIJDMn5Mlma6irm8BrRuxxgMTQwgHIUNMGOOyix4nl4tzws8PZejwNO3ZyPrheiFGZ7HWL3orunjOIJY0hCxuXEJVdZKaeoPysgiZw5KlkK0kn3WJJ/LEvLDDdhxZXAQWSWg9IIGwVbheSMgi/IJAijhKJnFELUq6GOuT95fguHmECrHW8rfbJ3P1leO5+LLvs+8BYyIWtWs6cauwQpLzNa6sQbptCGmQtg+FQgblBignj5+twIbVuMlWkC0EQYCiivmzoa3Fp2//FPX9wchWtG0BITE2jhAJBGlM6JKIO2QylkULF1LfVxOPWzAKTAITKOLJNEpq2tuXYoNaEpWLQIZIEcPqGEY2AQarK0CnCP0YnhvHEmJsAaEyWGcpghjC1OA41fj5ZqSTBemjRIL2doG09XhOmry/BDeRwXHBhmkCH+bOm8XAwQmceK4YzJKITHjSIZOLseu2pzJwSIobbj2b/v0GkkpVEoatQDtCNmFpi8x9YSUiGMK/PvuSbDbLuuuOJJHWSCeDcjSIABMmIawH1Y5VjYBBdqnUZAS4Tj1trSmkaieeUgSFDELmcBiItRXkshZjLI7ykW47jgqwoh0hDYpIFA6Vy5AjbqSgQWuN4ziExiCVpH+/fsRiMebPn49UqjcTpJSMhgaERroB2rYSRjGwEETeUEqCtQZhJcJqHCcLTqfjhLUFnKKrMdYiVQErfKRncd2I/ReiGHdpDBbBPfdM4MmnnufEn+/F5luOKZpbTDEAqOiYYcFKjcDgxJsg3tRB8DqeQQiGjQDIIayDIokVFitDhNAIYSEZFbtYsqiFlqVfotZNU1MXEoYGqw3SFnX7AlAh2OnU9oGaeosQrXTI70YjhIdK5EjEsp0TtIhSlmtjNVIECNGOtYvQRqKkQyJmgDzWNmOZT1gMNXe9omIyjCFtiucmvsTJp2/BzrsNwtgoelR0C+O0CAGJmAWxGIQtKnfn4cVKfRW4sVZEvCWSOGyI51qEaGboKIW1oKQfhSobgxQxQGClxpoMQmaRMYnRkIgLRqwjEFaijcUQgMjjxAToJWgNiZgEbyFoiTAOlgBrfJRyinEcGkQrbkJiTIAQNvI3QIGNRZ6MNBOapQjXFi1gENoM8SQIEWnbE3HRWTZdteAlBeuMcoCAKIBKRtp96YNVxMQgFC7zZs7BdZbgxjS5QogSCmU9lHWwtiLymxABKjGD9TcBoSqwekE0xqTAGoHRAUIE4LZELtUdQ7WThZPWUPAbiSUaAdBB5OkPYMR8DBYvVazraCN9RPRVi5aKLiK+57n4+RDHcTDGoIQg155hnj+XVCpF6AdY6/eyUrFLuGvHcLNRJIEo7VDUNoiiqZJO98rS5Cz9DhQVXaXWIpIjLBHrKxRIh6OO2Yejj96fWAIQ4fJVHcVJUIqvj5SZdJuH3S0kpSpWojP+RkhsGOK5GeYs+JhFTSMwjI0GaVFram2pHmLP+4suH6v7CR05AjBdUs4V31RX11MEAgPap1OFWjpeUkZFZ0b7BW6943gcV+I4tst466rtLRLMYmulztiOb1Zs3ZZ6ZTuer6vaE1PkZ7o+fEdgpgDdSZyxFms1wkb6JlOcDbbLo1hM0QpV7KsqJugTnfk2tC1e2e0V2OLiBJielchM5JtgO8djt8M994uEJIIm8BcT2AKLFuTQhRBVVE8pAQoNxiCK795iMKb4/bqs+qUamlHdxh4DxUp6hnYrZLfru6Wh6/LM3cdy15wkxXaUQgiNtRatNb7vU1dXRyqVYs6cObiuSzwe//fGkXZPpLqy42vQZpHylcxzQmjiySBSTOIgWLX5sXTvVd09KnrTZdgLAcbh4B9uzcGH78TAITVAiDWi2JdO7f3Kipkury+lyV3yP/jKKOZQiKf0ar2Tnt9iufvFEditWnGPvkY6CtFh/17b+HEhlh3UK+53b7ywVfVHkKps5corvk886dB/QFXH7yt7QmvtctM3iJ7jqvT/ru9LiCIFEN1+6n5dj/NZ/thraW0lMJJ8NsuWW2/NvHnzaGlpoaWlhUQigbV29Yu9/sdRssUuk0dP0LUiDYA1CnDAeNFoFEHnhOpJgEVpDS0NohUPJGEj00+364tOE6PGDEZri7Vh9GNvJU3oyJm4kgG+pvcyXoeU0mtYWeh1Nzv6qieqEJF78fLXhhUlQunpvAPLWxV7E9ZapCPYY6+tsSIgUlaX3KlZzljtfu3a3bQ0Hr66u1BVZSVtuWjhfP/990kkUjiOh+vGimKTXj2CsGareNfB3F2GWU2fueLJq8qII5aZGKLoydWzYGq00hS5CduZvs0iIpGjk+/qskUDK7Lh9uy3xoZZpCi2sZwy6iznqu5HVvYuRMdr6/GEq5jUKzi4ynfZKUKtuN1OVn/ZZ10d4rV8Ct05tmT3cbZMOrUu4kapS93aFF2uK4mu0YmRi5Lqce3aQRgHRHv3Joqvp2vh1Y5eryYhELaLcn4V5y6bRq5rRuounbIRGSkd1VpjjCEWixGLxXDjMRylyOfzSCEIA0HC61XHpK8jIsq3LETnZksDqGdKspVzEdG3/vezqv99rIJj6QUsf9FZGSH7OqZQ+zr2qTs6dHRGkM1kCK2hrqaWtuYWkolIsfi/m3V5LfQXZZTxTUbJhcBKgXQd+g8cSMPCRZggJPSjfCD/Bg6htJrILqtvb6G0sq+uf35Rg96DxzM2YqGUVEhF5PPfi70so4yvM6y1pJIpljQuJp1KYbUh0JpMLteTIKxIvu2ZlmyZWxRlVdOxa4VBSjcKbrEao7tO4p5trInWq9QHESldRKl/yzmzQ74r/eAghUQpg7AaSxZdjLcX5UIxZfyPQEiLn8vgeAqdK0RWI2vo179Pb3EIkSwupCxqXQXGGD6cNJ0nH3uHjTYexkGHbs9XlUVF0b5b2hMyjJQ5q9C8R05PFvDButz5lxdoa23m0B/uxsBBVRjjR45MXWzsZZTxbYKUnYpbYUEbgwqj/KauctGhZUlLc2/qECKnHKNdgkKcG676B/t+9wquufxlPp3a1AutR668Wgu0n8QGdZELq1WrvrjE3dgoxHb6tFYuPOcZvrPlWfz19n9GrqnIMjEo41sLIQRSSqSURS/NBEEYEI8nALDWYPQaloOPrEGR26lYTnaiyHIvuefep7jl5sc4+aSTWNjwGuecf/RXstWLollKSomxHpdc+hB7fu8XPPvcuxi7aibH2iixiSHEiBy/v+REpk57kd13+z4TJrzKpElTOgxUZZTxrUJRlBfSdm7C4vsRMdBhiB/4BGFILBbvSRBK5reeW9G11AissVg0SItV0Q2QkebSKAmuQ3OLIpkeyqiNavAq5yBEK8IqhIkhTAxpPJSN/kYJLGTRjmcQ1hRdNaOqPhZNiCW0SaZMbua4427iT+OeQib6UlnbH+m6KxREhI2ix4QhivfXEmE0wptPVf+5DBru8e7bi3n37QZCEwU3SVtMvVXmFsr4hqOrm3M+H2Xg3mLzLQCJNpGHbT4f4DgxkvEU+Xyh982OUjoY6xGEljAICcOw2/HIG7ik/Rcrtf5F5d0UOogBg5kw4QsemzCJMIDRY0YzdNiwZdpfXXgxD4sl70d6iCiwaq2aKqOMrz0810WHmldffZUgiDwW/cDH9VwcpVBS4jluLwc3WfD9HL6fRaKRkbkBKyVWqKicF1GmHCFEp8dgR+BMKcDFFgt9QqgFQsR44O5HeORvj3Pg/ruRDfLUVsVIV6hIGbhWE1mD8JFCo0PQocJVCsTa1pMso4yvL0qp65Sj8NwYSEtNbT0tzc0EBb8jYrLXOATpuGArmDNdMnuGj5tUpCtjOK4D0kHrCpYs6sMzE5o57vC/ssE6Z3LYPnfw8sQ8QbZfZBKUoAt1+JmBGBOPHChUgmlTpzPhyRfYY/+dGbFeNW+//RZVNSmSKYdQB2vVXzfmUltXQUVFjCDvEeRT2A59RJkilPHthOu4AOTzeRYvbsCYEFTkl9Oe7aW6DEIUU++FMZ59+mUefeQJtttmY7bdZgPCME9oDC+9NIUjjjiPw48+g5feepH1Nq6hsXUhJ554Hnff8Sx+toIgn+Svd/+dnbY/jFtvnAg2jVR5Nt1qMHfdcxrnnr8nSIsghdYF8n4zzlryOKFuZ4ONBjNy1BAefOAJ/jHxPWyYXE2rRRllfLNQKPj4vk8QBlhrcb2oZoMf+FhrcRyHdDrdOwTBWtCB5KorHuLX59/FdlttyeE/3IU+/RWOF4Cp4p035vPGm1P51TkH869ZD/H3J8dxwe9/yNB16vng/enMntUQpeiKRwnEc/kom7JUGmNbSSQDKioFlhClPJKpVEeByrXxQs7l2tl2+w058OBdaW72+eWpl/PQAy8hbJJeZJzKKONrgXg8FmVLUg7xeAwshGFAKpnqlo+k9zImCUtl2qW6Ms5nn/yLqdM+Zrud+hOGFqGWcsZvdufMXx/InFlN3HPbq7zy8mu89940Fs31aWlYwgfvD2X4eltz2JHf5QdH7o9RBiNbsTqMVm2rEEisFlRVVNKnpoqYVGsdvBaPJWhuaePz6Z/R0LSUEcMHUllRVUx2UooTK4sOZXyDUUqmi8T14my00XA++eQTEglFRWUFbW1taGM6ciGsRvXnHhClCFi5zCal5cRTdueCP+xPYNp46tFpvP7KPCwJDIp33/6Mww78HVtsdDw3XvsU9bUbcdovzmaPvXamLR/QkrVYZcBpxrptIE2UA9E4HUEZBoGjIBlXxJwojr4z1XtX9+dVR+gFxvL3Ce8wceI0dtlzfW699//Y+6AxGJPvKKNdRhnfZMhitnEw+IUcn3/+Ga6raG1bQuviZlwEItRR5idtSMbWOGNScaIJ07l1IAShOPKoH9IwN82Ehycya/YctmYgUycv4tprnuHDKZ9z2VWncOwJe2NEG5l2zeezpvHuexFR0VohiQpPWqctci40UbimsBYrdVRKKwgxOkCaKG/iMtNX2CLlWracWwmem2Du7AU0NC7klD0OZpONxwJtCFUmBmV8S9CFQyht1kJVZQ1+Lh8p8cMoPUA8Ho9Eit7tgCWegERadHNMDHyQGioSEscNcJWPdAV33vEQ99//MJ5IAwJMmlkzW5m/YCZDRlUyeEg9PQOXhIDAL1DI56P4biUwRoBRtDULZk5fSDINg4fW4cWiQKblRVxa62FNnHjcxYv5CBl00pEyyvgWI5vNov2AWNxFG4PWIaHVaGN6X3tmCREqRHVR1m+22QgO2H9rlBWcc9qNjBx0CMP7HM5vfvkw7U0uSgiE8PE8l/Hj32LvPa/i/ns+AV0Duqj5FxpBiLSGlqXNNLe0RIVMDcUwa83VV41nl50vYPfdL+C+e1/DWrdb9pxu3IKNgrByOU0mWyAM/WIyla7emWWU8e1Byf1f66hosSwW6YjFYjiuS011de9wCMKWkoSCNSE6CDA6LDonSYQK+P6PtmG/A3agYYFPc3OeWDxBKpXm3r8+xDtvv8rwkXVIVeCkn+3HnrtvR3XfGJF4Ulq2I9fmc35zKGec+wM85RYr++RB+AgLp51+NGGmL7fd8QgtbXmQhe4dLbJPAoOnHCorUlSkvch0KYq8SJdsXOUUKmV82xA5A0aJd7W26NBgLTjKo6mpuZdEhmIKMikliBz1/TNksg1M+aCFffcaQLJyEa4zF7dKUVWjQAisyAFNXPjHbYAdABeLT22/gMo+LgVdILCNOKWCK4CgQCxWoLMGqSj6DSgsLlW1CWoH5tj/kEHsvNvgqCBGR9JPGxWaRSH1QGZMV3z2SQNbbjOcLbZcB8eRCFMqtlpsu0wSyviWoWRi9P0Ax1EMHTaMGTO+ZOCAQSxe3PQVRAbbUzSPgp+EEBz2/b056uj9uPOOe9lg9C5cO+5uBEmkdKOU4DYGOgW6EnRFlBnYGrAhGBsFPoUphJ9AGQ+FQiFRqChIyiqEdRC2WKuw2KH3P3ibtrY57Lf/9mywwahluX7rgU5zwTl/YdON9ufFfz7Pvvt8h003GYs1pqw/KONbh57p3kt5ETwvRhhqZsyYhaM8Fi5qoL09s6pSbqXMw8UQYixGWE766c6cd9Z3kUZ3PTUq+SajqEEdChYuWMr7kz6m34Aqttpmg1V1nY5sx3QvsLFy9r1LslSrQFiMDSKGYBkjQ3TOlMmfkMtnGbP+KCor01jdvXBMGWV8G6CIajn5QjHquNtoywUopQjDkExrG9YEuLEYnudhrV2dnIrFOghAFHDUUUdnhekNrLUgQoQy9B+UYp9B260m493pOyBYk1SMJVMoRBWfi5kZ5PLuGvVto01GRwTA2sjnYHmmyzLK+BYgSo+27O/V1dVUVlYSj8eZMWMGiUQcIfh3pWEXCJwoy5HQ//EEx50VbZafSt3aSDxYm8pRZZTxbcHChYsIw4B+/fuTybRhrO1Ns2PXRKvFCSgEa+oM+Z/EWlfUKaOMbzistSQScerr69loww2x1uB53r+7UEtJ+P/3ldha6b1Xcs9SifsyyvhfhFIu+XyeIMgyefI0pHDJZfO9SRBK6deAjrJjX1/uoEwMyvhfRqFQIB6PI5WisbGBRDJOIpn8tpdyK6OMMpYHz/MoFArk83lisajgaz6f69007D2zMJdRRhlfL5T0ZkEQFl2YJcYYHKUw2qza7CiExFpTLHSyEj2AKDkvd9x65eeXUUYZ/xG4roPWpjONgAEIqaiuoFAo4Ps+Vll843+NhfwyyijjK0MIQeD7xOKRv78pJkRxXbcj+3Lc9cjn81RUVJQJQhllfJsRBTOBLpYrMMagpCKTz6HcSEAIwgBHRLE8qyAIJctBlwKrZZRRxjcGQghisRhKqSj4EJBKEo/HyRcKaK0xQDyZJpv3y1aGMsr4NsNaSyGfR0qFUiqyKBhB3hQIQx3VIiFKmiKlLIsMZZTxbYYQAuW4qOLELxSiHCHpVJpEPI42usPykEqmyhxC72DNEryWUcZ/ClGwIQSBj5SSZDKJ1pbA95FC4CgHKSWO45DL53q5lNsKdQz/qUnSsw/f5sn533rW/8Z9ezKy/6kw9f/Gff8999RaY4yhpaWlWBbeQYca5TjkCnkSUlFRU8v/A8QnW6hudsAmAAAAAElFTkSuQmCC;" parent="1" vertex="1">
                    <mxGeometry x="206.5" y="160" width="260" height="75" as="geometry"/>
                </mxCell>
                <mxCell id="4" value="" style="shape=image;verticalLabelPosition=bottom;labelBackgroundColor=default;verticalAlign=top;aspect=fixed;imageAspect=0;image=data:image/png,iVBORw0KGgoAAAANSUhEUgAAAP8AAABGCAYAAAADzUJ3AAAgAElEQVR4nOydd7wVxdnHvzOzu6fezqV3sGCLFWts2BVrSLBGEzVi7yUaNTaMBbvRWIJdNMHeE3tXRKVYQHq53AK3nba7M/P+secWEBEhJibv/fHZz+VsnZ2dZ57+jBgwoLf1RAs77tyXPffdntfemMFzT3+GMKVYLFZYwLI8BCAQQtCFLnThPw8hBBaNNRYhLZkNe7Dplpsy+dPJFPIFjNUkkwkKhQLxeJxQB4i+A/pYV8eQpkAsFYAStLQopPCwGKwwdBF/F7rw04dqp8eQpetXYoQh1BqlQEpJZWU5NTU1KKUw1uIIEyMQFiFdgqxCFP/Byoi+C13owk8VEdePJgCtNVba4v8NAEtqaxFS4jgO1locgQURcfhIwjcIAVhBRPwGCSgT3VQU5wMBdDH+LnThp4EieWKKv4UQJFJJfL9AGPiEYYhSRRqWktD3i8QPEbcXFoRAWIHFQFHk/83xW3PqGTuhfYEURdlACIwxGB1gMQgkUjlI4QLy3/7yXejC/2dIqbEqQDk+mTDL1se9QHOrj5IK4cWJxwX5fJ5CoYAUHr7VEfEL2yber4SVC4O1tUj5AU6sGYkAC9ZAc0srjY0tWCOQUlBeUUJJaRIhdIeI0IUudOHfAAMiJMgXcD2FX8ji+5HOn4gnaG3JUF5RRj6fx3UdwtDB+d57WokUeaRoRgQFlAGswhqPElVORa/BxFPdyWWWocNaXJsDWoGQLptBF7rw74JEoHCVwjcu1hiklDhAGAY4rqKxsYnq6mqWLKlFSrFy4rdFSUBYENYiieGqJMb1scaCtVhtsEaAUGCSYDMgJEgNskj4Xdz/PwMbeWNWhsiS4yOsXukZVlhs16T9XwgHRAKDi9YJjLBIV2J0ZMOrqqqivr6emkWL6D9wIEK5OGZlBCoE1oCwAolEihAr8xihO4x8MkQ4BqF8ED6WaMPGwGgQASvl/LZ4g5U9d1XHVudawXc/87uOre21q8J/ok3fe1/Auh2WoeXQ4evpwn8XrBRoGSIECKGwJtqUUHieS0PdMqwVlJZXUVNTh1ByFZy/aOwXViCIg01gTb44aKIBpkVAUKgl7zdjjE88YZExTRgGRDrIyiaWVbzB9426Nb32x7rv9+En+K6CokFXrGx6WFlAVxf+K2AlaBcjJAiJEQZNSGlpGUuW1ODFPbx4HGMMQknceOx7dH5hwCoIq3D8zXFCVRxbkXtQuBbrQpt132KxoUC2jZ+ucfSTg0SglOoK0PpfgzFgfLAegS3BmJmst956fPHFF5SUlFAo5LDa4LkOSikCo1ck/rYBYYuhvRIrLUbGQXRDOiay9kObQWCl7bDWYmwX5f9UYRF0fZ7/LUhhQCUAgxKaZCrJl19+iTaGHj16MmfuNxQKhYg2tSaeTH4f5+80QlbCKCwdavi39q/Nm3Thx0UX0/+fgwGkjSjPAj26d2dRzRdUVFYyd95cXOWgQ01FaRlLG5eRyWZ+nGicrrHVhS785yCkYMGCBXSr7oYxGh2GeJ6HtYaWlmZc16W0tHQ1/Pxr9niEWNW80iUbrC3sT1Bu7yworkwi7MKPCCujyLtiv0spac3lEVIQiyXRocVa8P2AwGjIZr9P7BdYKQiVQAsQxrbHELfZBVZKw1by3SG+tpNo8NMbwP9erDgJruifbzsuVthArDTVem3RYfNZs8vNcjEGptOrRF6jzu+2oq9Rdtr/XcdWBvM9x/9/wAqJwQFhCK2irKySllwdCkUQFjCE9O3bl6bmJhw/IJf7PuJf8QF05jirGnx2FaJ/0cfUFQD0E8RP6JuIThPAKoKW/nP46U46Qghq62opKSkln8sDEE8kmDNnDrFYjG7duhGG5ifa+i50oQtrBc91Wbp0GdZGab6FfJ50Oo3jKJqbI71/7XV+K2mPCCqG9EaJwBYhouw/QSQxLK8TtuUTdgolXuvG/K+hyPGELvYzdKgBPz10VH3qUFFWGpRpZXGHXeF62RFaLOiIF+nCakEK0a4wea5HLGbb4zmEI8n5BZKJBE3NzXie992c31qLWYUYaJFY6wIOoDo2q7A6zr13vc52w0/i3rteQAhnue8cqQ9gTYjWEiviWMdgRbi277/GaAtb+PdqI4JIdGzb2ihFA5rl9d/OxVX+GwymFqxDXZ3hzdfnUFcXYowBdPH9lm+/EQZrLaHfgz9d+RxnnX4Xc+Y2rnSSWB7/KeH1X/Xctm8sV9jWAJ1UpWwuTyIeRyqJ1gajDfG4h+s5JBIesZi7pk+xUey+zCFkUIz3L+4TPspJkcummTtbU1vjEoaxb1l/LWBsgptvfI7zzr6febMCMAn+U1zNio7tP4M2bmmJCKSjnkJ0OJKnfsoVlgxgpMXIYvk3k+KCs8dz2MHjePTBf9K4LB9FjH7HN7ZIhFK8/soSxt81jdqFSQgq4cdySv0UYWVx8/ihk0DnwLpNfrYJzS0tdO/eg1QyifJchJIsa2rECAiMv8ZTDBGnj6r5fDV9ES89O4UFcwtIFcfYHFJqpHRBahx3JRlkwlJXX8+cWUu5547X+NuEt+kY/P8fYdtVqOlTF/DSM1+wcA5YE/lnf5pGr++BidNQXyBbCKjsVkkiUZzcv+MTGxtJBFIqStIS5eZANRNJQf8/0NIELz8/mcB3UDEZaX1i9eplWlNUpK3lqy+/xHEcliypwQ8ChBBorUmlUvi+vzKdf4WvYgUrq9UVie0u1iaxToKnXnmPP170KMcddwAXXLgfpaUOjpfA8dJoCxqDsQpp40iVA+GDVfTsVcm4m8dw7U0nopwWLAWMUdGGREmn+LwCUpp2u4BYviWdWtZx1CKwsoAQCmM8hC4FabFiWfESL1JRACmiXAUlLVKlyedC/HwWIQPiSQ9HJTAGQpNDKoOSSYRNRnXSdAYh8mAtVmiMAh2mEDYFMoNEIFFRGq0wEFaRy7fgxFpwYgITVKJEOU4sgzYt6DDN7Xe+x8MPvM0vR+3Jmedtz5Ch1WgtkRKE8NChRAqQxDDa4nh+lHnZ9vGFwFqXN9/4nMkfz6Bnzz4U/BZ+vvOG9B9UhVAFHKcSdAqtFmFowSGF1gqtwXPjaG0xxkYiusgjhIuiDL9gCUON8lqRQkaDUoYgQjxVjglDdOAS5BwEFeRzHn4o6N6jL66XwAoJsgVrPEAgpcQYgx/4COGCVBRMC30Hp4inDVp4GAwWQ+C7uE4SqTSeqwjDFoT9LlVRYQ1IJ49S3TG+wBgfYwOkdKAYvu54MXRQwJBFIGjJ1pKIJ4nHUmgNgjgFvwVHuUX1VWGtxA+jfvBiFoFGCRcdGOLxEqzRGAOIEK01UoUIJ4sijg4qCGUWsMS8NK2trQRBASE1sViMBx99l0v/8DBPPrkDP9tK4cazKKNA+QQmT1goo6SkEiGW4OcTCKuxxfEnBVEFX6UIbYAmjARGadF+QDweJ5vNoogK9K6FPCWwNkY259Cc1QjPoVuvXpRX9UGHTVgh0QgC41K3uIRss6KyIkE8GaC8DEJlUcLiBy4GhecVQBeQIo1UFdTW+EyeNB3HcVhv2FDKKiTxZCuOygMrz0VfEdYkMDgsq0/z1dSlGCPo2687Fd01iWSAUg61NTlsWE5l9xA30YT1Q2rnxpg8aSaD1y1h2EZVPPf0FHr2WJ9Nt9iMJYsX0rQsAOtQVh6nogqcWAAixJLAb+1LXZ3L9C+mk0xYBg3qRlWVhxdXSJWnvi6LsYqq6u6E2UreeeMb7rnnVn41enf2Grk5KIFvHQIgnkjjuGUY4jieoJBTFDJlNC/VzPjyG0rTlWyw8RBUuoBRSxCygBUCg8QKyU677k3fvlvzyCOPs/9Bh9BvSIrQLkLaEuZ/k+XjD6awyc/Wo0/fvmgvRCpD67IkhXyIcJpIlxtcL8rO9JRLY4PPtMk5Zs2sYd31+zBkWAmpEh/pZRHCks1lyDbFWTCnwGeTprPrLutgRQkgcGMKg0trQxqty0lXNOPGfAp+QHOTj/Z7karwcWMqmryEwAiLEQZjBVZ3o36xZNrUGVRXV9FvYDkVVWlcJ4+gQFuyWTuMAzZBrqmEqZ8toLFeUllZxZANYpRWtiJI0NpUztKlTfTo7eHGA5TjIEwfrrrsXg4+8Jesu+5g/nDRWPbZZx+23GJbCnlDNpdBiIA+A6tQqhVtm1DKR6kSWurL+OjtGcyZM4cNN9qAvgNSVHaLAXmskdTW+5iCpaS6DIHH2efcRE3tfMaO/SMVFVUUcmDN52gEA9cZjGURWhukNOhCT5bVe8ycsYyZMz9nvfWqGTRYUVUZQzomUrlhOQlBCkmhUCAMNYmYg9aaeDyONgZHrQXxGyP56MOveeOtr3j/7WmEPjz/zHs0LK5h9z02AgQSwwfvTOHTD6cy6f3PwcLmm2/JWeccxQ67DiCTb+DqK8YjnBhnn7cvqViCoFDGFZc9xPU3PkRJGSRcyLTCTjsO5+QzRrLVNj1JxFejgQKESVK3RHDFJXfx+OMvRdw7gAGDKrnw4l9zwME7Me66+7j/nte48LLjOOr4EXw1dT5jLxnPlM8+Yuw1x7LesEG8/eo3TJ/6MU7M8OFnk2hqbKA0JckV4E/XjOGoY7ZF4FC3KM6559zMU8+8jPICHAdiLlxx2TmMOnRHvARcfeWdPPrwm1x/3VjeeucBHprwDFjYa+9deOPVqUz/4ms+nzyXMBBMnjSH28ZlOeqYvRm6bk+mfraQcy+4hk/en0JpHIIQHAUX/P4EjjpuOOWVkSEVEakPjY3N9B88hCOOOIpEyhIGGZQncGSS5555mltveJZkPE1j0zKGrtuXa6+5muuuvZYnnnmV/v0T3HX3lWy57QAskoJfzpknX8nEpz6B0OJIEAquHXcqBxyyOakySabJ47QxN/DKi1NwXUNjfixhKFHKIpXBWsl5Z1/HG//8nPseO5Ph2/cmkSjhlN9dygtPzufhZ85h+HY7IIRsr0ILEORLueCs23n8sXcJwjxCQjYHt9x0GqMOW4eSdFF7bQsuk3kgyeJ5PgftfylzZ8+nJA2FbIx11u/G+McvZeAAjzv//Di33vQkD024heE7dANRyqgDf8Pkj2fTo3oDundfj3feWMIzT9zI1lt9xFvvvEZNQxPGQvdquOsv49jm5/2JJwQFXzJix18zY/ZiXBXJn6kU3HzL1ey+3yDiiRJ+edAYpn7SwHuTXuGKK6/g2WffxQ8Dttr8TcpL+jFvfi3vv/cRgR9w8cUXU1qS56RTDqN/vyTXX/V3br/t7zS15qjqFkPnFS25HB+8dw+D140hvQBBJ+t+UVVIJBIoqchlWwkJi3X7Ewgp1txkqZTinbe/4k9XPsSnH0zBVQUW10xj7pxJ5PONGGsIjOGNN6eQTKV48vlbOPPcw5j06ce8+NJ7tDYHGCMwGqR1EESeg+effYNXX/6QPXfZgaeevIGvZj/FBRcezQcfTeW9977CVbHVa6C15LJ5brvpAWbPncL4h09jfv2jvPH+zQxYZyh33jOR995/nxF7DOVnW1Rx+y0P8ewTn/Hw/W/z2ZTJXHntkYw+Ylscz6eiKslnUz/k1TdeZv+9d+DDD+/lq1lPctIp+/DohMd55ZVPyefL+PNtL/DmG+9z9G92YfKUe5jyxX2M2GVb/jT2Dp5/7m1C7ZHLCxyV4Pe/v4znn3uecdedwMzZf2XfA/vy4P1PcPHvxzP1s9koa1m4aBqZwiKMbCAWi/O3x15k7ldfcOUVv+PTrx/gH2/dwJbbbshf7r6XDz/6AFMM77Q2ir6UUiC0QYe6vegqgKEVIQs4jmVRzXxGH3ogLU2GM0+/mLff+YzbbhpLr94b8/47i2ls0KDLuOaqu/jnq9O5btzRLF46gekzH2eP3bflogv+zORJi0FXcNllN/PKa1PZY48deO3N27j0oiPp3aMMR9lI9LQB/Qb2ZPOt1qOsvJRQB2jjY41DaEMsIVinaBS0UYi4dXjxubd5/dXP2XnnTXnj3XHMWfQQTz97Djfe8DAzZyyis5VcYsCAsYJTTr2MubPnc+c9lzNt1tPcP+Fqaho0xx5xNbNm13HkMaMYNmwYZ558DfNmwi8PPplJH87lyKMPYPQR21BaCn6hwJKaOl5+5UlG7D6MmbPupzkzge6VffjdsRewYG4L1jhcf92tLGpoYOLTlzKvZiJfzZrIxpv05+hjL6ChPgPCsmwpWO1y603jefnlj3nzvduZu3Aip559NNdefx3jxl3Pu++9SzYIePW1l6mrzWDCOK6X5O67n6a1kOPdT29mzuJnefHVW9lgvV6ce86FZLJ5MLGikTBCSUkJQggKhQK5fA4vHqO8spLS8nISqSSZTOuaEX+kWWc449yfs6TxQc46bzR9enXjkotP4W9PXcfIA7eKjFTG0H+gwx77d2PDLeDgwzbkoEO255uvFzFr5mIEka9fqmigIgL8oECLX2Bx4wIaG5cSTwpOO383Ziy8kVPO3BlDYbXb+dWXc5k+bSF77jmSPfbaGS+m2Xjj9dh8wyHUzV/C4gUN7Lr75px4+i5UVAvOP+d6nn7maS656pf86oitEUojhCAMFEYrzrvw11x2zSiGDAtQsYVstsV6tGZKmLcgYO7cZqZ8+QUVvVrYa+RQ+vRTVFZLzrzoIAZsMJDZC5eRLWhCIahtzVLTlOWEM3flwF8Npqo6oLxM8tcHj6Oh9UF+MWoHBIqrxl7EbXeez8abdUcqn0IOtB9HG4W1ik227MUTL53Bx9PvZucRwzHWYK1BiCjCUkrFtGlTefjhh6ipWYxSKpoYbEgiEScei/GXe8/nwssPpE+/Ej76+HP23X8Yu+xdSnVVyDVjb2TypJlYHWPqpzUoqxk8pBLh1lFavYzrbjqdIcOGMWnSNL6cvoipkzMEOc2YU3ZjnfU8xpz4a4YMGYR0QchIJM9kWthgw40oKa2MFoUxBm1MsRS8QQiJLG5CCLBJ7rz5FRYsaODkM49gyLpDcVSKrbfZkfLS8qIhtEj4VgIaicPiubBwnuWYMTuzxY4V6NgStt9tfTbYqDdTvpxLaz4k3a2R8X8fQ+A0sd22v+CVF7/i2DH7cs7FB5AuKUMYS2gsvoELL9uPcTf/ju7VHgqIJzSZFpj1zUKamrJMuH8aV11zCJttU4JK1ZDqVseEiffTvUcPECmsFBR8QHhMfPhpzjx5FP365ikrrcEEk/lsyo3ULXuM8y84mYpUkrfe/Rt/uf9E+g4xBDlB3kIiBd0qe5HXSxi2meDtT67n0YnjSKe9qL6G6OD8yWSKsvIyPM9DqajSdl3dErQOCMICrrs6BTy/A5bIAi0tSAMxx0VaCAsFlLJYo8EaDj9sFEccMRJjG0mnUqRTSb5oWMiS2hoGrx/H6IjwpYzKhR90yJ6UpoYw7oa7OPQXl7Pl1kM4/azR7DRiU+KJVoT1V9sh8Oqr7zDp4yl89P40Xnr5SUpK00z7tI6WpoBzfn84++y/HcoNGDlyXz77KMMdtz/DqacdwiGH7BFNSxaMsYSmlaHrVfGzTfuRLtHoMEDZNII4VkqMEHw6bTq1tQs5+6yz2Gfvn2PtUrRVDBo0mL69u9HS0kxrroABYo5g7NiTOfLoLUglC8i2wkkRg0QBjpA47clRFuXlGHfrqVRXd+cvt0/k5hvGc/yYgzjyNyOo7mEwmCh23hAFWglLIpFgo402pltVLyq7l4FYEsVXWINSLoUApHJIJhP06dOdeCLO/geMZMDA/vTsWUq6JEEiWcbkT6ZRX7eU0087nWHD1sWYHFhNSWkJ1aUer//jdYJgGbVLG7nrrzew5RaDKWTn4rluVM5dEtWFEAZfaxLWYq3EdWJYLbBGYqzFFv2sxoI2IQJJGFhawhDpCH53zO/ZeZftaVzWwDvvTGHLzYdSUVnSEQBli4EuxuOIoy5m2tfzmTFrHpMmf8PQdXvw2j+nk8sUmPDENQxaL0UypsllHbyYIJuDDTbqxZHH/JLSShcjm9E2gSegPAF77rUVsVQORIHQaITQONIlHk/R2JShKdRst/12pFIukXfC4riGtOeyrKGVnv3iSGkxBg48eE9+e/woUqmFFD/YcpQVDQQ/+qkawWgmfTiegw88lfWH/JJcwTLmd9tw1rnHkE6EOLFoiS7blmMvoLm5mebmTHs4vsYS6BARFPBcLzKGrinxt0EIVmJ8a6sBZkDmoniAothpiZKPKA52Yy2WyA0R+hbHy7H7fkOYMPEqLr7kOGZ/U8fho67kuMPH8d4bC8lnV9/dJQQYDJttsRUbrrcrvas35fAjD+DJl8Zy7Ekj8BJ5HOVy371P8thjL9Gv/2AeffBt7rr9BTIZB6liQEg8IUmXeEhHY2weqw1GS2bOmM2yZbXEEiBUSBBG/vkgaCXUkVejrm4JzS0tyzdMWsqropm82BMrn9CK8RPWKoIwxMomzrvoKP7x+sP8/Oc7cOtNE9hl+9/wwN1v0dLsY4uuMovFWotyXbxUObX1DdQtmU8Y5CPnTacuDLUhCALKysrwYh0qVSabJZfLUcjlSCYTaOOgV/C4BX5ANqtZZ511UVISBCFKRSJ7PJkkDNsCe9q+h8BxFL5fQAcKTJxMq2bhggKFQsd5EkEul8UPfJRSJKRgl5134sCDDsYPNOl0KSedfDh33HsJAwcMQQjV0SjjgvXwCwLHSi4453y22nJbwlBy0klH8e6HT7LZ8F4g89Q1t9LSnKapVdJvYDVz5tVw5ZV3Ul8riauyaPxISJYkoskLTWgDpCPIFcCIHEOH9qIkVU1VLI5cwTMmlcQPgsijUew8LUIOGb0jXqK5SJjfQ4LWBRFS1V3x3kd/Z+ITt7D7rj/j4b9+xLpDfkemuQRMAmsjg18bsedyWYQQJJNJkskksViMkpISPNdDG0OhUFg7a3/bJkRRAujkeRMQuaNkgMTHFiPY2vTRiAPZoovCEo85uI7gqaeeQjqSXXbbnpPP3ZdDf70fl/3hLh68/zk223wzttl6Ayx1nYJIvzsTraQkQWk6xog9NuL4k/bDSwRIGeIXBMaESKF47pnXuPevrzF48Iacd/5veOTxFxn7pwnEE4LfHrsXXixFvuCxaH6WZfVgwjKgGWtizJzZwJGHHcq+e+7K4kXLqOrRi2lffsGy5vXpVh0j1Jo//3kCr73yMfuP3IPevSoRGJQAKU00C1q7gjs1RAiDtmEx1FUAmobakJeff5tNN9+I9TfozT2PnMr0Tw/jvLNv5PKLH6BXP5c99t6kvX8Fipeee5rx9z5BpjXLyANGsO8B21Dd3cNqCUYWIxp9rA5xpBOt9WYDsJrSdApXOJjAp0+v3vTtVcHEv01g652OYLPKnmDhqSeeZPGC+Zx2+qFIp5UJ8U+YN28erdlueAm45dbb+WbGTBwZjQ0pYIvNNuf2mx9k3/23ok//at5+6wPq6pYhkEipwGis1bQ2h4SFSCo0QEPDEn4x+nA22KQHEkkYGAK/iVBbXKfzt1eAZMvNejFnZi0V1QUOP2B/yioVwqaQrkYpQRiWUer1ZN8DT6BXZU/ue2gsx//2fJ6Y+D6hn+faG46nKt0Ha2BubY7AT4MuRwjBK6+8yrKGHDvusC2Qp1v5AAJtwXQKYbdwyUUXU790KSWpFK4KcVXkioMsjvSRVkRijrUIDIYQZW00Por3kWEpGJcnnvgbu+y2M1tuW8lDj1zH/NmNHLz/bzhq9LlMfPYGSso9cJoidbs4CRQKPul0mkymQLo0RX1DK6lkimQySUtL9tvTTqQT2nad67vLOEcpmkoYJIY5sxbwxZQ53HHrs9x151MoYVEWwkwCP5OIiDT0sNrFGIMNQRoXRyjymVYymSbq63K8+c86fj36Ps446SE+mzyL2vp5BLo1MhiRwwrN1Vc8Te/q33HDda+TyyjCMCoVbq3AmuJmBSMP2I9tf74Dt90xnvvue5w537Ry393vM2KHcxm++W947JFJ/OPFGr6eUsfeew9nq+16c/AB27PJsE35/TmPcvKJ1zB9+lf4uoH5tfMYc+JYzjvnIV56aT6HHn41Ex57iV79DaXdWhi2cXfWH9yb2298gWvHPsLX0xo59/TxjL/rTfbee3c22bQ/2jYXjViKtgyI9k20/dVssWVPBvUv5a3XP2PfEVdx2/Xv8vzEGdw07k122PoMbr72BebMaERrjVACx0sgRW+yLdX85rC7ueisR1gwdyl77bMfjz35GM+99BAnnHwUvXt2QyERVrFkUQ1BNoMjQySauKdwpYxSb7UgyAcYrZHCUJJWlFUW+Hr2PL6YupilNR4P3/0BN139In36pOg7IMcOOw1iYJ9enH/BjTz82Jt8OmUpL7w0maVLG0m4oGwcZV122WUzpEox6uDTOWi/qznxuEeZNbuBwAZYK9E2h7E+NYssubzEyhzrDytnyrQZnHf2LUz+eD7z5s3j8suuYvMNfss7b04i8GOce8a99OpxInvvcRaz5yzi2nHnsc6gXlxwxs1MuP81ltYWuOu2Z9h44K9Zr++hfPPFMi496x5q59Zzw/Wn0aPHUp546nyGb9KTl5/+mK03OJ45cxeSBWICttj0bC69aAKvvjyXM8c8TTrhMu7m0+jbL450FrP1tjH22fk03n+1nkx9N66/5D0ev/8z+vdK4KW/QYmARAwQIZlWD+l6GGmx0mJVgFE5rGpl5xFbkUx4LF0M466cyO3jJtJQKzjz9Kc4YK9TmDl9MYXCUoRtQVmHyspKhPIRKlccWxJrBBUVZSSTcZYurSebz1BbW0tlRTdaW7PU1y/DhOFacP62ACChGT16ZxqWtPDoQ3+npCzNqWePYuNN1ufAg7amX/80riejicKBigrYccf12XTz9SmrTLP58MFYXSDmSdKlaU476wTKywbxyCN/Y8KDbxAYqKxIcNIpo/jl6F2KHMoj0IK/3vco/QYE/OIXu0WinxXFmTVCZbXg0rG/4torFZdd9BBXXPwQ8bjDNttuzbmNL5kAABw+SURBVO9OPBflZpj42NuM3H9PRuyxOV68mZ12HcLggRfw5htvsf7GVay7zvo48ksOH304ld0TvP3O67z++jv06zeAe8Zfzq579UeqRkwYcMkVR+N5gr/+9Vluv+1l0nHB/vvtwqlnHMH6wyoRoo6e1SlK0/HizF5UjURbXHHUn8cefwQL5/k88NfnGDSkim222ZThW+5Er159ufWWO7j2T/dz+R/HIwSst34vbrvjMnYaMQgrMgRGcPsd/2S7HbZiQL9qLLVY6YPMR2swCLBWIGWOXv1ilJQ5KAd23Hk4mewyevVOoU1IQ30rOjTEUg7JMpc777qGnlXjGXvx45x9yr3EXNhxl4244poTGLJeDN8085f7zuWmGx/hjlsmcOXFIaeffRT57At8880stMkhVY6KKo8TTtqP557qTaEQctllh1KzZCH33vU3YrEYnhdw9tnHcMvNd5JIeBjjcfNfTmeb7V/lnj+/xAF7noIQlsqqJH+5949ss11PHCfF8K125ZXnZlBZVYbrenjxAhMmjuXSC+/jthsfY9w146moqOSgg3bm5NN/QZ9+ZUyfdjOt2QzJVA7HbcU3hhdevpnHHv4HJeVJevfvTlzA3nvvxuDBg/ng3Xd4/tmP2W67n3PZlb+mV1+NVbUIIbjr7nHstsPpjB71BwIfEk6anfYYwq1/OYWyKoGxhn4DXObPEsSTPsb6SCzCtInLAVbAVtsNo3//cvbY5XAG9B/KPQ+cTEWVy2ljDuHhB19i713PwfcNCc+hR2+P8Y/fQSK+EERuOfKsq6tHi4i8Xc9DCkFjUxPKcchmMnhl5Yj+/fsvx9rbOL8QAlO0RB1/3M8576xdUZ2UPit0UZSXgEIHCZRM4zgxjMggHI01ijDMAZlIkrAuOnSxWiIdH1u0zBo0yFwxCcFDyCRhGMcvOEihiMcdlJvHsAwZCnShH3+8eAIzZr3BuefvxRZbrhvVKrfQlggTJR5FASNhIY0JU5FFVOYQKkApgUCyaH6WZLqMqu4FtK6LIs9MDCEchAwxYYyrL3uaXC7OcSceQv+BaVqzkRfC9UKMzmJtVBjRGg/P7cPS2pD62qWUlceo6KZQbh6hMliyFLKl5LMusUSeeMxv981G6yMKrJCE1gObQNgK3FhIaJfgFwRSxFEyiSMqoyXUrU8+WIbj5hEqxFrLI/dM4abrHuGPVx7OvvtvAhisLIAoFJ8lMVaRK4ArK5FuC0IapK0m8PNRW508fqYEG5bjJptBNhEEAYoyFs2Dliaf7j1TdOtJ0TDWBDgYXIRIICjBhC6JuEMmY1lSU0O37pp43IJRYBKYQBFPplFS09q6DBtUkihdAjJEihhWxzCyIZrQjQcmTViI47lxLCGGAtJpxsgcAhdhynGccvx8I9LJgvRRIkFrq0DabnhOmry/FDeRwXHBhmkCHxYsnEvvvgmceK6Y3JGI3GbSIZOLscs2p9C7X4pb/3IuPXv0JpUqJQybgVaEbMDSErnYwlJE0I+vv5pFNptlnXWGkEhrpJNBOdE6FiZMQtgNVCtW1QEGaTtsHVYKBOVkM6VI1Uo8pQgKGYTMoWxvoIRcNoq8dJSPdFtxVIAVrQhpUETqbKhc+h12GwUdrdYrXQclJdZaunfvTiwWY9GiRWvO+aPKLEXRVWikG6BtM6El4mCBQQiBkpF1WViJsBrHyUaLixSDEKwt4CCjicRapCpghY/0LK4bicJCFPMLjcEiuP/+iTz73Cscf+JebL7l+kUXR5vVtBjkYMHKKDPOiTcgRF1kBe+U/CCEYMBgwOYRRqFIRN9fhgiho2o5SYFSDkuXNNG0bBZqnTQVVSFhaLDatFvqo3SHHJiZVHaDiqqin7qtTcYghIdK5EjEssWvXUxyKdr7IhXQIkUBIfNAA8YIlFAkYgbIY21jFPlVfKbrFd8pjCFtipf/8RoH/GIoW2xTjhUtkRhoi+8CxTwBTTwmEaK+2Cdg7EKUS9RmLXBjzYh4UzFuIMRzLUI00X+oxFpQ0o9UF2OQIlZkCBZrsgiZQ8YkRkMiLhg8SCCsRBuLIQCRx4kJ0EvRGhIxCV4NaIkwDpYAa3yUcooTugXRgpvMYEwUzCKLZeWFUcVUp0ZCsywqJ48BC6HNEE+CEJHVOxEv2pwsoJrwkoJBQx0gIEoekpGVXUbh5zHRB4XLwjnzcZ2luDFNrhCihEJZD2UdrC2JvqMIUInZbPAzEKoEqxdHY0xGaqjRAUIE4DZF6163Z2Z30ry1RYulxBJLo58ByPb4pUUYa/FSssgsiqG8QLvHoJPtyPNc/HyI4zgYbTDGkstmWVjwSaVShH6wlga/TumW7XYOSyTOtP2gaB0QRfcgHSGIbYTYth9oXyKs7Rm2bZ8kCimTDkcctQ9HHjmSWAIQ4cqXCi/m57YvPtWeedjplE6eimjARAsetOeeCIkNQzw3w/zFn7OkYTCGYREBFS2a7YPpW89vs5d8+2B7jnube65Tn3YOz4xyGXS0AlK7eXP5l41eSxafU2D8fWOwhEipowlRmrbpsHiObX9v0akxbbadNoOVbe+qjvfr1LLIuIUtVoxt78SojVaAth1XWBtNQDayD5niyLcdnY/FdLIxWVCmOCo6iEOb4pUreCza8/6NXSEr00S+f9sxHpc7vOLv4qRRfBqBX09gCyxZnEMXwmidSgNKgEJHEzqy2HsGY4rfrzM3N219Lr9dd9FKOpcsazOcL9ei9i607UMY23lMt/VR2/eNEK3NoLHWorXG932qqqpIpVLMnz//X1TMoxM6Bu7KjYRrslCEKM5o1rZ1oiaeDCKjIQ6ibcb+3vus+vkCEZmjOw9xIcB4HPSrrTho9A707lcFhNEahZ1CKYFvf9hVtaUtBLP4719TjDPKk5eq0zMEnfpt5W341m+7/PVgO0JtV9LMKBSh7fgKVPkD0CElrbovonb+K/rr+9ojSJU2c921vyCedOjZq6x9/6re0Fq70qXQlpvUl5vgV7zbit9lxf3iWwdXNn6ampsJjCSfzbLl8OEsXLiQpqYmmpqaSCQSWGt/KonS3zVpCGgXkYpSgolsDJhYkXUH7cEhK3ZCm0uxgwGtSAEd/nVh25Yq73QPAZaQoev1K4rGQYd7rnhCxJ07nm+tKHIDgZQOhjASdem45gcRyGoUGBCyuAjH99JE27N/IPGsiqhtp4lXtHHOVUyyIgrBXfk8vNIFBFfx3DWbaFbr9tYiHcHuew3HioC2Vacjizosl0S0kmvXHP+aIiFlpaW05CIm+cknn5BIpHAcD8fxInueWYW139qiJXKVbek84pbXOX7Yco/f11miExFEH11IH2hbeWYVg0ZQ9AK0icbF3UW/s22X8W1R9CzqxW2iqbUYHdkkRJs7jk4zCraTb1VGkVPKQSoPlIswflEE/u6c9A5JYIW+WGX5886w3xKF2+4jvrVPFFN+zXd8oU43WumMsopv1VmOX8m5HRxPLi95fKtaT6f+/VZpJUFbLYnlr4+ORUfU8qevIYRxQLQuf4ti90RC+PLjbnWJXthOhvPvOffbpcw6Fzbt1KgiqbYd1VpjjCEWixGPx0EKYjEP3/dxpKSQX4vEnv8cOg+U1WJ3xVMF7VVS2jk1Rf2s435tUXLR8ZUN/OX3RYWpItOLwaLiKYxwmDJ1CvPmfkMYFJbTAf/ziCSc76YJy49dMWjl6lenmIf/Cvz029nmuQsCTag1jS3NxGJxMpkMsXhs5cTfXnjzx5Oq/qfQudJKUGhFh1HykSMVSskV2W8XuvBvQRvxIyXaWrr37El9XS3Sgl47a3/7I4p/ZcRd/6UVMNtE0LXgQu3BM20cDZavOLw6aItnWDEJQyCR7dJDFGEYxZYrm0TIEiCBQEfFSdtjubsmgy78++C6DrFEnMalS0kmkpggJNDfWqV3dWFpD0ct/rTCIKUbJXZYjdGdCfaHDPYVlVfbaV9ng9VK/Wudrm0Tb+0KuqhY4fzVaU/0vOhqgbUqmkBEGOXQt7VHCISShIECkUSSQBi3+Piie9Cu2IYudOHHhTYhhVwrylHoIEA432PwWzUiA5yQsmj9jPKFP500k2ef+pCNNxnAgYdsx9rqjKJohGv7FQX7WFbPpdRJahBhVFMNFTkIvmXB+b5bifZcB2N9EAWkjLi4MW7RTtCRXyBxeOqJl5k5Yx7HHnskmw8finKJIu260IV/A6TsZFQ1kU1KhVE9zSh4aq1W7ImSZ4x2CQpxbr3+H+y727XceM0bfDmtYa0bH8UPCrQWaD+JDaqwOg3WYbU5ZzH4RYoEutCdQms5JowXfcqdLP+r1Mkt1kZJLtbEkLYcocsxYRqjPayJ1iqIQpts5A6UATU1IU/8/SsOOeAi7r3jDVoa41FduS79vwv/BggRFUdt25KJBEEYEI8nijUPvo/4ixZyYWXRd738AhNRIqLk/gef4847nuKkMWOoqX2b835/ZEQQ1lnJ9t1129sbXnQFSSkx1uPKsY+zx56n8tJLH2HtDxNWhFDcNO4hhq0zimN/ewnTp31B5CqUUYSeBG0VFre9XUIUiyMUo/7mzwo4+tB7qEoeQTp+KLvtfC5vvToLG6aLQUidVBMbqUQnnLgvn3/+HEeMPprrrh7P00+8iQ4c/isdLF3470FRHTcmxHMdRNFXWChEhK/DED/wCYJg1SMxqqhisOio7LWKiAJpsVJglATXobFJkUz3Z+jGFXil8xGiBWEVwroI6yKtgyL6K1aYAFZ08VosIRDaNFOnNHPMMX/mT9c/h0z0oKSqN8L1VlOZsCA01kh6dFuHqqq+lFaWkShPYB0wwsFKhZUWhMIWlQwrDUZZrANh2J27/zyNg/a7ii222pTZNRNZ0vg3tthiU444bCz33PM6Bb9I8LZo8MSAyIPTAPHP2H3/3gwY3I+58wKWNgJGoAwos9rySxe6sBowmPa0cEMQ+gS6wBZbbIaxIWCwRpDPBzhOjHSqdO2t/VI6GOsRhJYwCAnDcLkQDEGnIJYoguY7iTdyTThoHcdx+zLx72/y1MSPCS2st/769O8/gDDIo34g1fTu1ZvqyioUSRxRjrAprDVY68OKS4TZqH6ctZbmxgzvfjid2YuWUNnTkKqsQesc5/3hUBY3hHz5VT11S5rp08/ju0i5vr6WpS0thLo9eoBvGx670IV/LTzPJZcp8NZbbyGlE9Gktriei6MUwsq1TOyx4Ps5fD+LRCOLxjgrowioNiN7tNhEWxJM52i2tnNscX1xGy2UIGI8et8TPPHoMxwwcjeyQY7KMo9UWq4yrPK7YK1BW4uQCayNE4SgdSTFCKfNXaej+DDrRBG8aCqq4gwd4nHGGdvz8537YbRE2mqqqnvQqzqOwgVUJ/Hl2wQd6BwYHyVjCJsEWqIJ54fYLrrQhR+IyNsWJfi4jodQkorKbjQ1NhIU/EitXtObS8cFW8L8mZJ5s33cpCJdGsNxHZAe2pSxdEk1L0xs5JhfPcCGA89m1D738uZLefxsD6yNCjvqQhV+pjfGxEF4SJli+rSvmfjsP9l95I4MXrecDz54n7KKNKm0izbBD2qnBUKjCY3h65lLOeaom6kuP4yqkiM59YRnmfFFEj8oRZsEJuyGCHtjwwQmVEjH58LLRvH7S4+kZ+8KhFA4ruKuP9/LE8+8TrIsTTodb+flFosRFltMUbZCMnBIXyqrK5g1exH1dRJMck27vAtd+MFwXRdrLaHW1NfXYkwIqpjnvyY3FCLKMrVhjBeff4Mnn3iGbbfehG223pAwzBNqw+uvT+Www89n9FFn8PoHr7Luzyqoa17M8b87n/vufRE/V0KQT/LAfX9nx+1G8ZfbXgLiSCfHplv2Z/z9p3P+7/cspqSmkMoQ2gyO88O4pSB6UW0Mb779AZ99MZ1jxxzEOReO5q333uKWmx9hzuxlYFJcO/Zutt1qHx5/7EnauLIxBoFC2hjaTzJnRoZ//mMuBJZ1hpaQLlVRrrww3wpwEkKw5Zab0HdAHyY+8QxTP5+FlEXit26R+3ehC/96FAo+vh8Z9qBD9fYDP8roc9awdLe1oEPJ9dc+ztVXPMIuO23F6F/tTHVPhVABfr6KD999n3ffm8pZ5x3MRZcejqNi/OPlD/jT5Q/z6Scz2GXXYQwYlCIWj4pO5/KRyC0djaGZRNKDeFS1RSmPmBdHFX2XolM23vdBCEEYhhTCEDcOl131W35z/AgEgpZMMxMeeo1thw9ng3UHkEpbQmuiSD2r0VrguLKYS52kaWmSa696gDf/8R4XXHQ8++y/WbSY5Hf2k0WbgNNPP5CmhmaO/+3vMcEYDjtiCxB+l9uvCz8a4okYTdk8nufhuR45v4AxmnQqTb5QALsWax8LaSgtUZSXxvnqixlMmz6VbXfsRRgKhLOMsy4awVkXHcj8eQ3cd/dbvPHm20z6aBq1C3yW1TYyafIgBq67JaMO341Rh4/EKIORzVgddrgYkVgtKCspoaosjSsiB+MPRRhqlNAcfNCO7LDj+ghnGVJYHJUnyMGy+hyZ/BJOPPMQxpx6FNL1Ua5Ch5owsAjl8dST/+Sma59F2h48/Phf2XFEX0ITVVdZLudaRJ4MYSVCKDw3wYcf/pMZM+eQTlThqjhoi1QyClr+l4ZDd+H/L9piV6LkNdeNs/HGA/nyiy/xXChNp8llc1htQBvC7/XzQ0cm3HKbQgrB8SftxoVX7Etgm3juqSm889ZcLAoj4KMPv+SXB1zMlhsdze03PUP3ig05/dRz2H2PHclkc2QzQbSKi2pGOJloYQfrFGu80V7SWApLLObgulFsfYdrcPlQ3o6tc2ZYFJprrcYEFlcIPKmRoQthksBXmFCQTMSIuWWRa9JtxKoMocljMGiT5qspPo8+OB2tSzj/D8ew9Y5pCnY2WhTQgEZHhGwdpPWQ2kVoF2k85syez3PPfkZrs8+Ntx/NAb/YNHInCrE6qfpd6MIawS8UmPH1DJRSZLN5mhpbipKoRkoJ2qwG5xdm+a0dBoTk8MN/Re2CNBMff5m58xYwfIc+TJuygJtufIFPp87g6utP5tfH7Y0RLWRaNTPnTOfjSQ7GuoTaieLflcCqFrBgtC0WyDAYoTFYwjDAah9lNVFprhXbGE0UHUU8OxAl2mqEMgjlR+I2FrSHMA5ShnjxEC+WJzS54v1l5Ao0Cd549ROuuPwxWlsEV1x5FjuP2BBt6hG6PArwkS0g/aKtPwqI0ppogQsrmTbtK2oW1TBq1CFst/1wXK/QFd/fhR8H7SnrnTcoLU3h5/JIBTrUYC2xWGxt/fyWeBISKbkcFwsKIDWUJCSOG+AqH+kK/nrv4zz0yN9wZQkGAaaEuXOaWbR4Dv2GltK3XzfaljpqgxAQBAXyhTzGGoQUGCHAKFoaBXNm1pBMw8DB3aMS4SJcPuIOKC0tIZVI8vij71FWUcYJY0bTUNvCjK8aGH3YL9htzy1ASubMaKa+voX+g3pS2S3OvFnN3HfXW3z80Vx69armzDPOp2FZE0FRXbcG/jTucA47ckeyrS6L59cS9xS9e3YjkjgsmZaQXMEQS3kot4A1URXdLn2/C/8uZDIZbKjxYg7aGLQOCe0aWvs7w9qwWAq7Y9+mmw9m5MjhKCs477TbGNLnYAZWj+YPZ/yN1gYXhUAKHy/mMOGx99h7z2t5+IHpoCuKrjAFaAQhwhoalzXS2NiENiZK0LEChOaG6yew804XMmLEhdx336sRt23ToUWU0GMxEaM1cUzgcfvNL/KzYUez205jaFys2XX7Haju5qDDAnfd+Sr77X45LzwzGVc5fP3FHBbMX4KHJu7mGDyoJwfsPZITjx3Db488ht132ZXK0v4EmUquvfwR9t31fHbd8RyefW4yQibQgJAKR0hKUnEcRxSzALvQhR8f7SHyxSXTZLEyVCwWw1nTAp6imFUXSdshOggxOkRaHVVLlT6jRm/NyP23p3axT2Njnlg8QSqV5oEHH+eDD95m4JAqpCow5oSR7DFiO8q7x1hed4/09/P/cAhnXvBLPOlGqcO2ACJAWDjt9CMJM925694naGoOMMJHF6vAQhvft2y97SB23bMbIw8azb77HkhrJoPvFxi4bk/SZVl0uBRLH0466Sj23Xt7+g1OYcI8e++3LjvtegYF3yOd7o6SHnk/g6E5WoOQLUjEy/DcJGNOPpbZs/O88OJbFHJOcfHJAslknEQ8Rjzh4HpyJepTF7rw46F9HQ6iwDYdRszQUd4aiv1Fq5uUAmSObj0zZHJ1TJ3czL579yJZUovrLsQtU5RVKBACK3JAA5dcsS2WnwMOlgKV3UNKq10K4f+1dzavdVRhHH7OOTNz5+arIaQ2X9zaIgi2MVA1Uqmo6EKK7UKU0mVXIipYUNGFf4WgCxeipbhz5VaxuHBlFhZc5gqKiS3SaoyZuWfmvC7Ond6b78REEpPzbO5dnHtnBs6Z8/G+7++XY90tIq29kKYCyElqOXFaPYjfxyjRCDFHhuoMjS1x4cVxnnx6DG0sHf025WsIXERvv+bd9y+jVAnqDojGlYrS/YQtFolVH9o1aZxoMdEYwjkD4hAHPWlMvccheg4Q6nHlOZj4lxG/k2V3OXHyJFMPD9NonGH67Bi2qCHZBN989S2/zv3MfaNQ71GbVBAGArtLd3w/iiIax4/TbM4yNjq+jcEvK3NYvBmB1vDyS8/zy6zjow+u89mn13nzrfNcfeeCT59tO+fgfNkrePltr5HuXyKGGrpIADCxoCnaNYPgpDu4pzqn/SLMzHzHwl+zvHBxmslTD7UzbJfPqqpS8KlqCirxDeXDbUbieysEcd0rBjr7clfdf1tXXlk6qj4JSkpu3PgSm9/l0uWLTE7dz9XXP+TaJ18jZcRrb1zh3BOPolXBiisEArvKSolwrTXGGHScUhQFzWYTow1z83Nr23VVnw6HU8KrrzzFe28/h3ZdCrTi22ifuE9pFfNzd5j5/geOjR7hscdP0Tm4W6uzd1R5qvP76pt39tvwETs3sWm75eHAqsZgNdI2FlFrhBI3onubotBRHVzM59e+QGvDM8+eY+hoP0oXIEUY9oH/DIMX7WgpwwNXPmZhyWKMN7Jd/HMBcSVxrUYSJ5vr9ovq6trr9Fonzs/SxjEy3sv58bNdHXxjkYxq8Fatti73vdXEmNVyX+vLK6sVYcL1pMJW/66jby5ImSNieWT6Qfr7+xk+2uvzGXDIhi/DQGDnKK3W7LaDg4MMDAyQpinNZpN6Pd0t0w6FIvLqO+0lvTf7PFzCFf5wxYt5t+wflKJBtTp+c6GUN7CHzM//RlFYjo2MsLi4sJNQX7eIZxVeU20VHn3oBj6AwmB0QhSnTE6dYWKi0WUvFdJ4A3uHiFCvpwwPDzN5+jQiW8nw294l2hPbdmSxDxCVC3BZ6RF1L/PDjB/YO4yJybIMa//m5s0f0WpHRp1VHj34ghbYLZ+x/zM+qWh5bUEgsNfkeU6apmhjuH37FvWeXdvzBwKB/UySJOR5TpZl1Go1H6n7939XnXJ31HwDgcD+oopuWVsgIsRxjHOOyJgdzPxqZWjusB5qHdbnDuxX4jiiLN291F6f2l/QN9DX3vdbRAcR+UDgQKGUwrZa1NIa4GXoqhnfWouIkMYJWZaFwR8IHCSkncZeFl6S3jmH0YbFbAkT+4W+LSyR1vwDk9IH2ivMg+QAAAAASUVORK5CYII=;" parent="1" vertex="1">
                    <mxGeometry x="211.5" y="260" width="255" height="70" as="geometry"/>
                </mxCell>
                <mxCell id="5" value="默认" style="text;html=1;align=center;verticalAlign=middle;resizable=0;points=[];autosize=1;strokeColor=none;fillColor=none;" parent="1" vertex="1">
                    <mxGeometry x="130" y="74.5" width="50" height="30" as="geometry"/>
                </mxCell>
                <mxCell id="6" value="&lt;div style=&quot;color: rgb(212, 212, 212); background-color: rgb(30, 30, 30); font-family: Consolas, &amp;quot;Courier New&amp;quot;, monospace; font-size: 14px; line-height: 19px;&quot;&gt;&lt;span style=&quot;color: #569cd6;&quot;&gt;this&lt;/span&gt;.&lt;span style=&quot;color: #9cdcfe;&quot;&gt;a&lt;/span&gt; = &lt;span style=&quot;color: #b5cea8;&quot;&gt;1&lt;/span&gt;&lt;/div&gt;" style="text;html=1;align=center;verticalAlign=middle;resizable=0;points=[];autosize=1;strokeColor=none;fillColor=none;" parent="1" vertex="1">
                    <mxGeometry x="95" y="175" width="100" height="30" as="geometry"/>
                </mxCell>
                <mxCell id="7" value="&lt;div style=&quot;color: rgb(212, 212, 212); background-color: rgb(30, 30, 30); font-family: Consolas, &amp;quot;Courier New&amp;quot;, monospace; font-size: 14px; line-height: 19px;&quot;&gt;&lt;span style=&quot;color: #4ec9b0;&quot;&gt;exports&lt;/span&gt;.&lt;span style=&quot;color: #9cdcfe;&quot;&gt;b&lt;/span&gt; = &lt;span style=&quot;color: #b5cea8;&quot;&gt;2&lt;/span&gt;&lt;/div&gt;" style="text;html=1;align=center;verticalAlign=middle;resizable=0;points=[];autosize=1;strokeColor=none;fillColor=none;" parent="1" vertex="1">
                    <mxGeometry x="85" y="280" width="120" height="30" as="geometry"/>
                </mxCell>
                <mxCell id="10" value="&lt;div style=&quot;color: rgb(212, 212, 212); background-color: rgb(30, 30, 30); font-family: Consolas, &amp;quot;Courier New&amp;quot;, monospace; font-weight: normal; font-size: 14px; line-height: 19px;&quot;&gt;&lt;div&gt;&lt;span style=&quot;color: #4ec9b0;&quot;&gt;exports&lt;/span&gt;&lt;span style=&quot;color: #d4d4d4;&quot;&gt; = {&lt;/span&gt;&lt;/div&gt;&lt;div&gt;&lt;span style=&quot;color: #d4d4d4;&quot;&gt;&amp;nbsp; &lt;/span&gt;&lt;span style=&quot;color: #9cdcfe;&quot;&gt;c&lt;/span&gt;&lt;span style=&quot;color: #9cdcfe;&quot;&gt;:&lt;/span&gt;&lt;span style=&quot;color: #d4d4d4;&quot;&gt; &lt;/span&gt;&lt;span style=&quot;color: #b5cea8;&quot;&gt;3&lt;/span&gt;&lt;/div&gt;&lt;div&gt;&lt;span style=&quot;color: #d4d4d4;&quot;&gt;}&lt;/span&gt;&lt;/div&gt;&lt;/div&gt;" style="text;whiteSpace=wrap;html=1;" parent="1" vertex="1">
                    <mxGeometry x="90" y="390" width="120" height="80" as="geometry"/>
                </mxCell>
                <mxCell id="11" value="" style="shape=image;verticalLabelPosition=bottom;labelBackgroundColor=default;verticalAlign=top;aspect=fixed;imageAspect=0;image=data:image/png,iVBORw0KGgoAAAANSUhEUgAAAMsAAACECAYAAAA+9d+KAAAgAElEQVR4nOydZ5gUVdaA33urqsP0ZHIGBVRQEBFFDKuCgoqCAVEMmMOa1xwwK/jJGlEx64oBXBRFMCuYA5JEkuScw6QOVXXP96O6ZwYEGcy4/T5PATNU6upz7j3pnlJNmzYVEUEDKOH88w/mun91w5gEiCCAUgpRwd8gm20qvW2JzD4GlAn2EwvQm55DCYiqdi612fFboibXzfJrnpPa/DuWaudS5meuWf3/fs2xOn2bugbHbeHYzHHbdexm16x2rJ35WVAIPp64GOOjTLCDqvyA27hWlr8dUn3MgprLQPX9/sxjt0dma/BZ9U9/lSVLli1hb3uXzclMp4ZN1XBLalxtGq+c1qrvl5mif2uT6edMjyxVbOM5yc+Z2ppNzZ7qx1k/f95NxujNzlHd/Pm5a2zxuj839m9jXqgUQb3Z36byPmypsaBuyb7V/HLB3FxptrbPjiL027rXHdGP2tZnqolh8mu/w82V5/dgS+et7sMEClPDmaX6CLM9ZB7UjigovwD5GcFQ6UDH/8Jz2KEGuZqT9VmyZKkhv8Bn2RQRwZAJK0MmrrZJYEJJejwNfqvk7zHuiOggvKp+OltkfmVUtaiSAi0+SgLzVf4OD6HGbCEkvINRw7tWIDaYSLBJCMQBsTAS45mnPqZL5/N56omxiGgEn+DhGAQTGGGSwjc+omzE9hHlsqOZJCIWybjN+A+/Z9KEuSQT2/gMyseoEt5/9ytuuGYo4z+aiusKCoNS/ysmGVQpypacdb3Z9telZnenPNAVwaYCJUAlQKWwrDDx8kLmzQqxamUYpaOgMonHYBNRGJPLQ/e/x7VXvcCiBeWBsu1g84tWDvHSPF54ZiaHHzSY10Z8vXUXBR9NCs8NMXrU9wwdOpEXXviaBXOXo4wJtj/29v9wKpPYyg9kaAcfHGqmLJIWeoQZPyzk7dFTWLwghdZhjCTQ2uDYIZT2gxFTNhstlGL1mrUsmLeOJx77hBEvf0VV+HlHwsVxwoTsMIUFEI3+zK5KQGkslYtNIWEc9unYkSZNmgAgCCLB9ndEjGB8Q1lJOaNHTmbhjwovmZcOKwdUme7Vf/7rDiEa2MaXphBsjETxdSGvv/sjvU4ewsD7P2T5ao1vwjhhm1DMxpgIrhfBlxDG5GHExigPQahbN58Hh1zIqg0vcMm/DsHg4YvGNZqEZ+OaCKJz8LBwxeBX+jnbQhDl44lF0i0iZXLwrBSeTuGjEFH4vo+IYNkapakc6TwBsXMRuzYJP5ekb+MrF4Mf+BoaPOXhYvAlim/qUlIRpTQlHNi9C632aI4nDkblISoXUWFcX+EZg+h8fB0FW0hSgYRc6jbIIxLLxdURUlaUlMrBlSKSfi6ichBlYVAYpTAq8HcMdvpng8HCVxpjh8AuQDkRxAr29dF4gGcZPNvH1RauClOeBKPCiI4hVhTt1EXb9RCdi08Yn1D67wjKjiHawdcKYxlSBpImQoWbS9Lk4ascjI7gKwtXWyRVDFfXxlNFuJbBsyDuhzBWPiqSi0s+r785mesGjKTnMQOYOHUDrsTwCYGKoW3wxMZIAb5EESuC6ChGRREVwpCxUGrO5gpYM2pWfrNtB18JohRGIsSTISqSoCyb2nUbkF/YENcvw2jBF0HpCBvW5FO2IUJ+XphwLEkkJ4m2yzGSIpnSaDuK7cRBUmiVi5ZarF2Z5LsJ08jJyWG3NruQk+sRjpZi23E0/lbGmmp1ZcrgeVHGvDmJouJa7NmhFRAnGtUoP4eyjUlcU0JuviEaE7QtiLgk4rmsW5jPhAlzSSbj7NmhKXUbOERjScIRH0HwvAglGxymTVmGrZPUqdcaV4VAOfhSwMb1UUpLU9Spk0Ms18YOaTasL6d0o0thcS7RWA6eH8aXzISrMWKBLqB0vcPXn80gEiqkfp361G0Yp6CoDMt20xGCYKRVKFAKwaJsY5jFS5IsmL+cZo0bUa9BhLzCEmzHUF6Wy5o1LnXq5RLLc/FJgZXLW2O/xdF57NdlTxYvWsnwl9/g2GP70LJlK+LxJK6bwnJS5BeBE04hqhwLTSJewPo1EcaP+wbb1nTatw216wrRXAtlCb6EWLvWRxmb/PxWLJy3hltvvYP9D9iXvv2OoLAwD1+KSHg2jh0h4ebh+vnYagOKEMmSAlavspk6eQ6pVJzddm9E4+ZRwtEEWidB/O0Q+LRU/I4z9TaVRUQwRjFhwo98OH46n4+fgWNF+Gz8DwzYsJFDu+4CgDGKTz+dyISvJvHV5xMRHzp33ofrbjqLLgc3prxiBQPvfB5tRbjq2h7EIlHi5TEefuBVHnjoZXyTIBKCVAL2378j/7r2BPbtUh90zR7Y/LmLGTF8PMlElA0bhzN/yXRuuukSlB9l6KPPM2/+Au4ZfD1nnncIrqxEjOKVVz7n4ftHsWLFKjCQSBjatKnFzbeeTbfuHXAiUUa+9hGD7h7OnNkrCDkQjuVQlvA57rj90DrMpImLGHj7C5xxdnf6nb43Sgkv/mcMQx78gJtuuYST+vWoMj2MQYwBk8NboyZw952v8OPsBSgVfMw+fQ/nqhuOo+WuufheIkigKwHto7WDeLnccvODDH/lC4wPbhKKChzuve9Sunbfgx9nrOOKq59g//06cc55PWjeojlPPTKMIQ+9RuMmudz/8C6MeeMbnn/+SyJ2O6ZOfpnxn3yOHU7g+7Bbm/rccfcV7LVPU0T73HP3iwx77iMqKsoQAd9AmzZ1eOixm9l9z3p4nnB2/9upW9yI8tIyxn8xhWSinI8/nkGHDp1ZsXw2742dhh8XVMjl6SeH8cn4fM466yjyIgWc3u9qPv5kJnY675fy4fx/dueKK/tRv0EY8AHvl0n270CN5jjLsvj8sx8ZPPC/fPf1D/heGXPmfMW8ed+AJDE++EYYN34SOXlR3hv3ODfechrfTPqG0WM+pWR9Ei+lSKYUvrFQhACLD9//kjFvfkaXfTryxuh7mb1gJNfd2J8JE2fwySff4/uw9YSmorKyVBTaTmHZLu9/8DGtd21Bx477ceOAIVx1/SA6H3Aghx1+GC+9OIaPPvgeI4Vouw5Tp62guHYOL7x8Gz8ueIc3Rz9Cg3pNmTtnI/GKMD/OXM5/R3zFvNkrGHDjOXzx1ct0PawzKTeJtgyW45NbECMnN4LSoGyDtgCTg4iDqBTKSmFZBq1ADBgjlJfBy8O/YH1pCS+NuJv15aP4fv4QVq5byROPv8T8uQvwjY8SQYkBIyjCvDjsTT4ZP4M+J/Xg8++eYtrMUbRt15GLLvg333yznI777EWPrp0Y8dIovv16Ho8+PIInHn+Dxg1qMWjQZezZrhGdO+1F84YNuP/+wXww7kOuuqEX3898lmeHXca6Enjl5fGsWJoEvx5TJi9j9z3rMua9e5m36E1GjhqMMbksW5ZCqRgbN5QRr3BZtaKUiRNncdnF3Zk9+wXmz/8vO7XI57GHXmTkqI9YuWYNq9etYN78qVgqifEVLw0bzezZq7j8it7MWjSapWvG8/jjA3j/7cksXVISRF9/gRn2e1KjPIuQ5PKrunLplb349+AxPPfsO1x1bT/69++MUj5DH/uMkKXYuYXNoT2K2LU9FNZqy6zZXZg/czlzZ6+iZZscNBpLa7SyQYSy8g2sL9+Av86wdnUpWmsuvKIr516+L5bysXQ5m5aDbt0BtB1NOKQ554IDueyq7rwzZgaTJk8nFlvHvv/IY9GCCh55cDwzZy3hoG578Op/3+SH77/knAt68o/D6uP7M+h0QCGHTGvHnDkLmTJ1ATNmzGD6zHlcctUpnHb2ftSrG+Pw7p2Y+P2PYIGPIdCOoJjdGA2Wjx1Jge0jePgmBSqtRIAYzX33Ps4n477ksisuYu8uOxN3S6hd1Jz8WC1mTJ/CipVtadSkFqhMvkZh3BBvj5lPKmno3fswmjZtjKRsevc8mIVzF1O2IY7nreOmO09l+qw5XHnF7RhPKKwt3DroQjrt2wDjbSQUslGWIuEKzwz7F0cfsweW5dG9+4EMfeQzRo18mz59DuXHWQtYs3YFV117BG32FGxnLp0PqkfPXvvy1WdTaNehMSXlFSQTLlO+/5pT+u/JqWd0pLjOBiyrlHAszHufXse/B7/Go0M+4vIrzueU/vtSXAhiPCxt4/mKshKXVcsXUbhbfU49txNHHNucSNQGHU+bYX+dAEiNasNEXET5KBXBxhBSCkdprHSBpBjB9VKc1K8Pp/c/BqVKieXEyIvlMGvVCpYvX07zVs1RAralsWwHVIq+Jx1NreJWDBz0DP1Oup3OnXfh0stP4qBDdyGUtxalXDCh9F1srijVS2kMtmXjOBa7t9md5k0b0aTxaurXqcXenTqx/z6dIDmR2sW1WLJoMRtWrWH6lAXs1HwnOrTfjbBtI1YY7BB7dmjHtxP+y6Ily5gwaQlLlqymVcsmNGxYn2QySbNmLahbpz4ohcEQTyZRlsayg3FHjOD7YERhjI8xPpYWtAKlNFrbLFuWIlFqeOi+J5jw7UcU5Mb49stZIB4PPHYt+3Ruhm9KEQk8Fs8zTJ48jdWrVrNwwUYuPn8gXQ5qw9xZ85g5bRknnHgQu7QtwAqXUl5RQbt2zZjy3TwWL1nFcw8P5cADWqDMUixb4ViQ8GHokwM46og2hJ0KjHggQsSGooJCxDg888xb7LvvrnTYqy2RsE0qmURUih5HHcGw/7zL8pUlRHNsFBrPMxx//FE0bVQbS/sYEYKhRINOYDBYtoWlDFolUVaKcy44hpycGHfd+TxPPzmGotpwx90X0vuE/XHCLkjiL1cdtB15lkSQW9EeSiuUDkLCGQEWJYiOg4oHPyOIVDlcge8jlaWXiIVR5Rx8eAv++/pA7rj9YhYsXEe/k27j/DMeYMq3GxA/l2Dys2t8q75x8U0FKXc9nh8nHA4RDocoLCokNxZL+yYpUkkPrSwQwfd8jDH4xjBv3nx83ycaycF1DcaAMQbP9bFthx9++IFFCxcFbrfSwcI4EXzPwvciWDqXeAW4yU1tbeNDMuliRFAKdmrZkj4nHkvjRk0RBX1O7Mmrox6jy4GtcL1E1ecWG43DqpXr2FhawbHH9ubY43pjWTZ7dWzHG28N4Z77L6Jl61qUlVYQDjVi6uTliGhieRHOO+dixn0wGUvnI56QSnooESJhm1BEoW2wyGHmD0tZvrqMPfdqR5NmxWit8H2D8X0QwbYdHNth7NixzJ0zl5SbIhbLxbYddmnTmLx8C4VBRDap0DASiEk0GsWyrLRsGDxZywknH8B3U0Zy/wM3khOpy/nnPsYtNz7F4vllGP+vl4fbjgy+SpexGJQodDp/IiowQjSCIpXegv2rgr9BCFdLMMJqDVr7jB37OmPffYlw/nIuufYoPhr/LGecfixvvz+ZN0fPIFkRRtAYFCIWgQBVfg2AhyJIdvleAvGSYJKISWBrhW1pjJ/AeHHycyLkRsOI72EJtGpRyOJFs5g1cw5iJL0Zpk+fzUEHHMxhh3YjN+xgPDC+hVIa34UZk+ewaslKwpYmpDRNGjTCjuQST4HxNStXrGPSpOWsWZVAK4XSglJCKgUbN8ZJpZKIDwvmzmGPdk25a9AlPPX81dx89/E0au6jdZyQykH7OSgTQkkErfLovO9BNG3YmCWLp3PU0R24/8HLuXPQeezduTm2ZYOJUpjfkgHXDGHStzN44KGB3HH79RTl1uHM06/i/fe+wjOacMQhbGlGjniTBfMXg1jYdownhr7MnOk/0qN7N+rXr8MRR3Zi3dq1rFmzARGF7YQIWflM/m4W/U7qS6sWDQjZCrQiGgkRdoJnpDI5NjFY4mOJjzaCg4UyYfDzUaaA+//9KDNnTUHshZx4eju+/u4VbhtwEWPfmMrEb1aSqshL+37qL5OP0kqpbcamldhoCWGpEJY4LFm4gulTlvDAvW/x+CNjsSSK8kJIoghSRWgBLUGI1BeDFglcNSUkKsqpKN/I2rUeX35Swfmnv87lF77C5IkzqUiuImkqcFMpIqEcQqEog+58jYZ1zuPBBz7A8zLLkc0m9WfKKOKlPuUlHuJ7iElQVFRAYX4+pWXrKS/fSEnJRioq4rgpF9/3OO+Cs2jXbn9eeeETPvl4DnNmwdmnDeXxIe8SCvnE8ss5utdedOzYinsGDubxR1/mgvPuZsTwt7E1WDoYJBo3LqRhrRjXXDKI/n3/jyN7DOTtMV/h2OCEcsjJidJu992oW68uCxcuZO26dZx7wdF02b8tt9/0AK88/y5L51cwcvg4uv7jJvqffDvTJs9h0jfz6dX9LprUP5Uxo7+hdq08GjYIM33abAYPfJIp3y3km88Wc+RhV9Gg/rG8+94UPh83nU8/ncYZZ/di9/YhzrqwPT2O2Qnf1xzVaxBj35mE53soMbw1+jv+se/VDPm/CZzb/0GGvzqZbofvz977NiIcdjmm5+GUlSieffxTpnxj8cOEIo7qehMfvDeZug1D1K4XpUG9esRCYRbOnUe8oiwQbECUCqwPBSce34umjRvw+GOP8f3E+fQ++gYmfrOG98ds5MB9buHfA0eybNFq4hVriMU00ZAFnuCZCgwVmG0uB/7jqFkhpWjEgCiPPn0PZvXKFC8NG00sz+Lya/rSvl1L+vQ5kObN81HaQwS0ZVGUrznowF1ov9cuFBZH6bD3TiCGWCyClR/mwn+eSUF+U4aPGMnBI67AN1CrIMolF5/Eyf264tg2lg7h+vD0s8Np2tTnuOMPDUpu0gNN8PVoHBsiERDieG6cNrs157Du7WjaJJ8WzRrx0TufsXrlUpo0OIR6tQpx42tp27oeH479mj5H/x8JEXJyhCuuPoZuR7TAV8vp1n0PNKfz+KMjuG/wSOrWqcudt93GRx9/Qbx0NW5yLcpaywUXH0mdWkVMmjCXXod3p8N1bXny6Rdx3VJ8v5x+px7FxO9mkZur8EnSsUs97rjnBAbfPZLbb36IW26A3Nwop53Rm/5ndqNx4yKWLKyguKCYurVDOI7CSCl3DjyH1q2a8uwzb9On9yVEorD7Hq0YMfwe9tm3LS8Pe4+K0nXsvkcj6jfSJJJLGDjoUnofcwwzp8+jTZsmLFuygQQ+N91wJeWlJbz4nzHEYrn8e9AAuh/djoJacdBriRWGOGD/9jz75GheGz4O3yjyciM8dP8N7NmuCZKqQEmMSBjq1M4jHHZQ6SiGxqQXjnk0b1bEcb334vln36P/qZfR8+guFNeK8Mij13PvoKcZ9uw7PHzfKHwPHAfuuPsyDuuxL7HcckRctPx1lEU1adIk7VQA2ufc8w7khisOR5lk5a9F+RilEKUAGzeVh6UKcRwH0RVBNtw1IB7aqkBrD00Y44XxPYVluxg8FOkVdDqJ0grft9B2DsbPIZW00crBcWy0k0TYgPZdvGQDbh3wMnPnf8K1N/Rkr71agfKq2cVBHsj4uRi/GJxSjLUW34/iSxSN4CiDrUO48Ry0I6BL8LwElo7hJfNZsrScRKKCBo1zKKjtY1iH0h6WykH8KCIREAcvJYixWLt2PZGYT16hi9IujlWArevipRSeV47rVwCgtYvlgGXZ+CkHI3GwKlDKAokgXgxLRzJOHEgSRQVKpbB0FE0h8XgSbXlYoQpEUni+jW3nAzGMpzHGRySFKBfjxpi/YD51GkBRLQuUQUSDiYIJA8JXny7mhmuf4sqrT6XnMfviegkEwXYM2ikFXUYmeCJ+DmUbYdb0peTlFdGwSYxoLIUd8kAZQnYeibigJYxjpxBcFF56AAuy6UqHqCgP4boxlHYIhRKIiqO1BhPCeA6plATH6iShMFi2B/iBPImQaRjxy7Lzvx3bnFmC71GlK8MEUSlC4fUIG/BEUCYwjSxL0sogKNGISaF0Aicc2JyO0ijtVtmfxmDZCtFxlFpDxBIyJqFSCuP7JFMJnn1qGKNHj+P8i3rSYa/dUMqgxMaIwSAoFKI0OuSjZBUoH4sQlmUQKQMVLBkQVY6du66ydk1ZgFlPNLeElruqtOPtIgIWNspYIB6KEozaiKBwnMAeb9SQQLYFxNiIlJP051WGiKOWRqExCCIGcTVaW2ilQFmIKCCJcuJBPqUyWGCl6498jF+KoQwnLIh4IKAV2FYSz5QGz8ly0JYO7gOwnHXs2tYKfEUJRneFD6oMZZeDn48b96nwDGXxNSRSC3DCBtu2gw9EYKJlVsCKqiAv37D3foWB+uhyREw69O9gvBS2JShJBddUpNcjBGF+Y8B4CWwngRMpCQQqvfRXKY224hjH4ESr/BEx1f5NlaL8FajhepbgAah0pEMybY0UKPErB0bw0196Zp/00Spw9oMHEcQDVTq0oE3lKpeq84igsbHCBZx11rGcfdbxhCNB4WWwLDwThascwxATRJ8Eg9ZgpYMKQUpzU+dQgpgsWqcT5EI6DJ6J3AWrcjI3ZFUGLKpF/wieRWZRis4cL5nPaIKGT2nZCT6WIrhS0BpKjMHKRBSF4PlWPu/MzYJKO8ykI2lW5v+l+j5VR1Wdo9oqVQkGjdxcmzoxjfaCchJL6SDpqYJlGErpaqktCX5Of4eZEI8W0t9F2nfUm4f0M3EjyRTroExViMykn7HZwlogpdUmCvNXwoZAeFT1L+gPZovTq/JRyiOa52KMICZYP6OU9dN9kaqK1XRZuApOTDUd2K77CY7P/CHpsaG6smQUYDt6GMimq95+qVkRDD6bn2fby7eNVNCmXRGXXXMIe+zRmlgsFyOJ7b52MBr+fgL9V1WYX71SMmDbEbVfcs5gFrFRJkJQ6u9udd8qYanOT4UnmG10lRklP515Njm8+ueSnxfGbaIqVaza7Lj5BbfCJk3qKk+4fZdXkJMnHH5EZxQaES89c9SwvrtazmxLvw9+qP4/hqoGils5388onc4UbfxFsMGkB2D1i8RAKYVWm6drTDUZ2/ysafOputxtVdGCKV1wNznVT+9TkEyFalr4g9WagXmTXoeQvlSQEao8108uvfWSmqqmE5vtXslP01aZGa7SxFRbmwHUz/xfVQfPTe7uJ8uZq/JaW7xBBSI+SvsgVlVgYfPjZQvH1lg4Nr1/pdRmz8hUPqVMQnerJ9eb3cOfzG80s/xyBH6jKb3S0A6sHbXlL6FqFPwjv4T0vfzsJbc1a/2MEm/z2Kr9Kscltf3l778t5ve05H4X/jolnb+K6ll90n7N3+SjZfnLsJ0zS2Z0DEyG39JPUZKxUqpsevlV568elYGaj76b75+JVqktmC2q2r7VfrtVEy/LjoxdJVA1+WbTPoCl0LaN5wnGy1Spb945ffsQVc3//ZVCJuk/gvBvJnypEGUqQ75b9ZKk+j9MsC4FG1HpcvGMX1HN4bZshYiHSAolNkgE8BHlV3kRkgmiZtlRqfHMEiQLg+pfEc3kCYt5c9Sn7L5HE3of1+U3up2g8BD8dOFkzSM1VQgog8nkLtDBHFFtme4270IpKtOwOoWSFFrZQZ6kelRKFIjDq8Pe5vup8zju+CNov1dzFIkgXCKm2nUzDTyyCrOjUsMS/aD02vgOqUSI+waO5ciDb+eBe8cxbdq63+xmjDb42HgmhoeF1Lj7S2ak14ifR/m62sRLgk4ilecQRbCqcusCq7AQFcKTCIYClK6LMsUYLxaUjG/e8Fr5IJoJX65m6JAJdD3kDh584FM2lEQwEkEkRGWPNaytXjfLjkH1N7ZQtUxXBwlA7GDLCIlSDHvpbZ548nXOPe9Mliwdx0039uenjdKqb9sSkCB8qLQCiTDwjjfp0fVmPnx3JopIDT+Gqoy8/vue52jbug+XXHA/M6cvDvJn+EHZSWWpd/WRXgcNOVTQTWXJQp8zTn6a4vyTyMs5gYMOuJRxH87G+HnpwO1m5qb2uOe+f7Jy7dv07384/77nOd4eOzGoltX+djyHLH919Ba/zEyJdbC8L+giqR18rVmzGvLzW7PHPs2IFi0DtRElDsqEUSaENg6W2GjRKBOYbL5S+Bp8Lfjax9cevvLxlWC0Bl3MjBkpzur/OPfe8xa2U4twtCjoiPKTWw4EXSmr2qYrQ6Itmu1Kw/rNCEUc7JCT9ltUUFiV3gwKX8BD8DB4eCSSeQx9eDJHHn4Te7RvxcIVb7B64xi6HLg3p5w2kMce/5B4KrNGJ91oEAAfsdYj9jKOOGY3dm7ZjEULUmzYEEVMtNpMVjMTMMtflxr7LCKCtjXKtkl5HuXl5SSTKULVq08qm+tZgTMrfjrr/tM2p8ECMI1SMSRVm+EvvMPIEV/jAs1b7UzzneohKrndH6huvXrUql2M1ha+F8J3Y/iSwrI9bHvrZRTlFWVMnjKdpStXUqeRRW7RGnwT5+Y7zmHjBs3kiT+ycEEzdt2lqPoHrgpsKMWqVSvYULqReDKO56eC+rfKEvNfmf3P8qdTg75hlX+QSCSIx+Og/PT6xWClpBEJollao1VgvmXKSoIoUsZX8NPCpTECyUQKSwuvDR/NRx+Mp//pfVm6Zh3FxTEKC6NAxXZ8lExlgOAaQVv55ESb4SaKcWUZ0bwUBqsqSV5J0IcnEjXUbWi4+PKDOLjrThijUKYYxw7jhIRQqJBwKGcL180oQZVFm0r6JJMevm9hZSeUvw26yqTY2qinA+E3EVYuhlVLU+TnaYprR3BCDoKD5+exdmUhb41cwRknPcnuO1/CcT0e4tMPSjCpOrhusAbdohDtN0G8QsSAraN8P2ker48cx95dWpNXq4Ip300gN2wTsjW2sjaTs61IXrUIlSgfjcPCeWWcf/Ygmjc5ksZ1z+Dy895l3swYWtcCbSOEwW0IfgFKLKJhzS23ncpNt51Eg8a5iG9h6Xyee2YkY9/7nPpNalO7Tv5mF874PsHShFatW1K/Xj2WLl7HujU+YkJbvt8sOyQ1iIYZkBB+spj/vvI5L700ho6d9mDvjq1JJstJpjTvvTOLU0++k7PPGcDXk7+gZbsilq5bypnnXsNzz7yLpoK85RQAAB57SURBVAClHJ547DU6tjueJ4e+jlIWosppv1djnnruSm4f2J9Iboh4yiWWG8Kx1Gb6u40hOh3tEhHixHnns0/4cuJkTj7taK65/iw+/2oCzzz9NqtXOoRCDRg86FU673Uyr/33Pap3cBcMSiyScYtli8r4bPwi3PI4rVvlkV8Y2vr1gTa7N6ZR4yJGvfYuU75dhfIzyvUXa1OS5RdRs75hxubJx15j4L3/YZ/O+3Bi38MoqGvhuRtwUyEmTZ7OlOkTufz63lx1bV+URPj4w4kMvvslvp+ylJXLXBo2UYQiIIRIJAPB0dpC6QQ5+TZCDM8zxGK5FOTnByvpNitp3xZKKUo2lpAqi5Mb0txxzymcfX43tOSzbv06nnvmVVq3rk//sw7FN4aEW47nV5WoB9EyG+NHqCjN5dYbn2DUyI+494GrOKr3PnhmPVtaIJAhGlNcdd3xLF+T5MJLbiUUu5STTmlXzU/66yxkyrL9VHu192Zjn6SFB1CWoahWDvUKc1nw42Sm/tCUTvsdRciJEgrBtTeexHU3nsPiRWv5zxNf8Nnnn/HdhBksXlDOimVxuhy4Eyee0o7+Z3bnjDOPxvfjIB5ITnpBlIfxQxjXITcWJZYXArxgcdEvsGIsrTju2EM48OBWYK/EyAZiBSXYjkdFRSkpt4RrbujLNdcfn06CZpQ38K1GvDqaB+99j7BqxiuvPErXHjuDWlnZ8K7qiVV7WEoQE+KT8V+w6McfKYhG0eLjuz7a8smaYzs+1cywauFQSS+HFRNkof1y+p26P1ffeDTlforRo5by7RcbgRBGJfj2u0mcfOK1dOrQj8ceGUWdot254tJb6HHUkVSk1pNMrUdpMKocX5WA7adlxwsiZqLA3oiySrGUQimDKC9dGRtkwQ0Kg053lv/5DvtKe0RzIRyKgl+I+GGSSYPvKZyIhbIVyhZUyCCWh9GZHgG5zJ5VxohX50OoiJsGnkm3Xg1Q0SWgkkHAAgsjYYxEgx4zOpGO+PksXrKSse/OY8Wach4YcjXHn3AoSmVe7JQ1w3Z0qswwZYLIlTJVWyUpEMUJJ/ZkzkKfN1/7lAWLFrPPQXX4YepCHrz/Hb745nsG3HU651/UG6UN8bIw8xZPZdJ3CpMpkiSSXmfigsqs+84kCQVLg7Z8lPbQuvqsYkB7aXHL1FhlymF+OmInPShPpAITS9tYUoAyURzHIS83ghNOYUxFOkIX3IOYCF99OZ2bb3uVVauS3HHnZXQ9vB2ocsQrSJuEqUBpdAqVaS1qnMrnNeHbySxYsISzz+7PAQfvibLjwT2KVa3wLcuOynZ0pEwSjSliMSctnkFfqGTCx3iG4qIouXk66FGrUgwfPpwRw0difI1vgpF1+dIEk79dxcrl6fxJZi1/GgHKy8opLS1NH1N5A1SUOsyelmDmtI2UliYJRuufKkosN4dwNMqIlz9l2DNfs3ppITOmuCxdvJHex3Vj7313xvgVrFqaYNrE5axd5qK9QubNLOORB97lq89nknLjDLjpLho3PJzC/N7kF51ALL8PTzz1AZBLyXqHH6eXsXieR9kGB991QCBekUS7HpFwCuWsRSgnqyB/H7apLJXjoTYoy8exDJZF5UjZfq+WHH303kgKrrzoSXZtdAq7NOjHNRf9h7VLwtgmH+P5+L7P88++x5GH38Lwl6re/KUCcx9twAG8RJyyjSW4qRTVM98PDn6dAztfQ/euNzHy1U/TIph5ZV9V4i83N5eCaCFhcXjiobdos9OZ7LvP+SyYX8IRPQ6iefM6OFaMIQ+8y+GH3M5bb04GsZk7ewmrlm4k3y7C8R2aNW5G757HcsG5Z3DW6cdxZPd9adK4Fp7rMXjgMA4+8Bo67XUZb7//A3Y4RqXiKsjJiWLbgiEVDDTKI+vc7/jUuLuLAFobtBaCFkEGRZiQHafvKQfQ67hDWL0iwbp1pYRCDvl5Bbw0bBTfff0DLXfaDdvK56xzjuXQgw+kfsMoQTvYoN1nJk942b/6ctElp5AT9QmFXIJ3cwTO8aWXnUvZ+mIef3oEGzeEg4bhle9uCRTXCOy9927sf+AkDji4Ob2P7U1JSQmJZCk7t2pArTohYAPGD3HhhUfR84guNG3aEIxwRM+9OaxHRzA+4VgMAC+VDFouKfB9n0g0RMhRnHXWycyZ4fLhR1+QLK/Ac13EVhQU1iEWyyMaDWPbDpAiUJJsbdjfgRooS5CdN0qAEgqLS4nHVzP52zUc1rUO+bVWYNnLyMkTmufZtMBG4SGynutv7gZ0RVlxfBZRp36YOvULCHI3oIwdNFELagHIy0kETn0mQiWZpJ8imqOoVz/CCSfsyQEHNQj8AUnfvihQQf8tK7KSa285BKNAqbUEQhpFZF3aX/IQ0TRqpmjSrAikHCgFsQlZFlorYD1GDMoKWs/aWgfdCozC9UMU17PZtW0ejZt3olOX5iipTWJjfd5/6w0WL1xC/UZR8vLCIKXpmQV2xBfOZtmUKmX5mcVJShRaFMqCvn27smShy5D7X+A/z7/AVdf35IqrjwmiV+kexKh07kKctLkkKJMDEkGMBTpJ4OSnixIzzbUUQdGjSWczqvk00374jpL4LHr2bk/79ruxxVeoiQUSTn+WzM2nQLlpY84GHBAdhAmUG8TVjA4ehViBVadApfszA1UWlDKI7zPh6y9IJtdzwsmH0rJ1If+6+A5eef4bfAPnX9KL/fZvgrJXoXz/p2X9WXZYKtu3KkCUx7nnHbRJ+9Zgr3S3fAuUsvBch+Ur1jLxu6nUr1dIp33aUtUAYXsEY/Os/B8dMdq+5hWbtgDK5GZsxn38NeXlHnvt1ZF69YtAp9J5JL9aRC9bJLajU80M28aXqdIdHsWgrQSNG8do0rRL8Apn46F+UYOIPzuc+uuEVymDkSQHd9sHrRTGM0CcTL8sUTobDPsbUfOGFUKwfr1au1Fj/LTl9L/RSWXTBh2ZpQiCeAafYOZRf5Em1jsOmQDIX5/t7xsmKmPUo7DS6zV+gy4TOxyy2d/BArSgs6nscD2x/lx2DIXZfmXZpCtjOknyP9nzp7oJmVkekJ5d/rR72hH56ytJhl/ZkXLzMvr/JbIO+/8af3r71r8TP2k9nOVvxY4zB2bJ8idTg5lFpd/gnVmIlU4zZkfRzcg+kL872ZklS5YaklWWLFlqSFZZsmSpIVllyZKlhmSVJUuWGpJVlixZakjlq72BHSAhXT1r/mdXLGfZ8ak+V2x72Xd2ZsmSpYbsYMqSnU2y/JZsXxORHbA2LKswWX5Laq4wO9jMkiXLn0dWWbJkqSFbNsOU2sJS4T/D9Nm+hhJZsmydjLn1y+eHGrz5S6VfT/1nkFWSLL8Vv96I2qKyBD21qtqRBh0ps051lv9taqBu2dE9SxbIOvhZstSYrLJkyVJDssqSJUsNySpLliw1pIbKku2RlSVLjbq7ZMmSJTuzZMlSY/6mPkvmjWFQ9VrtbLVyll/H31RZqjcvV+kXLW3hTWFZsmwHO+B6lpqSfg2GOGAi6Y6a2bcGZ/nl/D2VRWxQLslkinhpDkpC5OSCE0mBSpI1y7L8EmpshhksjIQxOBhFjbefE0dhC8egMGiMUts4VmOU3vJ1sTBKYYfDDHl4GG3bnsyTT72P66XPjQpe141s4X6r3pCcJUt1bAhe6aaoJpyq8g8EFbwbUSl846BMAbbOBQRDKYYE6AQVidWIn0c0XAR6I1jlWOSh3AYoKx/lrEGximTCRql8tHJIVSgUeTiOhdgrEb06/d4GC9BoO4Ibz0HcKOFoBGWXY8w6jCSx7BjJpIPnauxQCidk8N0YSoewbYPrJvD9CBXJGEkXQjm1scK18GUJKA+lFMbNR9xijLHwpQylEoQcH1sblHJB+en5R6Ufi/DzKpzl70yNZhZB4eOwck2SK68eSk7sEGI5h5KX04sLzx/K0iUJQlZrBt/zGc1bnMjDD79GWWmIxQvLufSS+8iLHsDVlw1l7ZoQ/zfwXY489GYuO/9hDtr/QhrUPYT8goPYu+PFvDnqe4yKoCwbdIgB1w0nP/8ECmsdRXFuV/ZoeRqvvDARkTxKysq56eYn2XnnPjz11AcMvPNVmjY4jtr5PXn4wffxvXrMmV3Bj3M2kHItvvpkGu+Nncqa1SGUzsVIPpdfMYzatY+kcf3uNK53PG1bn8LI/36M0lbV4jeVNdeyBGxbWZQB7VFaVsbDD41i2PMfcsWlp/PjnPF89dUYUvE8Bt35BsuXJGnWsCF5Tl2GPfMlTz/2IQNve4OX/vMBN15/NnfddTn5BQ6aJN9+M5NhL35AcXEhI15/mLXrJ9O9e0/uv+8t3h07Cd/P5fFH3uI/z4/h2qv6s2zJWF5742F2btGWZ596i/fe+YREwqOiFErXw923PM8zj31E3z59+fSzVzjqyEO44Ly76bD3Sbw+Zhy+7/DO2M+58/b7mDxxDpYuYMC1z/H5hxN5dMhdzJ03gWHDHqZFi7bccfuzvPnWONB/00Bhll9MjRx8zxM+Gf8Nn3/yBaeedDqX/qsPBfXmUbtxHTp23JnPP/mGZctnc8IpbdlYegQP3fcG99w1koLcGLfeejEXXHwMylkL1jo8KSNlDCee0Jubbu7HTm01vj+LUGQjP3y/mB+mrqJ16xX8MG0FESefJs1s7Lw5dD6kFq5/HIPvfY5Jk5azS9t2+J4ipEOUlhp6nXYYF17WgyYthJCjuGNgPy74Z28efeBNRr3+PldeezEXXtKTUGwjYPDcEHmFikYtSogUzWXv/Yt4YvfL8NyN1K8bQ3w/67Zk2YRtDp8KcOwYC+ammPr9WsQpJRRNYvwcVixby7zFC8ivF6LpzrUoKC7gvH/244xzjsWxIpzQtycnntERHZuPscoxJheRHHZv05BefZrSrE0prqzAiI/4Fl4CjBfm+6nz+G7SHHr1PZKjT9gXJ6rBibPLHg1osXMLfD+McW2MJygcWrdswiE96tOkVQqsUjyzjtr1oH3HWhTV1xjt4UTKEGcJKbMM163gqGP2xg4Xc8lFj/Lfl8cRi4VotVsjdt+zKcV1AV0ByiXIz2TNsCw1UBYBKsqSlJcmQWDo0Jdp0rAn9Yr60mGP/ixa+D19+7WnoJZHWXwF69evZ926OGvLEsyYvYCFcyuQVAOUiQUhXRQiPr4xGGMh2KBCGG1jRxxycmOkXCGZSBJxIoTDMWwrjKVy0IQwvsL3Fb4RjBjK/XJO7t+HY44+MghUaI2ICRKROgXKT7+5zENpF60FpSs4tFs7TupzAG6FwwXnPEarFicy5P7hbFjjYrwIiI0YCxGL7BSTBWro4Mfya2FF6pBKwKX/PIVvv3mL9995iS8+f51hLw+ha7fO5IRz0VLMsOfHMvyVV6ldBF988TWD7nmGSRPnI+Qg2keURyjikBOLoHUY40fQOhelwzRs3JB69esSDjvEcsLUrlubgqJiRGnKK+C7735kxpyFpEjg61LQLmENISuJsjy01kEVWzp6B5uKuYiAWGgdJukmOO3MXkye+hZDHx9A3fpNuPqq/3DheYOYNnUBChulbNTftcghy3ZjFRQU3ZpuUQHK0LFjMw7aryVKgvKQoHlFnFRyEYvmLWLiV4upW7uIHkfsjzE+t9w4lGceHU3Lxrvy+oufc/+g57n4ohMYMeJW9u3Ykvfen8TAu19k8dzlNG+6M99PWsKbb37NF59OwyvPp1a4LUP+7wXeHf0WV17dlZP6tadl82asXLqBf//fs1immA5tDmTYU59x521P07SF4eyzu9C4cV0+HzeDqRMXcEi3tnTarxFKJbFEUAKaJFr5LJ6/lNk/LGL/Tt347sv5LPyxnMkTZnL+WYOZNmk5u7ZuxD8O3I8eXQ9j5eKVfPzxV+zRoRm7t2uCKJ/qRaTZctL/bbbt4GsFlk/Xw/fBsXMZdOdrDLhpELfdMghtQ7t2jbny6r5oO8mE7yZyaLf29Dh6V3R4A//otisFxWfz3POv0q5DbXbZPZ9w1KNb107kF/gMHfo4g/9vKLk5cN31/+S0U7sBa7CjFhf88zjWrS3jrtsf5tYBDyNAx07NOP/849ir4+6kUgnq1g2Rk6cxJFGSRIlBEBQ2YEBcTjn5GObMLGXArXeSlw+333Epx/c9lLi7jCEPfMQLL76Nk06eFhREuHHAyRx9TOcgCoghyPkosn5LFtWkSTOBtDgol3PPO5Ab/9UDLan0HiBKMEowKJREEAkjOAgaRQpLJ9Aqh7k/riWZLKVFywK0nQiirzqCKAelBBGPQbe9wYzpK7jympPYo21zLJVAK4NSClFuUL8lFoIFymHaD/OYM2chO+28Ey1bNiMUIfBDRKOxAY2RIDGqtUmbWoKYoAZMSQxFHiIOQlDuorSPtgRMLsbNA3zQ5aBcFD7oOKhU4GOJVfWwsknJ/2lqEDoOSj+UsbCUICqVLki0AhNNTDCiSyk77RzGGAcRgyKSNll00HNMFGKiaAmjRNAqhbLXo3R50MgPgqLHdF2XkMKYFK1a12KXNsXYjkZRhogNAkr5lYWR2tjVfJTAwdfodCFCPHD4CQVZeZ0CE0XEIHoFWGuDz6jSpfxK0v+u+uzZWSULgL1JKfsWCXwAdArBBPspA3iZ6Sg4hU634jMGQaOVhVKm6hgUSqdAp1i+fDXLl6+g7e6NQEJVl1JeWgEUGoWyNNpyEPFRRqNVEEkzklEui8BMCnwrRKFEEMl4F+nsu04Cyarr6PJKBd60fF8FupJ5FuIhSqdVJb1/1mv5n6WGVcfB7KGUIATCmDFItEggoH4gmhpAGRSCTgu1VBNIBRTk5VKYn4utfl70lPiByAsoI5VdMfUWRvpKWzLzl2xapvLT62zpyhJE0kRX/pwlS4bfpERfKRX4CZl/s3UluP6mUxATA12KIglGb1MmK1vJZsnyJ7KZsqhgVBVNVQpGpc0dA7iVv6opAhiprg1xUB4ibg1Os5k59ZOTZ/Ipv1WxY9bMyrJ1ghL9tL0vGedWGZAqX0a0j0mXfWRK1pUKmoV7aDSS9q+rnOEqOz9duFtJCkhVieTPyufWlGDz3wlKTNr0IlCgaq/M+OXin/Fhft1Zsvw9qDaz/NzonPZVMoujVOBsBL81acf3tyZzzkzDieq3k3bslaG6c151TOazZAU8y2/H9vssf7j8bWnqya5kzPLHU0Nl0UGIVbkEbwWzA7NNZNMw1C9lEx8pOF+Vm5M28TZZhJVVlix/PDVQlmr5BQVIhGR5HsuXuMyetYz6jTTt9yxm+0vZBcFHxEsva04nJDN5E2UQsVg012XBbJfGzWPs1CYfyzaIH0dwt/N6WbL8Omo2s6Sz22KiVJTGGPbsJzx0/0iWrlzDldf1pP2ex/yCSyswNsaPoiUfyyoMMvg2iCpDvA2Az/Dhb/Hog2NwbIvT+vfi3At6Ur+JRml/88hBliy/K9Vsn3RXk01Cx5ktHf0Sm1Gvv8uQR57hiKMPYva8F7nuhmPZ1JnOFCBWF2S12fnSm1+Xzz9cTb/j7qRV4160anIER3c9nw/enopStTG+zdUDzuKHBa9wfJ/uPP7Im4x6bVzlupgsWf5ItEiwiCqo1t2SACpEBZu2IixZrsFuRIe9dyG/bhIVKsEon6CwRWGUIJlmdiYMJkSVAlVtRgwPP/wKp/e/k7EfTSVUZFGnhcWEmbPpf+btPPP8WLQTQZLriIUSXHHNWfQ57RgWLl/N0lXr8H+2zVI2X5Llt6fG0TCjFJ6nMH5wkFHpsjAl6fITHdRmAYIXlLzoCrbkjGutEWOzR4c6nHXRnuy9z34c2vVgcvMijBn1JffcOYwVSyqIl3tEo+nSGq0odzWrV26gtDxJYzsX8ZI/vdEsWX4n7MC8qontL2itsS29mewHJpiYGMrLI3DQU3h+GUqnsB1JFytWXcOYoBrgoEPac8ChHTCEsHQc1zUIYNk2tm1j2aC0F2ileBjxcd0k8UQJrhvDytRyZcnyBxDUPSpVo/qr0pISNmzciOCj0+vZQTAiGBPmzTc+5YAuZ1O76DjOP/tR5i0QcGoFa2F+0jlSIcpGJAImB9+NcuuAFzn+hAEU1a7LPw5th7aTKK3SmyakFSuWLGXZ0tUYo6qVukDW7Mrye1ODYVnQFmgLnn9+NI8PfY19urSky0E7I8bC90Mo04Ah//clF541BNwQx/Y8lEVz13Ls4Vcw9IGXiFfEef+dTzim+03ce9cYkgmwVBjHymf2rBWc2m8gtQt6MeT+V3EAx/GwoymUjmAkhFGG4jqFFNXOY9LklUz4ZiOJeBhtBT3NArLKkuX3pUY+i3FzeOapD3hw0Nu02XVnjurZmQaNaqHtOJbKZ+yo8bz62mu0adec6246hcO7d+Gdt77h7rufZdU6iEYakEpFKS31sKwYtlWMJxX4XpxadepwwIG70X733WnZcmfGj/+ct8Z8xdv/+IJr/nU8/7z0EHLzLVL+Kk7t35UFS1Zw3+CXKcgJcdFFRxCKlKfXwGTDyFl+X2qkLGvWlDFt5jpWr7U455zDOPKorrhmDfg+XirK95PWMGPGIi77V1/+cXgzfOdHDu3RlG5HPUk44uB5Szn8iAPo2q0btg3aToAES42Lii3OuaAnYjRa2xzVux3/OHgfBg8ewauvjWe3PXI5stde2FGLhs0K6dihNV98Nok3Ro9jj7b1OaRbGywnm6DM8vtTI2WpVRzjtL6HsHzBGh64fyjx5EquGXAK4ajN99PmM/2HheTmhaldx8ayDRgLK1SBmLkk4hZGl4JTTigURSsbpQ2IjRENWFiWi0gQJYtGHTrv35B27zZg3LtLWL82gSaE60Z49un/8uDDr1OroDZXXtGPbt33BFX2Oz+iLFkCKn0W+f/2zi9EqioM4L9z7p25s7PLjruu4kqrkg9rDxWYfyhFCkna2lwWMSHBjPAfSEhFVPYUWYhsJRK91MNGQUsWRqmRGxrJ0kP0kNYmamy9bJjL6rizuzP3nvP1cGd2zb9DraMr5/c6h3NhuN8999zvfL9PRVgVjh/RH8uJgPZGmb+omvc7N7Nx6xq+/Opnuvf/hlYJojCHKYQ01E2lvm4aYuKk5miuhv37fuGb/T8h+Wp0OBXyDaioFs/UMDo4nT+O+5zrD0jJNAKTImlTnDsjdHX20PNtL2ufXENr22Ogqzk/oDl5LMucxpns6thA2+p7wBuMxRJuVXFUgDI2+BZUHrwciWCETLWQJGR45DyFwjDTZwRMmxnQ19fP7ycuYEdn4dlmPnjvCFs3dNBz9Di53DD5UZ+hwTT5oQzZrOXAwYNs2bSdpfPXseu1vVwYaKS/r4adr3exZ/dHRHaUO5trqGuIz4oV8h429GieN5fZszNYGSrzk7fDMTFc/zVMxdVbSkEy6aM9n8gUi7rwuKNpBqtWLeP0r+d5d8/HfH3gMEk/yalTp1m8+AHa2h6nvr6O3e90sfPNL9i2bR3PvbCCltb7GRwQ3ur4jDd2dLJjRycCBAHMXziTF7c/zYPLF2LMIEoS8UkA8WM7iy4A6Rv+5zgcF3P9YBE1Vtzl+QqtFdaGKAWaKowZYenyWdy7aB3fHTnK4e4fkEjx7EvPsPyhFdRmfESdZdUTd5Oq7mfOnJBkVYQuWNZvXMD6TQvIZrP09vbiJ33m3dVMOl2FiBCZP+M9jlh8ncbgkarySVeliJOfrqmqo3KUd9xFivUrRCSCAkEQoKQeJRms5BBlmJKZQnv7SlpaVmAjS8JPoMhhJIHnQdOsGWzZujn2epkCSoPYOPtfW5thyZIlcYbehMUMf1z7L1KFopZkooZkwqOxcSp1U9KYKHQWYkdFKfN+i4dFkmXuPEM6c5YPO7voPngMU0iDskQmIl8YQeuQZBCBN4R4Z0FfwBrBGEOYz2PCsHhioDS3QmuNtRZjxlcKEYtYQdkG+k74vPpKB5/u/YREysafilUBt7I4Ksn4yiLqKqeOAWItqtY+ra0tPPrwU/zY8xef7+3m3OBJVq+9rzhOgwQoG9sqsUGcWPeGAR8FWIkQE19Lq6IkQ+LejVoVPZKlOhVR7Os6wPeHztC+sp23d79MoupvlDeAwrWCcFQW1dQ0W0SKLUZ1yIaNy9j+/CNoCf81UJQtGl5icZ4FsAlQOlapXtSqtNS69RqX5fIb/XJhhohC2RQQIHoUUQVENGDQyhSD2wWMozJc7g27IqUbWY+Nik1iIYjCU7qoab3WHFea79ooZcEbQalCvIURUGM6WK+sORyOieJ/GSm1Lq0h9joj/yMSC79FLC6lcrtSFGVPAsoKFqHor6v0G0/JZi+6KLW4QUHpuMlMjoDxx+vlrx4JY79c9HS/uldvopeA0ob/CrI9x23ArR8kJcpfWbhB4kmHY5IwIRb9ynDpl6+JkoE7HOURi8HVJaqUsU0KcFPbPbiAcNw6TJ4XRofjJuOCxeEok38AM8kna/UHzSEAAAAASUVORK5CYII=;" parent="1" vertex="1">
                    <mxGeometry x="211.5" y="370" width="203" height="132" as="geometry"/>
                </mxCell>
                <mxCell id="12" value="&lt;div style=&quot;color: rgb(212, 212, 212); background-color: rgb(30, 30, 30); font-family: Consolas, &amp;quot;Courier New&amp;quot;, monospace; font-weight: normal; font-size: 14px; line-height: 19px;&quot;&gt;&lt;div&gt;&lt;span style=&quot;color: #4ec9b0;&quot;&gt;module&lt;/span&gt;&lt;span style=&quot;color: #d4d4d4;&quot;&gt;.&lt;/span&gt;&lt;span style=&quot;color: #4ec9b0;&quot;&gt;exports&lt;/span&gt;&lt;span style=&quot;color: #d4d4d4;&quot;&gt; = {&lt;/span&gt;&lt;/div&gt;&lt;div&gt;&lt;span style=&quot;color: #d4d4d4;&quot;&gt;&amp;nbsp; &lt;/span&gt;&lt;span style=&quot;color: #9cdcfe;&quot;&gt;d&lt;/span&gt;&lt;span style=&quot;color: #9cdcfe;&quot;&gt;:&lt;/span&gt;&lt;span style=&quot;color: #d4d4d4;&quot;&gt; &lt;/span&gt;&lt;span style=&quot;color: #b5cea8;&quot;&gt;4&lt;/span&gt;&lt;/div&gt;&lt;div&gt;&lt;span style=&quot;color: #d4d4d4;&quot;&gt;}&lt;/span&gt;&lt;/div&gt;&lt;/div&gt;" style="text;whiteSpace=wrap;html=1;" parent="1" vertex="1">
                    <mxGeometry x="65" y="560" width="170" height="80" as="geometry"/>
                </mxCell>
                <mxCell id="13" value="" style="shape=image;verticalLabelPosition=bottom;labelBackgroundColor=default;verticalAlign=top;aspect=fixed;imageAspect=0;image=data:image/png,iVBORw0KGgoAAAANSUhEUgAAAKUAAADVCAYAAAA2CTAbAAAgAElEQVR4nOydZ5gVRdaA36ruvmFyHmaIRqKIIiCYRVQQE6CrYkDX7Jpzdk0rhsUc0TUriBKUIGZAgiRRQVAQJcfJMzd1V30/+t7JgH4GRqbf57kPw+3b3dXdp0/VOXXqHBENPaMNHUMiAIHWJhoDLWgEDUI3tuFPRsc/tRG1ttVH1Nuua77X0v1X6FrbdM0+Ov6vUIDaTpMkCNHw/Dqxb61z1jmurjndDvdt7Lpq71frOhs7b4Nr/XtgCmGiBGgN7gUItv0wdtbF6Zobnni4tR9Q4qbX2RbfnhAuLQAZ/zohTI0IpUjsux2hFLWFot79qL5/9QSn+ri6pumN7ruD+1D/Jau+zkbOW32tsPOe3W/HhNrKb0cN39H22sLyRyJAG9vZtp1dtQRk7S+ou0P9NtfeXnu/ej+p+0e9jY3dh18jFL9GaLZ1jxs7799HEGtj/rGH295N2JHA/p59PXYltqEKPDx2HvU05e/RZjvizzy2x65EPU3pCYbHzscUQiBqazDdiFhWW7VqBy6h7blpPIH3+HU0Yuhsw+Xg4fEX4Rk6Hk2O7biEGmpJDSg0QtR000LrWr+q7RP0umqP/x/1NKUADNBWI85qjdImL438lF7dL+WF5yZjSMOdMame3nI/Wts4jkQTQEiN0I4nox6/mnpCqUDGQFaBDCMSwiZiaBHBkKlUlWfw80+CzRuSsJ1kNLJmjhWB1gLtBHlixERuvvY1Vv8UQ6ggwhspePxKGmpKrUFEEVLz3aK1TBr3LWt+iSEJoIkgDYVpmEhTYZiKmi7bFU6BYOvWIlb/Uszzz3zKqLemx4+9neAGD49a1BFKDShhoEgmqpMY//H3DDrrKe57ZArrt2gcHSApKY+UlFw0EqUFGhOlklFCoIwISjhk5AR56IkLWV/6KpddezDKqEIJAy0ChGMW4agfjHQqI5ryUBgHiW4wZ7u9aBmPXZkGho7WJkoFiDgWobAFWOTktiQjqxWKGA6CmBLEYhab1qURrkwlKyNIIDmKtCoQsgpp2ijHjzQshAzj6BimlYE08igpirBg3mIsy6JDhz1JTnWIxUoxzSoMYXsOKI+GQmnHTBYtWM+sOcv5auYPGIaPL6cv5vYbSzj8iG5opUDHmDNrMd/MX8KcWfOJxeCQg3pz063n0L13PlXhTdx394v4fKnccNPRBHx+Kkt8PHj/84x48i0MUxMwIRKCvn17c9X1g+jeMxvDsnfGPfBoYjSwPvz+ZGZ9+QP33PE8M6ctwLYrWb7iK1asnAtUobRDVDlM/3IBPr/D+A8e4rY7hzJ73izGT/iCspII4SoHJ6IQSqAdE7TJlEnT+HDybI44qDfjxz3AspWjufGWoUybvZBPv/i6XlM8p31zpo6mFIDWm/nXtftx6TWv8shDU3j5pY+59obTOOvsnpim5PlnZmMCrVtZHHNCG/btkU5OQVeWLP2ZH5duZOWKIvbunIJp+TEMA9MMoImhCaFEFVuLtrB1SwWW3+Gqm/tyxY2HYQg/hkgYTbXHk55gNke26aeRGgwNJgJTSAwhMACBBhxOHzqYs4aehgmkpCSRnJrMhg0bWLd2HbGojVZgGBLDMJFCMmjIsdz176sRhsGZQ+/lpAG38vnUn1DRTKShEUYYsAEHz8Bp3uzQeSiFwJASKWq6VIVCmjEsK+YuoxACUeujtEZp1wVkx2wcx0bLcvod154JE5/gvnsuZ/nyYk45+V7OG/ow82ZuxIn5/szr9Pgb0YhQusInpEAKkEIipYEWAoWCuANHihgQre5thVZIIeJrqWy0dhAofD4Dv8/HhPHjmPzh26RkbuGK6/vz2efPcOo/jmHcpDlM/WgFTjTNdS8Jw3XIk3DIezQ3GgqlFggkEoUhFKt+Wcc3C1fzyPBJPPH4BJTSaEcQDfkJRfw4UmBHDUTMh08abjcvNAaKcFUllZVlbNkCc2Y4nDf0bS67+Gm++W4xVZEyhHS7afdfzT13vkeLrIt5fMQMHDuJmlWA3mxQc6KRgIyaJaannNaXTRsjvP76WJJTAlx1/RC6dNmTk04+mLbtMjEMEFrisyRZWSYHHdqR/brvRUYm7N+9HVKYpKYGEQS58KIzSU3NYdTocYx5cxoayMxM54ZrzmHYuQMIJJkEA0GUkLzwvzdo3TbKySf3jcd6ehqzOSHsyEgtdI1/0NVZVnyuWmKHfQidhGUGcChFWAJBEDtWihIVSGEhhR/t+HEcMHzlCCOCHfVhx8AwFYZhoUUAaQZxYn4iYYltg99n4QtG0ZRgCodIZS533PYGy1dM55Y7T6ZHj/ZoR8WX/zo76RZ5/NU00JQC3KgeYYNQmIEwSpWiEBgCUK4BY5ngaIVWCq2jIMowfQAKHI1lKnymERcoGy1DaF0EUuELahJmjYovOne05pWX32bypKlcdOkA9u+2d1wg/yxhrB3I7NGUaKAp66M1qPjCdolr0CQep1a6OomBkHEjJ75V64ZuHfe7ht8LTAzTRzgEWoHlUwhhu3Gb1cf8o91EnlA2VXa87jvu5gHiEUQi7mR3//5jZMVGa4U/GENphVYmWkkQRt31Qx7Ngt+djEDsMNVII/tUpzGpQWsBmAgViE/mRP8EgUykWVEIdDwyyRP6poaptXYfT6OpWwQ6PodTvakWrqJU8b9FvW31hS6xjKKhENSk1pGuMFZ/sb0YzO2lL9mW+q5Jx6LrpDnR1BbYxo/vrVv/qzC11onsVnHq3tyGmXe2L3y/Bjfv0m/Z7y9aYSlU/F542nNn4nmlPZoc2xlT/hXW6f9XA/4xbRO6fhrB+JGFiv+ReGcFQos6OTsTLZfxzH6N5/P0+P+wDaGsdvogZNz5rQ2U7bBzEnDWE9hqoYGGA4ztCWxdQ8c1rCTCXTjsjiYTx67VlSfG20KDMEFho4mCstDaD0Khha45s/YGAL+HbQilQAiJ1oJYBL5euIKJE2bSbb+2nDzk4D/kxK5HSbtOem1SE0u5wz1r/cyp+/0OtW3NcmD319o11ERiwZzjfmpn3aWWYGofo96cwjff/MRJQ/rTdf92GDKMaJAD0+P3sI0oIYlWPmKRIM889hGDBjzIE/+dwfdLiv+YswqBNEAIC2UnYdsatR0HfsP2uRpPO6lUFucSLs8CHfj159cStImwktBmMoo0kDkInY0kCyFS4i9K7dxIDmiDr2Zs4dnHF9Dv8Pt47NHpFJUFsIVVb+Gbx+9Bug+o9sd1AwnD5J3RU3j5xfFc/q+L2Lz1S269fRh1ltT+Px6EAIQUOI6fu+98n36H3cGUSUtQTmPxlIkIofquGYkQJg8/+Aqd2p/CpRc/zOLFK+P6bwfaNi6QqAArl5Zx9qlPkZtxOunJQ+jT62Imf7CIWCQFrU1XY1ZrQQNQPPLY5WwomsTZZw9kxPC3+HDiErSTjNACqWvGmB7/f2RtIdNIlJA4QmAL2LARhGhN2z0yEMGVOKIUpS2U9qG0iRISLQVKKJRQ6AZju8Qcug1So6WBFhl8vyTMWUOfZfjw9zECGSRlZiB8svFsbzqhzN0c5EK73a9C0KJ1K7IKcvGnWljJJsqIt0NTK0FColu23X+RYOfx0jMLOLH/PXTt2oWV68axqexd+hy6P//850M8+fT7lFU61XGdifuijBhKbkJaqzn6uLbssUcha1ZVUVoGYLpjyR2OQDx/5o5odEyptUYKgZRu6hblOCjHQdb5dSL5gE50pgih4uZCwjKo59PEByqbd96aysQJX6EE7NWxI7vvvjtKq980KtNK0SI/n5ycHIQwQCeBSsOORZHYmNtKkQ5UVFSwcOFSflmzifQcTSBtI4gq7rr/AkJVfpYtXceGdUWk7Z1Ra6+664a2bt1KWVk54aoQtu0tDf4j2aZLKBQKUVFV6RoGIm4WaAOI5w/CQOBDKx9aS8BBiBCICNXaCVWt6SLRKADvvj2OyR9M5YzTT2BDcRmZ2elkZqUiRelvVCACwzRRWiKNNEyZT2lxKoZZTFKSxolXhKgpyiBAu3Pppj9CZo7NldcdyTHHtUcKiSCLlJRcTJ8fwzGwrO0tz6jRdtGoQyxm42jlRlF5/G4aKidpI6TD+jWVrF1VTjAZ0nMCWIGga5GrNLZuyGXc2xs4c/BTtG97HkMGPsLcmVUI8rEdgVIgyUBFCnFiaWjAMpL49uuVTJgwg0OP6kpGdpR5M2eSnWmSmm7Flaqq+6mTPKsurrAJfKbJT8vKOP/sR9mj3ank5v6TS/75Cb8sLQDVAkc7KGUgRS5SJqOFxpdkc9cDp3H7PadS2CoN5RhoJ8gjw5/gvXGTyC8sJDMrs5FbZcYNIJP2HfemoGUuGzZspbgoiqOseKvrZ/vw+K00EEonFiBSkcuUCYuZ8sE0+vTuSu8DO6HtKkKhGFMmz+OsM27iggtvYMF3s+nWsxUbSzZy1rBrGPnsBJSTjGEEeP6pdzmg6ym88PR4BAYYVezfsw3P/+9qbr7jNEx/AEf5SUkOoFSseqHZb8G2bcLRCDNmzeDrJQs5a9gA7rj1LBbMn8VzI99g89YIgWAbHn7gfbp1OJO335xK3Vo7BmiTSMhg/ZpyvllYhGEH6NixNZnZqds5s6ZL19a0apPN6NFT+OrLtSg7DS0MEN7aot9Lw+7bSeLJ/07ivvtfYcCx/TjnvCFk5YHjVKGdTObOWsvcBd9x7c2DueGWoRiGj08+/IoH73uTb75ex6a1MVq2dUhJtTDMJMLRRMCGATJMaoaJYydhCE1WZhopqaluGJyq8Qn+WqqqqqgMR8CCW+46nQsv7YvfSKekuJS3Xh9Pl33aMPS8HjhUYctYfOFbAg1KoFQAYtkMv+dpxr47nYdG3MDAkzrjqC313th4++LjAcvncPX1g9i8IczVV95LSvqN/GPovmi7HM+Q+X00EErTgqwcP1npARZ9PYtZc3Lo3P1YTJ+PAGFuvLM/1982iI3rS3n5uc/45JPP+WbRUrZugtLNDrNn7c5JrTsy+LRDOPWMfggZdaPHVRClQEgFOoBt+7GsAIaUKNv+TeMxkQjlVA4WilMH9eXYY/fHHyxGODFSU8Gxoaw0RCTicPV1Z3DTLWchpUKpRK5MgdKSse+9zxMjpmCHchjz3kMcdXw7YvoXtBKAf5ttsIwUZkz7iB+XLyMQMLEjUexIDGM7BpbHr8MUcT+GKxMCrcOcd0kftLmFf9/1HmPHraBr1030PCgPR8eYO28Jjz74AV989jVt27bmiMMP48grz2TGtFksmDuditBWhBlBE0bVnlsmBgh3uCiLwSwD6SBFFKlj7vJcrLoOE6FAKwQyHp2UmF1xV1waSoIDPtPAZxpIJwWtJWUVVURjBlbAhzANDFOicXDQaOG6eiyRw49Lixj15kqikRzuvPsKDu7bhqhdhNapCOGghXL9lYi4WykG2kAj+GX5eiZ9sJKtG2M889zNnHxKR4QoY8ea3uvad4RZU7sQ3JsfBSk4feggNq0NMHbMx/z082p6HtqGxYvW8vhjU5m78HvueegC/nnxCWgdo7xEsnTFQqpmReJLJ3xonVgnHgEMV6y06xYVAkwDDMN1PZlGXOg01UKsEaATC9gcaqYUa4utJgpUxaqwYzEEJpJktA5gBiA51Y/lc1BEQVgo5bhz1CrAzFnfc+edb7NxdRX33H05xwzcFy3LcOx099DCTTMjRCQRawfaIuH7XLjwG1avWsN5559Dr977oXWFu1TY67l/Nw3r6Ag3vjIQFPgCbg5KpWwcO4JyDCwhSU/1Y/kdoAIpo4wePYox744l8USkTKJ4s2LZd8Vs3eQghKyxoqu7TkFFZYjKykocp9ZYTwsqSjXLvivjx6VFVFaV17iZ6pGckkxSMMjot2bw1qsLKNmYxw/fKtatKmXwoH4c2GdPhIyyaX2UJYuKKN6iwUljxdIynn50IvO/XILfZ3PPPfdTkHM42cknkJ8+hOzUIYx8YSqO7ad4q8Gi+Zv4YUkFpcUmTswCNI7jgNJYlo3pqwQZ/VMeUHOkEX+1A9gIoTHMuDEJgKDbfnsy8PieSEdw/WUvsHfhmbRveSZ3XTuGyJYMAqQCmlhU89yzkzny0Ft5/ZWZcX+hqk7rIoXAFBALh1BKYVpWnYVmjz04gYN73MgxR97A2NFzkSRXb9NCoIVECUFySioZSS0IinSefGQM7dsN5IiDzmDj2mJOOL4fbdvkoqKSR4dP5IgDb2T8mNlILfn+21X88mMphpNE8aYiClvk8Y9BJ3LZBedy/jmnc8Ixh9G2ZQvsmOKJEaM5qf+9HNL7Rj766Dt8gWQQBmhX+wcDFpZP4S0B/uNokHUNNBIZ90mCckBqE6l9IGIM+Ucf+h/Xm62bo5QUVSGEJD0ji1FvjmP2jHm0brk7fp+PK6/8ByefeAypGQmLOpGCWqAVXHH1P7j40qGkpUu0jlE7SuiKq/9JZVkWI18aTUmJdB+3iFvx2l3fIzDYr9seHHzotxzVbyjHHH0MpaVbiTrl7LFXHnkFBlqUgpJceVV/Thl8FK3aJiGo4uTBB3D8wEPQWuBPTgKtsCOVKNwpUcex8QcEhiE4c+jpLP1GMWXql1SVh4hFwkjTJicnk8zUNPyWgd8nMAzQ6k+Ni282NHQJacMd9BlV5LYIEY1sZPHXW6kcUEhK5lZMaxXpWZqsXAMpDZSKgl7PrfccAvowhBHFkWtJzfbTOdOHxkEpVWs8BhJBamoUlRJCxOeqE8kPAIJJBqkZcPyJ+3LI4a0QRojE8m83blGDiGAlx7j21iMBhdZr3WlRHUTrcnd2XLihaYWt/BS2ilvSIgp6K1ZQICVo7aBQCJ+bZU4IA9MCR4HCpO0emXTumkZ+qw4ceHA2UvqJVqbx4fsTWL16I4WtLUxLYce0Z3n/QTQ+3axBaMWQQccydOhJvDjyDdrvfgj/Hf4iUgeQ2gJHom0NjgQlENpBEHOfZszvfpwgOJYb4Z1YlCUUWrjp/tzEBxZof51QsSXfz0fLVZw0pBudOu4Jqt67o/2gktwpTGWAk4RQqWgniFY+wEBoHyg3ZYx7fJ/7UYF4mJtEKbdfEMJAChMpLQQ+BAEMaSG04rNPpxCNlnDm2QPZc88Crrv8Edrln8yrL03mjDNO4OBD98LnDyGlV2jgj0LEwi9sPxmBstiwtpKvFy4mr0Uq3Xu0j89r114BCA1tpngnJra1OvDXRcsIIRpNbFBzzMSxfs33jVHbaV/TPq3regOE0CgHPv9sPuFKyX4H7ENei3SEYSNw4pHsnun9R7BjodRO3FDxgXBc/53+LfE8f0/qvwiJVZta29hODIGFIQ2E1GhdK2GDx+9mB8kItDs9iEDHtYFuJiuk6gqZJjHJgDawhFVrk6wVTOJpyj+CHQhlIshWuA/FA7DjwhmPGBLx7wDP7v5j2KGmdMeEtceOzYXa49JaU5xYuNHoKj629pxAfzS/O5dQ80E2v/dyJ7HrWywefzt+pVA2tqrQw+PPYceGDtA8K9DW7at1gyRg4L2kfw5e9+3R5PAMnWZNbc/BXzUjVVsPNt4De5rSo8nhCWWzZmfM1+/YPvG672ZP0xNMT1N6NDmasKbcGYPwnUVzutYd42nKZkM8yLqJddWN0YSFsjlpjOZ0rTumCXff0Lwe1p99rTsrmum3670mrCk9miueUHo0OZqQUHpdtYdLExpTNqeIm+Z0rb+dJqQpPTxcPKH0aHJ4QunR5PCE0qPJ4QmlR5PDE0qPJocnlB5NDk8oPZocnlB6NDl2IaGsP3XnJVD4u7ILCWWtyG1t4F6al57v70gTmvv+nehEoXjcvOZuFSk8Tfn34+8vlFq6FdN0kFg4h6rKKL5gBYGUKmrS+HnlRP5ONOi+NaDE/+9TN9uOQCGqtzloHHSjv99+amY3Ylpv6zzCPYeN5KEHn6dLp8G88r+ZaCcZgYEQhltc6lfh5ZpsCtTRlK6pYKGERosYQqUjdAqO7da/EWYJUpZhGH4MkQ1KokQRWoRRto9YzI+KBomEo1jBCqTfwjAyEUIQi4YRKhl0AGlVIY1ypKgCGQPtRxomOpaNHQni6FKkrwTpK4tny1U4dgBJOphb3IpTsRYI00SYW3DsCrR2KCqLUFrpEBGlRAnhE4mKjgaSLCSpRCJRbKccy+9gSICIW3MR8ASyadBAhShZiSMqKC2BO28dTXbqieSkHU962kAuvvgpVq8up6oymTtuGU1hwQk888xkDKMFP/9cySUXPkXbloN4/vnxGL4k7v/PGPoeeT3nnXsvvXpcRE7eAHLzj+Swgy7m/XGLsJ0gSlsoncztN44jNXkAWVlHUJBzEgd0uYAxb84FlUxVhZ9/3/42u7U5hWefmMldt4wnP/tE0gLH8fhD81ChfVj5o8WG9Tb+QDI/Livi86mr+WV5BeUVYcrL4bJLnycr7Vha5JxAm4KhdGg7jNFvTsN9Lz1hbEo00q8pKspsHn1oEk+OGM9FF57Lhk3f8eMP00i2WjLivxMpKiklNy8LqTN54elP+M/do3jw3gmMf2cm//rXOVxy2WkIAVKZzJ+zjLFj5pCekcGoUcPZsuVb+vYdyJOPjuWzjxaBTuGFZ8fz2mtTuOba81m+4lO+mP4O3fY7jGeemsjEiV9QXq4oKRJUFPl45L53eeOlTznjtJOZPv1lBg44mMsvvZ9e+5/B2HHTKA0pxoyZxQP3jOKHZZWkpBTyyINv89Wsr3n8yftZt2Exr73+LHltOnLdzSN5Z/S0OoVAPWt951O/ahLKCfDZR3P4eMpMzjv3dK649gRk8jzy0yU5rSTz5q1nw+blnHtRP0yZzqP/fYkH//MWfsPHNdecy1XXnUQgOYLSPqT2oTScMuQk7rjjDNruJYhEliHMYubOW8b8BavZu2Mb5i1YhVCptG0TILtgCzktUjnjrMMY/sAvLFpYTOd9Qtgqiq0lRSU2F18ymH9deSItWkpMy+a2u07l4kvOYcTjb/Pee+9z663nccm/TsIwSojZlYRCkuQ0RXarNTiB2Rx6bBrje99IuDJCZqYft+yzR1OhnqYUCB1k+dIIPy4tIykpibS0DITKoaokGxlLIj8zm4z0LPxJVZxz/jFccMHZJPkzuOSyC7j+pmEkJYcRVCG1g9Cwe9tUDu8bIH+3jUTVZoSMIgwVP7NgwfwlLPl2JeecdxyDTzsQLctQcg377t+GDh06ErMVkWgUR7tJ7zt13p2Dj2pBfrtyhK8cRYTCNiZdeySRn29hGQLDV4XSG3CcUqShOerYfUC04KJ/vsQbr83A0ZCSpchrJQimhF0LPl6FzGPn0+ApOI5CCLcq61NP/Y+2rY4gN3MguXnH8dWCbxl2/tEUtk7HUVE2bdrML6t+pqi8hK/mL+TrhYvQSiG0jRBhpI5RkJdLYX4LLBFEaB9CWICJVm5RslA0TCQawfRrpD+CIypwEIRCBqGIQim3lpcQbi2bQUOO48ijDkHIeI1wBULp6nLl0gAp3GM7AmKqkkOP2o/jTz4ApQNcedn/6Lz3Gbzw3MdUVQqEVAgjAjJETekRj51JAz9lIBDAsoKYZpArrzyP04ceR3HxFjKzU8jIgWBqCUkBk9KiIE8+PoYXXhpFMBlmzZ7J089a3Jp1KnvsnY7GRklF1LapCFURiSqkDCB1ANs22W33fDp2zMf0VxIMKoIBH4bhQymBT6awds0WNm/YxF4dCvD73eKk0grjSyrFsMJoreOFRrdjpCgDQRClLC69/B+cc84wxr37Cc8/9xr/vvV15s9cyHU3HM8+Xdu4L6JI+Ju2V3rP48/GuOPWQXcRryIrkGjlEI1uYfnylcycvpScrDSO7HcQyjF48N7XeOOVT2jbZh9GvT6TJ594hatuGMjb791Ch84ZvPfepzx033hW/riF9p3a8v3Sn5kw9ivmzFxBrDKH1ODePPno23z+0edcc80gBp+6H+33asP6NRU8NmIUyYG2dO58NC8+P5ebb32WgrYmw87tT05+GtO+WMQ3C1ZxxBHd6NWrLYaOIrQiUYTUkA6rf1nLkkWr6LVfP76a/hM/LNnCnJmLufSfD/HtvE3s23V3juzbi8P69GPNyiI+/WQO+3Tdky5d90QLV8C3K+QefwkNNKUmwsGHduV2mcTDw8dyxx0PctvtDyJN6Hlge66+7h8ovYXvvpvN0Ud3ZMCAriQFBaecMoCOe3Th5RfeonPnQnbboxUCg6OP7YM/yeGxJ57h3vufITkNbrvtNE47qwdSliM0XHpZXzZuLOeGm/7LTbc+hhaafboVMOz8k+i6f2scHaFFyySy88CfFK/7jXTL8gnlFlrC5owzjmLZ4k3cefe/SUuHO+68lIv+eSwpGWWMGD6VA7t/4IZpGBpfAO6462wGndIbRAi3kFW83/cEc6ciYqH/abRdE84glDv3oi2ETnLLESNxy79F0UQIh6N8/91G/H4fHTsXIowo0tDohObCRKsUht8/ll9WreOaGwaz2275SO0gpQMihjRs0FGUiiGEhSHymTf3Z5b/9AMdOu/OXh12J2jZCFXlhlWoZHBSQMYQIoTAiZejc2d1tIi47XTScGtJGm7NROlON2oVjJdjNlxnuYwgRBhEldtmIXDLL3rz5TubBppSaOF241ojRAhEuVvuTRvxnyuSgpruPQoQWGhtAxqhbMBCY+EaDDEEilBVMVWhtUiRhMRAJiJ3HEBYCEx3dtoup2vXdLp174VhBNHKBscGbSJkBCFLgbA7m4NOVDx263U7QbewqQyjjfL4bJTPnV5MFLkXjmvQCKgp76fcirzaAhQCXatarTem3Fk0EpAhACNetTURyCDjda/t+C+M+O/s+BhMAonKrg4IEMRQjs26NZVsWe8gu/iQMgZau90uAqFkXCdphOEgDNfSdlTYndZ0DxRvpuNqSV1TxNQNxNBoWVFdJ9HVdj40opYh5NZR1LUDM+JFaSXx69KJlnjCuLNpRCh1vKA68a4xPs9RXasJMp0AACAASURBVDO0XtfWoLqtqP6xkIqUZElKuoVhGTh2LN5N1jMntIgLg/4VIRGulhNauAIpVP2tiVbElaJCbDNxp4x/PEFsSjQYU9YRSkALjUbH5ey3GQFapYB0QFbENV/8pDouNLVkQSf642pxqnUu4ZAIPxPxF8MV7NrtjIu0TkQVJfZPjHMbIzF+9ISyKfGnxlMKEQIZxu32/b9yr8bKze1IaDzDZFfCTPj5qtH1gxJq/v+b/XhCgTIAo2YIQK2hQPWhEudLTDDV08haVG9rTGQb/qduu7c/fehpyaaGmbBCm8azqd+Fw7a0oPaU4y6LF4Hg0eRoOKasvdxAJJY16Bqb4/+tUWus8uqD6Pg7IRx3uYN2gy7q15QR1af31GNzoJFpxoQlDFqbKDuVDeuiLFmyhhYtTLp2y4hbvYlx6K8RlNrWtBE3lTUJ36MiRsyWrPgxxLpVNi3bZtK6bTI+v400wq4619ITyWZCI9a3ATjYdpRIyGLUG5/wyPB32LiplOtvPo6u3U747WfRAil9OI7AjppIkYIlU0FrtNyCsEqwLM34cZN46tEPEcDpQ4/l4n8dT+vd/LXW0Hg0B6Qb4JpwIsv4LAdYVpBx46by6IgXGTDwMJb8OIobbjqj1q6CGufztnWYO10n0LE8Pp2yhdMGPUSnPYaxZ+shDD7xVr6cth5tF+DYfm648RyWLh/LsHNP5Y1XP2HyxHkYRhIIs9a5vLnpXR0TZM3YLt4tC+3gaB/rNppYgTbs17M9OblRpKiKByzEo3PiARFoV2iEcOrNnrhBGlpInnrsHYY/MI5QtISWBWkIqZg9fw4XX7SKG24+mzOGdUMaVaSk2Vx46RC2bo2yYUMRG9aXkJNjYElqtRE8p/euSyOGTty4kBZIC4VEx410IWx3SSwCMN0gCMARsfgMTcMZHyFAa0Hn/bK49Noe9Dxwfw7s053UlBQmvj+Du+9+nRVr1hKJdiFoxs0ZIYjEBGvWF1NcGiI3LxO0U6d9nkDuujQ6o5N43LYtiMVXCAiRCMyWoAIoOxkhUpDSAF2JNMNI4aCVU8cZL4VEITm0bwcO6tcWpQ2UvYWYrTGkJMmSCCdCJBolmCTi+wiUEFSGwziOjWFIsL0sF82FRv2UWkB5RQUVZaUYOJjCQQoDTRClUolEUvlgwgIOO+QysjIGcs0VT7N2dRhIQeuapQRCJKJ8lLswy0kDOwsVbcHtN43m1JPvJSezAwP6H0dqarL7U+EACgkUby1l69ZSlONpxuZEHaHUCDD9KAKMfG4yzz85jh4HdKbXgfu4QRkaohEfjz08mUvOe4bKIotj+x7ON/PWcXzfm3h95OcI7eOLz2dwYv9beOyhyWjlCqlA8NOycs4761lyMwfx3xHvImQSgWAMZazHUSESARS5LZIoKEhizsylzJq+iljEB0Kjica7cS+b2q6MccdtJ93lBri6KOXjlRc/44lHxrJnu3acO2wgPXq1Q8gqHMdg4vuzGDnyfbJz87jt32dw/S2nkp2dw8K5y8nLy6bXgV1Z8s06pk5dSrvd29HnoA5IUxO1I/iDSUSqHHp234dLLjqN5CSDDz+cwRuvTUZqwT777oYvILAdh8LCPVi3voqXXx5LZmomB+zfBSHduMi6DnaPXY0GY8qtW8r5YclWNqy3OfXUg+k/8EBM/yYggh3N5PtvK1m6ZCPX3HgoRx/fESGLOPHUTgw+/SGUE0Y5pRx7fA969joAwwQhBWiF6XNIthRnDusbjx6PcWi/lvTsvSdPPPYB48cuYp99W3Dscd2RhqZTl3Yc0rsnM6bP5513PqJLpwyO6NcJnQjw9GRyl6VBlFB2VhInntyHH39cz5NPvErUWcdtd51ISoqfn1as4acf15OaYpKaXoUwi0A4RG2Bo31Yprs8QvhiZLeSruwh3SUHKBBRMEK40ekRgqmKw/vtzVczd+PdUR/x84qNCGFiiGSefHwkTz4+hoI8P1ddeTpH9D0AIbeASvgqPcNnV0UibBA27tIGG0OG6NOnkOdeuozzLh3IlA9XMPn9NSiVRChsUxGOkN86jda7tUBYAWxhEYpkMHHCeiZ/sIZQOJ2onYSDFf8EKClJ5ofFFut/ttAx6foytY9QZYA33/iYCZOncc7FgxlyxvHYWGzcGOH777bSbo9W3D/iQo4fshfILWgF7njSE8hdmYbWt7BBhsnKDpKbk4a2bZQGaZnkFwZp2TrIT8uLWPpdDB0pxFR78r9nZnHJecP57OOFlJeHkKQRq2hDqDgXO2Qx4/NFXHL+gxx28OU8NuJzija1ZOu6fP5z5wQeuPc9lGOz116pZGYH0EqjlYV2TFq1LKCwMBMhY9REkHtGzq5Oo1FCCgelHKQAy9RI4YDSZOVKjjxqT+bP3YP/PvAqU8Z+hiEtfli2igMP7MbJg48gv0UKIx56lYfvn8TlVw3m2puP5oTBvSkuMbj33v9x793P8eA9z2E7bnqV/fdrxTU3DeLo/j3jc9wyPkNkIIWNJWJuGhYvIKPZ0FAoq8PJXBcQQqC1g6MqMU2HY/vvz0GHdOXL6QuYPu0r7JjN1bcO5cijepGaFkTrUoaefQSpKTZ5eT4kBsou5czzOnD6+Q+wtaiIpd8vQ2Kw1x57k5WZhZQSQ7pBckpbGKaBtAR+YREMmBh4urE50UjomkQJECgsU6OcKKEKiYqlY5gxhFFBVrafE086kBMGHozWoAmhRRjtVCKlSUGLHC646ByUDgNREgu9DEeRn55Gfu+eaC3Ryj0PIr5YTflAJROuDBKuNCkoTCU9KQmUZ243J+qNKXWNgMgI7Tv5Sc8IM+qNz/h8Ugkq0sqdanQqcdQWHLEZhyIU8SwTuPJjOyG0LkUSQmIjiSF0BIiCjLhWeDzbhsL9v5AaU2azfFkFt95yF2MnvE1WboCklGS0Nv7yG+Ox8xCx8HMa7HgwuEYjqxfyo5IQ+Jkz80dGvzGdnr3bcfpZvWsES4t4domEwlXxgAknnlWj9ppqWbNUl1oJBRJbpck7r3/F9M+XM+i0ARxyZGeE2IqhHMCOp2XxaA6IWPg5LXQiL2MiyifeXWqTRKEkt8KCjRZRaqJ06i/y+s2nr97XtbpNtLTi+YJitZZBeDQntrHuO7Egx65Oh1IzqmuQg+J3UCvQQgikoRAy6ibKqknJ4dHM2EEygrqrrP9MEXEz9drxs3jp+JozOxDK+ilU/swQsvg41tOOzZ4G1SFcRL3v/gpB+TXZLDyaA54EeDQ5zJoVgh4eTQMT7S4Mq50K0BvXeexMPBXp0eTwhNKjyfH3L0Lv8Tuo7Q/+q4ZttfVg4xmWPU3p0eTwhLJZszOM2m3ln6/B676bPU1PMD1N6dHkMOM1kjyq+Svm+bd1Tv7i8zZNPE3ZbEhkX25aXXVjeGPKBuwMTfVXnHNnhQP+dr3naUqPJocnlB5NjmYulDtrnOUZM9ujmQulR1OkmRs6O2vw760/2h6epvRocnhC6dHk8ITSo8nhCaVHk8MTSo8mx9/E+t6eldycfH6J++DU+v+uhwkKLVQTjhRqmKGt7uad5QDfWehG/t61hNOsySOe4K/13dWpTvYn/H7XYtcUwvr8rceUzVMwd312ypjSHSoItDbQOChhI7VAim28I4nKusJwizsJkIaB0BrlqGbTcddl19WaO01TCq3BMRj7xnJeeHg1637KAJXSSJNqDBkhDV598UuO6nUfj//nS0o2/9Wt/isQ1KTSqT+Wjm8TdWuq72rsFKF0a4NL1q/ZzCeffcl9DzzIpMmTt5MBU6O1gx2NsXz5Wr77fiVbikuI2XYTNtD+BJxkiOWAnYFWFkqp6jH2rsRO05RaKRw7BsqhsLAFeXl5iO10RUIIEkNIISAvL5eMzIw/tk3beMCNjV3/svGsjtcV0ibvvDWTw/tcTp8DhjH9i68BI572e9eikZIl8czOjZDQSvW3Jx6mbESs3Lz7AlVLD2pAS40jIQzkt25DQctC9/4LIF7IKVGsVmvLPYZwx4+m5SOQFMQ0TbcWgGi8E9NaIRB10ne5FXClW2pF6HoOlvh1SFlHQKV0T6BqWf4ifq2NCbIW7m+FiDeuusvV1fdxWyIthIiX+0vcvZqPIJlQyIfpz8TnT8O0LJSKbbcH14l2/I0woZawobGVwbeL1jLu3c/oum9nBp54KLZTRiDgY93aYqZ9vpCK8iqOOKofHToV4qjVKB2lqtxi2seLGP/eNMpKFDl5AU4a3IejjumFMKI4QCycxrRPf+C9d8cTCpfTqUNvthT5sAICK7WcTz79gU8/+oajjj6Aw4/shpQWK34o4+eVq9mzYy6FbdKwpcKRAmUoHEMRiVYhZQ4zPlnHxA8+IxwpY7/99uWo/vtT2LYKKWIIgiQerK6uWpFCOARvvv4hs2ctISPL4OTBA9i/xx4YspyPJy1j8YLN9D++N/t0z0BIPyIa4N+3P0b3/fpwwqDujBr9Nm++9iEX/etCDOkwe/oiNqwrIzs/wKlDD6ZDl3zQJqaRjDRa8t7bU3l//HtUlUmOO6EXA07uQUaWRtkCoXJ45+1JdOnSkfbtOzDqrYm88r/xZGZLbr37Ejp36MzW4hBV0TD5WUH8gWyEmYm2NyENC7sqmZEjn2fWjKU40QCHHN6d40/sS16LIMIIVYv134F6mlJg+TJYvXYlEyctY/F3gjHv/MAnn3zGEUd2JikpwGcffcvm4ij9B67kttuG0LlrIaVlNg8/8D4jn/oInzQwpERph7Iyg9yCfLr1yEPoIK+8MolHHx7Lpg1hhBCMHf8z4ahiYP9DUCqV6dPm8dRjs8nObcehR4KUBtOmz2LkyPcYdv5ghp7Tt1ozKqnQUmOIQsa+8xUPPDiKVatWk5YCY979koce9nHfAxcx+NSeoMup7X8NVUVApXLNda/zzptfkuTzg6zijVfncfpZfTn/4uP49KMVjHr9C+Z/vYSrbxpA9+7dufX6p3lx5KfcfV8HikojhKpSWbfax+dTVrJ02QqmfzGfnOxMYnaUceNm8p9HLqDv0d2RhsnlF97Jm69MRwrw++GzL5Yydvzn3HLreXTt2hVT5vLJR+uJhgt5bMQjjB03g5RkECtg4ZwSnhnxFFMmLcSO+Ni4YSPH9b+Oglbw3xFXU1jQhuuuepjpXyzFMoJYhsXkSeN4/vkPefSZS+nVpxCJRGrzbyGWjQxINGiBow2mfjyTti07cPvN/2bevC2Mf38BV1x5CffefS2zp3/NlClfEbEFr77yBa/97yOOP64vk6e+wrKfPuXbJZ9SULAPE8d/T6gihW8XlPDx1NWUVcADj1zPlrLvuP66C7EMUFgoJxkcX9zmjHd5WhCJRrFEGimBNhgyFRDVfZ9SmsXfrGfUm7NQ0SpefPFmlq2YyoT3X2D3vbvz+qsLmT9nFRoTjeHWCNI+klNa8/KLU/ls8gzuvudiVm6cwE/rpnD60AGMG/MF82ev4j/D7+GEQQP48MOvmTW9lBuuGclLr37EdTddzqBTe2BaIXJzCkgJZvHCs2No27o1c+ZOYNmK2Xz2+VT22O0QRr25gOU/lvDfB8cw4YOFHD2gL5M/epnFSz/mqiuGMXd+KV/N3UpFqZ+yEj+hCsELz7zD9M+WMPyBq1i0+F2WrfiYoWcejymTiYUVJeFSWrTMZNCgg3nm2X/TvXs3Pv90AStWbOaGG//FosUTWLlxHBddPoDKSpvKSrfi29/JdVRHUwoBWlcgZDmpQYOzhh7LBVccQExt4ttlu5OR0YUh57QjWpXGz78MZv7cH1jyzVrCFX569OjJsEv606kXCGMZlhMkPTfC2NHTad+xA6tWrWXWjOlcfvWJnHpmSyrsqRzRP52v5nYhIzmd5OQAlt8hmCQwzHhxKGGADpCRlk9qaipgoZUPpTRocGImY0ZP5uPPv+Smm6/gmP6nEUgy2LBpLps3b6TH/l3Jyixwi1SJKgQ2QiWx7pcYs2avIzM3hzbtMojFyqmqDFFeFqGyMkrUKQf/d9w9/AQKClN48tF32LxlEw+O+BdDz+2FZQkMaWMlVxAyw/Q67EBO/+d+tO2yjqgqxUwDIxBiwtjZdO7akrmzf6RT+5Zcc0Nf9jtQoZy1XHrtKcxf8gsTJ31Cj17tCFhlVFaV8+33P/Hya3dz/Mkd0VSAKAEUI547g8ysDF56ZRKDTuvJRVccSEFBGk4sSqd9C8jISeGRR15ixfI1XHvjudxyx2XcdOeZSKscraN/sEzWFvLfvq67Zp/GjbQGho5SCq00IRvSc/No2aoFlSFNTm4e/oBBi4KWlJcY+JJ8FJdXUFJWScwWWGaQ5BQf0gyjRRUCtwCokBCJVFGyNUS0CiwZwDJTQdlIJwVD+zClBCVRjoFyDNcI0a5WQwdAyHiFM9BKopR2nejapCosMAU89sjjvPrKswQDiuKtNvvvvy9nnNmLVu0MtCxBEEEoA6GSWbFiNes2bObbb9dx3VWPYhhVbNlSARJuum0YJwzqjdIGhkzDsvwgNI4jsMNJODEfhlWGKQ0MaRGUkrPPOYcefQpwWIYQYMeCOLagVdt08gpScbSkZ+/eFLRqRdSOIbSDz+8jxWcRCyv32tAoR3P2mcfSuVM+SlW6ld1qGTFKRwAHKS3Ah+NYKA09++zF6PEXcdkFL/PGu+MYM24ct91xPuddcCJJARu0Xc+3+Xv5vY777XsMGrG+XRs0IAWB+DmTU1IIpKTgqCimaZCSkkxyUjLKsXGcGEproraD40gMmYJC4gg/mAZZLSxSskCYDqZlYDuCWFQSCOSy4scfWL58NbkHtsFRUcqqIlSGbZQTQNtJxByLimJNJFS3tJRt25SWlaKExAwECQT93HjjJRxyWDc2b1nHbm33ot3urVFyA0quR4gYqAAQLx5lxNBCcd0NwziqXyfWbVxMTnYe+3XrQWp6EFsVU15iMe7d6bw56gM67ZdH7kYft9/xIFn5dzLktF4oitECItptj2MbOCIJv5nD90vWsGljKScOOoKOndsw4b35bN5QSklRlKycJLQRwpTpIAO0aJlHSkYS+dkt8Kcm061HFwrbpCHMIjQxUGb1Y1KiEoihlYF2klGxZJSj0VqTnbEXo8c8zE8/refqyx/n4eEjmTJ5Kg89egnd9stHqygi3sP8Mfx50Vmy7uxB9WgOicQQYAgwMTGF4bp8tMQQFqY0MYSBgYVPSn5e/iPLvluHiuRjqFaUbgyyfl2MPgcfyrFHH0leVj5BK5Xy4jCxkCJaCUu/Xc3a1ZsRaIJ+P/vsvTetWrVk9ZoNbFxbzKL53zNz1iLWrd9CpLISE4fsFIHfEBjaxK6qIglFNAzlFVHat+/Ckf32paC1zYxpnzB/1jIiFQGEnc7KHypZv7YUUOy9x260LWjBO2+/TvHW9Zw65Hh6dO/G+jWb+HjSl6xZUcm6lRVMfG8aTmQzZ55+OPffdwFdu3fgpecnMG/6OoSdiuO4z2X48Lv5dOocfKINW9bDCy++y/c/LqZDh1bsuUcbcjIzmPLBZJYvW+72CDGb22+9mYlTprJP104U5OciieGgKCnZTDRSiRQCQ4CUickGxR6755OXm4zPMJHKR1FRKeEquPfOV3nthdls2LiZ3fZMZ+ykezngoAP4/MtVzP7qe6qqwtTUKWr6mOBas/HpZUzTwrFDhKuKkUSxAK0sLC1AKUxbUbK5mJKtRWjbxglvomfPVGZPDzL83y8w67PFZGZmMm3al6RnCgbd8g9MEebEE3qz4vtfmPD253z31ToqK8tZu+4XUvwmphaYhDmmf0fmz+nE689PZerYuURsRXFRKWlJAYqLSlA6TLcDsunYKZdlX29gwy+lnH3Ocfz0UxGP/udpvpm1lN3a7sW8ubP55ofvOefcfrRu1Y8l36zl/rvHkZ2Rww03DaZTtzT6HdOOb7/+mhH3T+aLiesIhULMmzeH9RtX8/Cj17Hw66VMnz6Lh/57FYMGHYI0JVeVbOGB+8dw2ilX8fATw0hND4LSrFy5kTtueoNXnp/J8uXf8+OKtVx11Sn0PbQLqX5N38P34puvlnPbFW/w/uvrycnPZMpnq+jVowU9Dsgj4AdbR0A6lFduJRoKIRw/wojVFLySEU45eSgfTfyZF54aTVWpzcw5X3PV1RewdEmEJx97hJdf2p0jDj8Cy/KzZvkmWufD7q0LCfrTkbpyJ01ISn7ruNN0fXZuHy8ECKIUFCTRvXshhYUWhlGGluWcePJuaMePACKRYpxICe1ap7N3pwL23nsvCvPa8cjwcXz88XiEgORkg/MuGMShh7bGEKXk5ktuv3sQ7Tv5ee3V9znggP255Y6rmThpJsUlP1FR9QN7du7CI09dxMWXHctPK1ZRUFBIxw4deGnk2ySngGk49D/6SDauCpGcnEa7vSSBlAAvvX45I5/J4NmnJ7Pgm0/pc9De3PGfqziwTyd8QUVBoY/9u7cgPzeP1rubaNYz9OzDOah3Nx68/39MnPoqySlw7vlDOGPYI2RmKWbPmU3XLlns1tbEIIR2whw3oBv9jjgQvz8PfJVMmToDreGpp+7CVut57fVR9D12f54bfBUd27cjkBRFiyoGDzmI1q2yuO/ud5k49RXCNtx025mce/7RZGS7hVhNn0O71ppOHfNIzwiCttGqdmFWUOYvXHXzYTzwwBremziK2+64gIOOyGPgkFsYP64zTz8xhsdHvoiKwkF9cnjxlbvo0q0QpUr5fV7KhFD9f6343yaYIhZ60S2tXPtbLUAbCBkfgxFzb4v2IYWF280bgELpMErbaGWB9iG0D+LbkFVIs6p6akZrGS80H4hb19HECRHCQUiBVsI1Ymq3SPvjx4vUBPyKGIgYQmg32sjxu8dGxI8dQwgbZHwmRVtuRV5h1+yjEjMu8a5COPH6kDGEDoIKxp+D21Z3hshAaQNbW3zy8WLuv3scF19yDqed3RklitwhjRJoRwE2oNA4cZEw4+6pAFqYaGGjdQyNjYgPjyQ2blXhWLzdJgmloVCoWtNqWoj4LJOIzx4F478HgeOOpYkh4kVpdo5QJoyaXy+U9QydeMCvtN2HgIFWPsB92O5sVdQtryxAKx/aSXLfaBEBEQZZCUIhhIHAROhA3HRSkKhOq2VcUOMN1gKt/PHjODRAVoKw4wJp1Iw1VADlmuSuMklYmMKJC1sAHOm2W8Rrkevk+HyygxAOGlUzXtcCjVtKGuGAUUF15Lvyuy+icAAHtEIqhYlCOg7S0a6TABtHO4jqaH6JqFMPPYoQDvHUoGj+r71zjbGruu74b+197mPm3hnbGT/ANo9AaAMhKUqgBloJhB1A2MTIjlMnLrJTFDtEpQ8RtUkUkXyAKGmrVDwqaJBiQlsXgxWiYFICiYAiBxsMSSw7JinYocQmthk/Zu6dO/ees/fqh3POvfO4M/aMPfVj7l+6mpl7HnufM2uvvfZa/7W2S96XQ1QRkp2DE3rfUNQJKMngtJp4K8QjUkGSQSiaalibvO9jlIimOJ74+nGXAkw2jVcL2p58J4mGESBC1aHaWBFi+qj/4zQAsomRCmI0IQzELB/Ux8Jhy4ObTbVRPe1hSHqDL8TfmX7AJivS5FJxaYC9IazxgeR3x+B9SMNGm+lpA69L6WJDA/wSJc+voIrVLG25TghyVCp5ojDA5tPBoYkXo5kkJK4ywkYnFASftJupa7uhMJhGnF+SvsYB+OQVpFkECmIQzcfKQnOJW6jJgD8F0WT6HpjzMpQQkI7sRpBfveJ9uj93gIgl1arGxOcpiqqP9/EeMxLtmWqPdEDUp/Gh6RzDHpHBjt4Tk/phrCOstlM61EY+nyVfLIGpJK0MpJ80uXbAZNosveNY6WiaeINVlUauUqIpk8BDKpSCQzg9hHJszHMBURn1hY94qSSEiCYvXKT59zFMohlPrTCZSo0gC1O6FMzBpHv2pPRFJA29Cim/T1SQuqlU5VR7f6Mh3jBUB9oMOmDqG6gtB4xgNQN8XlJ/KTEtLKrfyScD+GgiHJs/lhFfXF0LNL36aHcfcs6J4R+qy8Z9NhENH2Ci9erEttF6Nbjf4yHrJnoyvSF1U6vehkPIoD5CxJ82chlnMw6j1+sofw9HY+oZeq6MYFeNBxMXQRgX6v/8xBY8BSESJT9PckfGiDOPttzCaY8mNmU6rBKjWExj4lSN3XkjDr00SDlw+h8f6guA1Oc5qZJxJjeGa0pNBEp87FawGWqRpVQqELnCYE9JOoVJPw1HuEsM66Ot9BL70yT+TduLGMVoF/giKv1gegbct4XJgibTt4B6VCO8E0pH2ln/b29w3Z9+iW//4/ohBnxqZOfAdYLrRCgi5IHMkAXUEKiNU2rD6RB1getk16/7WLPqPj518908/6MDVHpmoD7P8bhuWjj9YO/66uKvg28QwySJMNDGCz/dwZrb72P79jJfu+tOPrX8KoKg3BCPJHzYe0R4/tmd/HZXNzNndmGtYC2MxuEzUmDtw8+w8tPf5MA+w2WXfZAZM2Zw1ZXX0NExi3v/eQObNv2CD158DjNmFji65m3hTMEwVaYIXgxOLa//fD99h3PctupGFtzURXvxUHKcxgfhqY3P8ZWv3M+G9Zv5/d7eOBtwSFRGUbwongDv21m/fiMPPPgD3tpTo68/SxhlMPlu3jf3t9z8yUu5+k8uY/PmV3jttW31LMIWJgeCekRkgD8xdrpm8WGAiyrY4ACefYTOIXQANZAkXIflSG/A4SNttBWnUOjM4fBYUnenR0Xj9FgB9QV27zrC00//L4ffKzBn+jSKxQLZfCYhK4C3FSRf42Cvpbuksel6+rjZWjhODKu6pknkxWNxWCLv8eoRDEgvakO8xiwhSVy31aif3qiHTLFIW7ETR098hwEhQBXF+SyBncZj63/Cc8+9zrIlt9B9oEzooiRCrWAEbEioVaqhw7uWlpxsGHEl4pzD4AiMx7vUnoszHXFFQTKeZwAABzdJREFUan3T6OkuEvZNRbQDdWBFsMYkEZ7Bei2QIhkzi5f/eydbNm3jc2uWsXT5PEq136MSYQa4fKy15HM5RAIqlSq1avWMLE/SQnOMGPves2cvb+5+hyAfJ4R57xBTAD+VJx9/kXvufoy33jpM1hLLamQSzRhTyjC1uAKFxlSzqGrp7VF+tPFVzpl9IUuXLORI6W2scXR2dpLPtwMxe8hY5dzzZjP7rFn09VWpVEJyndmYCHIa0fpbGB+GaErB1TrY8OjbLF/0EK+/vIO/vXMRi5ddjTGCuCLr1v6Mb379h8yZPofvb7iH3+15jr+849MYLILD+ZA3du5m1Yr7WLXiX9mxfR/eTeVX2yp87rb7ePYnW7jhlgu54EOC2jIRVWzOkckFQIY4iF7hz26dx59/dgH/8Z1t/MNdr7N/z/swMiX2DBgfs+RPt/hZC8eEYZqyu7ubV7f+nP95azd/9Tcr+eTSJYS1d4l8iIZd7NrVz87de1l66wJuuPnDVKuHaC96rLUYCQDHxR86hwce+gK1sEI+3857+/pZu3Yjz/zXi3z5rpXcuPBKnK9RLoWUSzWimlDuyWJtlnyxhhjI59v4/JrPs3d3nrWPPMKFl7Sx+vZrT6nwdwsTg2E25Vlzp3DdTXP5yMc6ePCB7/G1r95PpS/CWMv27W+yY9tvmPfRi/ijD8+kUt1HnCYgOO/iCJBk8D6iY4qla0aOfJuw5ZVX2PLKVlav/gyrb/sMRB0YdzYH3g14d0+V++9dxxUfXcyjj34fRQlDz953qnz5777Ffz72EHf+/UKWL78C73rj4k+j1UBv4bTHoAJXIuC1xscXXkXVwT/d8ySbt+xg06bLuGHRRYRuH5EL+cAfnMfFl15EW6E9ztEWS40QJ4IxWZReXJRDcXgNyQSWtiBg3SMb+N7aJ+gPw7oXM4Nh+gwlW1CCfIiaCt5l2PD4U/z4xy+yYuU1rFh1OcXO1AVlBtHEWjjzMHyho7Gje/78+WzdUuXxx55l7559VMO5FKdmmNKV5Xd73+aNnW8yd+6VZHNFak7wCtYEiIlXPupzqChImWuvu5pKxfLE40/hvWfB9R9nwfXzeeH5Ldz77XXcuvIW1tx+E8YeQLUMati/v5uDBw9y1lmz6OqaThzRaQniZMAgoazXbFQll8sxtSNPZ1uGTDaDqnLe+6cx9/xpPP30C/zmV4f5xKIP8OJLL/Hq5tfIZ8AaQIVyr+HJJ56lUMhyy7I/xmb7WLTkUhYuuSRuB8hmBbPpELWoB2Ms+TaDT+PhGmCMwVohCCzWWFphxsmDpi4hYwxBJguSIXKCNRZrLR3FgG/cvZplNy/mwX9Zx0f+8CrOv+Ac2oIcnZ0FekqHqVVLdE7ppK8n4r39hyiX+pkyNR8Xz4qDjXE6V9TDrFl5zp07nUqpTLn3EIUOB2SwNks2kyFjLbbOaG9hsmAEP6UnDPuohRWqNU+tmsE7Q41ujK9xyccM9393GegK1OcRAqx1ZCyIVbxGfOGL1+JcBBpHfiTxYdaZlhIx//rLWXDjFaAR6krgMxgVrCmSzxSZPaeDrulJzncLkwZDVt8NYq7Sz/nvt0i2hx/88CW2bT2C1M7GeINVh/Ua/6Qfo2UMIUpILSxRq/XifI2YWxlPu2mZZyPJBxAfoT4iMAGZjGCMAV/gp8/8mmc2bufss+dwwQWzMaalKScTmpB8Y1KE2BKLl87jjjtuYvsvtjL/mr/mW9/4dxqMdA8SIqaK2H68lnG+j5Q50ciwaw6hcdxFEd45Xv7ZL/nEwi+xaPEXOdh7gFV/cSOXz7u45SSfZJCw/2GNy4Sk06qN7T9xcWK8b6da7uDdd/rJtB1i9rkjT6ViGrng8f18khyZxMPRhv9Jk6SyelGACKtzKXXPBKlQmNaPSi9KGaNx+ZPW6ntyQML+h+NiBPVMzSSvW9IsvYaWEjUJr/dotWUSoVRNhDIVPh12VlrxrZ4qitSrQIikucunWCZjCxOKYQudelJs01SGoaTG0YVF6jLb/Jx6xZS6cCfJYppe1hLGyYgxVchIy66c+A2FWoLXQgNjEsqjLzgaU3ALLYwXY9zFtiVsLUw8TsrWyi1MJozd1GsJZQsTjNGicc3LTg+qed4cY10BD6/W1hxDjw9sZ3ihrBNjOozW5kTiZLR7qjzraELZ/NgJ1pStShYtHD9aVddaOOUwjtX3aJpwIqaIgZXc/r/aTNudqGcd74wykVPwaH06HpbWhCx0xmKbpAJ0LOeO1s7YC7eeeExkm0d7h4xyfKIwUc87noXOmHEy7MbR2jxTNeVInIIzTVMOPx645Lt01w4Z8VRQTFolqPlR9ajEtYPqEKjvnTNoGm68BEER9XUi8GDEe9uM1q7KyFsDiA686ti1vkkL2Y8ALzr4OQf1eOhdj30g17ckaX502J0HtTLCswqKSrqTbZPrVWJG2AgC5GXkdge3yYj3GAv+DxkpiecZz/mkAAAAAElFTkSuQmCC;" parent="1" vertex="1">
                    <mxGeometry x="230.5" y="530" width="165" height="213" as="geometry"/>
                </mxCell>
                <mxCell id="14" value="" style="shape=image;verticalLabelPosition=bottom;labelBackgroundColor=default;verticalAlign=top;aspect=fixed;imageAspect=0;image=data:image/png,iVBORw0KGgoAAAANSUhEUgAAAKkAAADiCAYAAAA1SueAAAAgAElEQVR4nOydZ5gU1dKA3zrdPWEzyy45mEVRRBHBHDCiGEC9KgbUa845XXP4xIQ56zUriBK8YhYVBRREUUFQEQXJaZfdndh9zveje3aXjAsiQr888yw709tzZrq6TlWdOlWySZs2xhgbIwpBI8YgBkBjxKCN/xPACLWIAWMMIRsTAsb2fy7zkgF08FibcqGwMQLiYUT75xYdSKAEwxKUAVUrvHVoA4SCunGxwuttAkHNPdbaG2JrofbERnLvI7UHIJrTzujCBRfvjue6KBHEKJRxMEaBgIhGlEHEYAwYLWt5oCHrBwLGYbmaFA3i+T/XKgq79u0DmVpSRgUxAno+lhpDJFaBhQKj0FpRWVFDRUUVWmuUguKSfIqK44i9tlV+yPrBSqZ7tD8L/5VCumIsRFLYUo3tgQ0Yo9EelOcX07R4U0QVk6ypwM3Ox3FTKCsJ4hIK6obGyoTU/PWadPlvanyBxAYVRZMiqw0GwWCjsBEshChCNPgAGiQNkmUZIzbkn40RIAqoFRyg69mla+s9wV7eCX2vXWNwMVpjpBpt1eB6vvcPglgu2suA8YhYMYwFdtzFisTwPBfwQkW6QbISIVyeggXqnJ0Vva4CU2F5rFSTKgw2Hi4ecTzJQ6uMPw5jcMRgdJJkairp1CxAY9sunnZBMsGbhlIawoqFt/b1lZgIolc+3RujAYV45diZztgoLMtX9WJAIkBE/Ok/iJP5TteqRhUSsvqsUEiNEd/mFI2l4jiqERYGFQigkaWC+0v9DAlZW6zcuzcCBpQoRCyMcfHqT+HhbB6yDliRmxYSst6wloVUglOGk37I2mOJ6T6XMCLiL2saDErEXwoVQeoLnzH1ZnvxHyb4WRsvWxH1ll1DQlZBON2HrPeEQhqy3rMaa/erIjfF15Fbr/LNBv8ZMabeUYq6+yOc8kNWzhKatE6oVoUAlp+2ZaylXjNoY/Ps0x/TpdO5PPXEO1jKCvJUc6tQQWqgcfE8hSHmp/qZcCk1ZFkaON1rUFlQCVApJCd8ksVIGksVkqgq4bdfhXmz83C9fEyQ4pfTvMYIxovzUL+3ueayF5n+axbRcSS0QEKWooESIX6GtmQQZfhh/AyGDf6eP37PoohhSKMsjW3ZKFtj2Zq6Kd4XVkFYsGAh039fxJOPfUz/V0cE517bqV4h/3QaJKQG0GKhySdj8hjy4Y/0POkRbr/3XWbNN3gmRl5eEwoKyjEotPFT+7TOR4ugrTRaPErK4tz90JnMqnyB8y7bA20l0GJhJEYq65DKRMEqpiZtqEqm8FCYJezf3L6a0EbYkGmw42SMjdYx0p5DMuUADmXlLSkpbYUmi4eQ1UI26zB3ZhGpmkJKS+LE8jMopxpRCZTtor0oynIQlcIzWWynBGU1oWJhmnFjJ+A4Du3abUF+oUc2W4ltJ7DEDZcLNiIaLKRu1mb8uFmM+vIXvhr5E5YV4YsRE7j+qgr22bcjRmswWb4cNYHvvp7Il6O+JpuFPXfflauvO4VOuzYlkZrL7bc8QyRSyJVXH0gsEqWmIsJddzxJv4dfxbINMRvSSejWbVcuvqInnXZpjOW4a/M7CFnPabCXEo3mM+qLn7j1hicZ+dk4XLeGX6Z8xZSpY4AE2nhktMeIL8YRiXoM+d/d/OfG3oweO4ohQz9lcUWaVMLDS2tEC8azwdi8O+wz3ntnNPvuvitDBt/J5KkDuOra3nw2+hs+/vTbpYa8bPgrZMOjQZpUAGPmcf5lO3LupS9w793v8tyzH3LZlcdx0sm7YNuKJx8bjQ20buVw0OFt2KFzMWXNOzBx0m/8PGkOU6csZKv2BdhOFMuysO0YhiyGJFoSLFg4nwXzq3GiHhdf040Lr9obS6JYknPC6tujoaBuyKxxvEcZsAzYCLYoLBEsQDCAx/G9e3FS7+OwgYKCPPIL85k9ezYzZ8wkm3ExGixLYVk2ShQ9jz6Ym26+BLEsTux9G0d2v45P3v8VnWmEsgxipYBge0roMG0UrLWgpBLBUgoldVOwRqPsLI6T9WsK5BJVgoc2foUUADfr4nkuRlVxwKFbM/Tth7j91gv45ZdFHHPUbZzW+x7GjpyDl42srSGH/ENYAyH1hVGUoMRPjFbKwoig0RAEjJRkgUzt7CxGB1lVgHExxkPQRCIW0UiEoUMG8857r1HQaD4XXnEIwz95jGP/dRCDh33J+x9MwcsU+eEs8fcJhKmBGz4NF1IjCAqFxhLNtN9n8t0307m37zAeenAoWhuMJ2SSUZLpKJ4S3IyFZCNElOWbBWKw0KQSNdTULGb+fPjyc4/Ter/GeWc/ync/TCCRXoyoIIVQ+cupt974Js1Kz+bBfp/juXnUpQmGq1UbImuQYBJM66I55rhuzJ2T5qWXBpFfEOPiK45mu+224Mij9qDtJo2wLBCjiDiK0lKb3ffahh07bUlJI9ip0yYosSksjCPEOfOsEyksLKP/gMEMfOUzDNCoUTFXXnoKfU7tTizPJh6Lo0Xx1H9fpnXbDEcd1S3IdQ016oaItGnTZgnvwxg/e8kYv66TYDj7rD246sr9EVMXn/R1mhOstSvcVAQxeTh2DI9KxBGEOG62Ei3VKHFQEsV4UTwPrEgVYqVxMxHcLFi2xrIcjMRQdhwvGyWdUrguRCMOkXgGQwW2eKRryrnhPy/zy5QRXHvjUXTuvDXG00EtLW+dfoEhfz0N1qQCftaSuP7e6FgKrSvRCJYA2neIHBs8o/0iEyYDshg7AqDBMzi2JmJbgYC5GJXEmIWgNJG4Iecmae3nC3jG8Pxzr/HOsPc569zu7NRxq0BA/yrhzN3DoZb+u1izfNLcpn6TSzgRdHAtl6irZ+p+ExU4TYH9aIzB1Nd+GjAGa5nwkkGwsZwIfU47glP6HIET0b7zpQUkFzsNw1IbGmsh6TkgCCsBtQLrB/39/68d2XExRhONZ/3ivtrGaAViLbn/KmSDYu0J6SpY/YTqen/jFz9d4jljBLARHQsWmzJ/gYDmNL9GMEHmVXgT/F0sV0hrd436v2C0Cabl+tWe60+tQamd+i/Vw1ekOvi/LPXa0kKY23ayrFDUPmOUL5y1T6wsB3VFArYy0yD3vMLULrvmBLdOgJd//lUJdGiS/FlWrUlNIKDGLFWKeskve+mvfmnt1jBNyjKadBWDpf6N85dpP9HBdxFq13VBGP0OWe9ZCzbpugjRNFRDrp2xianXtCCo0mYg0KhQd6/75dvrF3LLjVyZwFAIle+fZqVCuuoWOKb2p6ggGG8stOut/Yq/q8VSAlwrRLCsQbIyAa7vOIHvqAnib9T2rdH63VpyhYWDU4oBsUHjYsiAdjAmCuK3G6p9ZxMaDKvDKjSpWYWgCiIKY4RsGr79ZgpvDx1Jxx3bctTRe6yVAfoRLOMvGhibulzSVf5lvcO8JZ9fpTau237tH+0Lp+8BBrXhxasrK1R7QwaCaiL0f+VdvvvuV448+hA67LQJlkohpn69gZDVZYXfWG5ZdMX4CR1GR8im4zz2wAf07H4XD933OT9OXLR2RieCskDEQbt5uK5Bm9XdOlLnkRuvkJpF5aSqSsHEVv/9jQJjI04exs5HUwSqDDGNUZQiUsCSjQ78HFqMxVefz+fxB8dxwD6388D9I1i4OIYrzlIbCUNWhxUKqeTS6XKV8szSDz/sJJbN6wPe5blnhnDB+Wcxb8EXXHd9H5bYwtyACyP4q1OeF+WWG9/igL1v4N1hE9He8vJJl1fNz39OxOaeu55n262P4dyz72HChKmBflyFNs4JqIkzdVI1Jx/7COUlx1OcfzS7dTmbd/43nmy6AIMVWAYRtLYxEkXsGPc+eAmzFw7jlJMPo1/fV3nv7YkYLx8xueZtuQhIKLSrYhVzjyBYQVGHuodBoUXhieAKzJ4DIq1pu3kJEp+KJ5Vo46BNBG1stCiMErRotGjMMrZhLgfABWUwysJICT9OTHFS78fp2/ctrFgJeY1KkIhaVryMBGOEXOtAMf50rRGatW5FabNyovl5OPEitMTQYvsLA/UKVtQJjICJQLYFzzwyniMOuYUOHbZj6szBzF38BrvttROnn343Dz/6FhXVCbJoiJQx9K1f+OKzDGNGpxj+yffMmjuDfQ/egs03b8Ef0xJULgawfVvU5D57GDNdFWtkIOUC70r5pXa056G9pRM9FBgHMREUcYQYIg4iqi5LX9XP2AclEcQ05vVXv+XtoV+hBbbcZhs222yz2kz+1R6j1jRr2pSysjJELDB5oItwMxG8VVgO1dXVfPPNRH7/Yw7FZYZY0RwkOo2b7jiDI3sewuRJM5k1cxHGGNx0isO6H8CYUT/x6ovv0aikhOatYlQsnsPixVWkEklcN9yK3RDWOASVTCapTtRQ25MUwRgLCOo/YSFEMDrit3nEQyQJkgYCJwRdqwnTmQwAb7w2mHf+9z4nHH84sxctplHjYhqVFqKk8k8qH8GybTQKZRdjq6ZULirEsjPkFaTx0H4CtwQOkJFgzIIdTdOoLMtFl+3HQYdu7Zdlp5SCgnLsSBTLs4hFC7BUHDy/zcvF116Fslxc73NcayJGfPs8k/HIZl08o/0ssZDVpuGaVLmI8pj1Rw0zplURz4fishhOLO57/LqIBbPLGfzabE7s9Qhbtz2Now+7lzEjEwhNcT1Ba1CUoNMt8LJFGMCx8vj+26kMHfo5e+3fgZLGGcaOHEnjRjaFxU5gJ+slH0sUQ1sSEd9oidg2v/40n3/3uYPNNzuM8qa9Oef09/l9UnPQzfCMhzY2SspRKh8jhki+y019e3P9bf+iRasitGdhvDj39n2INwcPo2mLFjRu3ATLigazgaFm4S+kk5WgyyG9Ge226kTzluXMnr2ARQszeNoJRr10NZaQFdFgIfWyMdLV5bw7dALv/u8zdtu1A7t23RbjJkgms7z7zlhOOuFqzjjzSsb9MJqOu7RiTsUcTupzKU8/PhTt5WNZMZ585A127nAMTz06xLd/rQQ77dKGJ/97CdfccBx2NIanoxTkx9A6+6ene4Cs55LKpPl81Od8O/EbTurTnRuuO4lxX4/iiadfZt6CNLF4a+75v6F0bHcir738PrU2qhHfgzc26aTFrD+q+O6bhVhujLZtSojHY37NAATERZsM6eoKspkUGk37Dq1p1aYxAwa8y1dfzEC7RRixgtTCUEhXh4ZP914eD983jNvveJ7uBx/AKacdTWkT8LwExmvEmFEzGDPuBy67phdXXtsby4rw0Xtfcdftr/DdtzOZOyNLy7YeBYUOlp1HKpNLQLFApSgssfHcPCwxlDYqoqCw0I/Z6rqY5OqSSCSoSaXBgWtvOp4zz+1G1CqmYlElr740hO22b0Pv07riSRWuSqKpZ6yKn7OgvRhkG9P31kcZ9MYI7u53JUef0AXLqsEYuzavIT8vHxVrhEcabWzsiObSK3sxb3aKSy66jYLiq/hX7x0wbhUrt1vqh7U2bhospLYDpWVRSotjjP92FKO+LKN9p4OxIxFipLjqxkO44j89mTOrkueeGM5HH33Cd+MnsWAuVM7zGD1qM45svQ29jtuTY084AFEZP7tex9EaRGkwMVw3iuPEsJRCu+6fsuckSGXF83DQHNuzGwcfvBPR+CKMmyG/wKAxLK6uIZ3OcsllJ3H1NaeglEHrXK1UQRvFoDff4qF+7+Imyxj45t3s32MTXKZjvAjoAgSHujCYYNkOaBslMUYMH8HPP/1KLAZupgo3ncZauqxryApZtZDW62WP5KwowZgUp52zG8aez803vcmgwVPo0GEuu+zeBM9kGTN2Ivff9T8+Hf4tbdu2Zt999ma/i07k889GMW7MCKqTCxA7jSGFrr82ThYQ39xUi8BeDMpDSQZlsv52aJwlgzeiwWgEFcQec6s/wY5Wo0BDxIGIbVC6ACOK6kQN6ZTgRCKIrbBsv5+qJwajXIxROFLOz5MX0v+VqWTSZdx4y4Xs0a0NGXchxhRgYRBJYzmFzJtTw503PsWiRRVcdNVxbNuhEb/+/BvDhn3Pgvk1PPb4rRx19LaIWrAalybUoDlWuSy6hHOCrtUuSAaUcHzvnsydEWPQwA/59bfp7LJXGyaMn8GDD7zPmG9+5Na7z+D0sw/HmCxVFYpJU74hMSrtr4pLBGNy+/TTgOWLmVGgfC1oW2BZfhcU2wqE0FAr1AbxQ1z4kYO6JdD6YmzIGEhkkrhuFsFGkY/RMeyokF/g4ERcNBkQB609f41dxxg56kduvPE15kxPcOstF3DQYTtg1GI8t9g/s1TjmQQ11bNJViuuvPosMDHiBQlSNfMZO+Z7pk+bwWmn96Hr7u0xqhpRXt0QQ1ZJAx0nU2urxeJCJObXINXaxXPTaM/CEUVxYRQn6gHVKJVhwID+DHxjELmro1Qei+ZpJv+wiAVzPURy3XpNvalWqK5JUlNTg+fVc5qMUF1pmPzDYn6etJCaRFVdWGsp8gvyyYvHGfDqSF594Vsq5jThp+81M6dX0qvX/nTdfQtEpZk7K8PE8QtZNN+AV8SUSYt59P63+fqLiUQjLrfeegfNy/ahcf7hNC0+msaFR/PMkx9jdAGZRCHzZmkWLJqLHa8gVpAilmf8WgHa4DgudjSBqGzDvvKNmDUI5nuAi4jBsgNnFQCh445bcFiPXVCecMV5T7FVixPZuuWJ3HTZQNLzS4hRCBiyGcMTj7/Dfntdx0vPjwzilbo2sK9EsAWyqSRaa2zHWSLh5YG7hrJH56s4aL8rGTRgDIr82teMCEYUWoT8gkKK85oQk3wevmcgW7c9kn13P4k5MxZyeI/9adumDJ1R3N/3bfbtehVDBo5GGcWP30/j958rsbw8Fs1dSItmTfhXzyM474xT+fcpx3P4QXvTtlVT3KzmoX4DOPLwa9hzrzP4YPhHOLEaRKVyi7PEYw5KpdE60/CvfCOlwVX1wKBQQUwUtAfK2CgTAcly9L9245BDd2XBvAwVCxOIKIpLSun/ymBGfz6W1i03IxqJcNFF/+KoIw6isCTnsedKlgtGw4WX/Iuzz+1NUbHCmCz1s6AuvOR0ahaX8vSzA6ioUP5EH+xgFeNnLQkWHTtuzp57NeGAA3pz0EEHUVm5gIxbxeZbNaFJcwskhdZxLrz4UI7ptT+t2uYhJDiq1870OGxPjBGi+XlgNG66xvf+xa9dFY3ZWApOPPkwJk2o5N33vyBRaZNNFoAtNC5rSnFBARHbIh6LYNseRnthmt6foOEhKGP5RqOVoLxZkkx6DhO+XUBN9xYUNFqA7UyjuNRQWm6hlOVrEDOL627dE8zeiJXBUzMobBylfaMIBg+tNRiH3OVTCIWFGXRBEhEdFKuoS3eL51kUlkCPI3Zgz31aIVaS3PZ7P2/TgKSJFCS59D/7+ZvqzAyUWEAcY6owxs8ZFUto2cqhZSvHP4FkwCzAiQtKgTEeGo1E/CqCIha240fEjLZpu3kj2ncoomnLDnTdsynKipKuacx7b73GjD9m0bKNg+14uFkdevZ/klUmmPie/ArySg2I0Rzd82B69z6SZ55+ma0325P7+j6DMjGUccBTGNf4y4ZaEOMhZMHTkI36Dy8OnuNnwOecNdEY8cs7+oUoHDDRJVLjJv74NUZN48ijO7LtNluAXuqeM1HQeX42kxbwouAVYLwIRlv4t4GNEEGIABE/scREQMeCtD6F1v68IWKhxEYpJ/ibGAoHMTB8+NtksnM48eSD2WKzplx+/v+xabODefG/H3BC757svucW2HYCtdJ2liHLQ1q3br3cb80Eu0QxHmeduQdXXXUAIl5tv/tljtcOs2fU8O03E2jSrJBOnbcO1uXr77CEZe6L3H6KXKGJZdLXVi9TKFcaaEXUC575eQIiEKzb1/5/pe9TfxGhbnx15Yj8hGwjGm00nw4fQ7JG2LHTjjRtVoiyMgguErr0fxp7RRfW//L9rRE5TbrSjZuSollLm0NadQbxEMkGCSX10t/8My/1d0u/f8PS11a11WUJ4ZB6UYLV1mwrzv30vxd/lcpvGAz77dcR18siaCypDkyN3A0R8mews9kVh0T8aXb1tmqI5Oo7e3UXZCNgya3adYseGAtHnHovqXrJMaE2/TPYWq84YUPlLoAISilWXIShLnlYQpsrwA2E1U9OoZ62Df36P8dq7xatrSqyfAs2mELr254bC/XNmHpLssFavkEHtnm4VaSh2CutLJIrtxNkzK/WzL/Roza++/QvJtxfG7Les4rpHsCw6u3NOeq2EYfqJGRtsRwhDUJPtbmRJvcsGMPyyyzmntsYOywveTMuGQqrrVWyzkazIbJiTRpoT2MMWptQMYb8bayzIroh/2TqRybWlSmnlvO/ejSklmhIyF9F6N2HrAZ/hyNc598sf7oXWHvNGEI2DP4+QV1JwbIwFyJk/WA5mtQviGCMwbYtLOVgO7a/6rReJo38HUb938XG9FnrCG3SkKXI7RD++2zQpdkAhHTj0Sgb12etYwOJk25MF++v/qx/V7bWivXlMkK66mYOISHrlhWm6uXyR0OZDfm7saPR6BJPLKFJl+mCtz6wMSVtbEyfdcUsxyZViBiM8dZPGd2oLtjG9FlXzAbg3Yds6IRCGrLeEwppyHqPvaSc5lYbcoXDNqb4Y8j6SqhJQ9Z7QiENWe8JhTRkvcde1Q7PMFIX8ncTatKQ9Z6NUEiXjlgsrw15yPrERiik9TLbjV/tOSzHuH6zgeST/gmMAoKi9ZIh6GpGqEnXXzYeITXK7+hn4mRTZSRqMkTi1cQKEtSVbfRWcZKQv4MGT/cG0NKwx5LVkgSN1L7mYfAwyz1+5UUrgvzXFb2P+O/horj7rifZbttePP/fkRgvH8FCxPKbna0WYa3RdckqNenyLDXf9XDQYjCSRXQxYgrwXL//ktgVKLUYy4piSWPQCi0LMZJCuxGy2Sg6EyedyuDEq1FRB8tqhIiQzaQQnQ8mhnISKKsKJQlQWTBRlGVjso1x03E8U4mKVKAii4NqyhrPjaEoBnu+3wEt2wyxbcSej+dWY4zHwsVpKms80lJJhiQRyXUktVCUoigknc7gelU4UQ9LAaRBcqXbQwFdlzRYk2pVgyfVVFbAjdcNoHHhEZQV9aC46DDOPvsRpk+vIlGTzw3XDqBF88N57LF3sKxm/PZbDeec+QhtW/bkySeHYEXyuOP/BtJtvys47dTb6NL5LMqadKe86X7svfvZvDV4PK4XRxsHbfK5/qrBFOZ3p7R0X5qXHcnO253BwFfGgM4nUR3l5utfY9M2x/D4QyO56dohNG18BEWxQ3nw7rHo5PZM/dlh9iyXaCyfnycv5JP3p/P7L9VUVaeoqoLzzn2S0qKDaVZ2OG2a96Zd2z4MeOUz/Ps5FM6/gzXw7jXVi13uv3sYD/cbwllnnsrsuT/w80+fke+0pN99b7OwopLyJqUo04inHv2I/7ulP3fdNpQhr4/k/PNP4ZzzjkMElLb5+svJDBr4JcUlJfTv35f587+nW7fDePj+QQz/YDyYAp56fAgvvvgul172b36Z8jGfjnidjjvuzWOPvM3bb39KVZWmYqFQvTDCvbe/wcvPfswJxx3FiBHPcVj3Pbjg3DvostMJDBr8GZVJzcCBo7jz1v78NLmGgoIW3HvXa3w16lsefPgOZs6ewIsvPU6TNttw+TVP8/qAz+o1QgsTb9YlDXScDNqLMfyDL/nw3ZGcdurxXHjZ4aj8sTQtVpS1UowdO4vZ837h1LMOwFbF3H/fs9z1f68StSJceumpXHz5kcTy02gTQZkI2sAxRx/JDTecQNsthXR6MmIvYszYyXw9bjpbbdOGseOmIbqQtm1iNG4+n7JmhZxw0t70vfN3xn+ziPbbJ3F1BtcoFla4nH1OL86/6AiatVTYjst/bjqWs885hX4Pvsabb77FddedxjnnH4llVZB1a0gmFflFmsat/sCLjWavg4sYsutVpGrSNGoUxW9zHrKuaaAmFcTE+WVSmp8nLSYvL4+iohJEl5GoaIzK5tG0UWNKikuJ5iU45d8HccYZJ5MXLeGc887giqv7kJefQkigjN9nc7O2hezTLUbTTeeQ0fMQlUEsHYxQGPf1RCZ+P5VTTjuUXsd1xajFaPUHO+zUhnbttiHratKZDJ7xmyhs234z9ti/GU03qUIiVWjStGhj06FzHk2bOjiWYEUSaDMbz6tEWYb9D94epBlnnf4sL7/4OZ6BglJNk1ZCvCDlRwiCLnkh644Gf9uepxHRgMcjj/yXtq32pbzRYZQ3OZSvxn1Pn38fSIvWxXg6w9y58/h92m8srKrgq6+/4dtvxmO0RoyLSAplsjRvUk6Lps1wJI6YCCIOYGOCpnXJTIp0Jo0dNahoGk+q8RCSSYtkWqO1305MxO+l1PPoQ9lv/z0Rpfzq1BpEm1yHcpQFyq8ohCeQ1TXstf+O9DhqZ7SJcdF5/6X9Vifw1BMfkqgRRGnESoNKUtfqJmRd0OA4aSwWw3Hi2Haciy46jeN7H8qiRfNp1LiAkjKIF1aQF7OpXBjn4QcH8tSz/Ynnw6jRI3n0cYfrSo9l862KMbhopcm4LtXJBOmMRqkYysRwXZtNN2vKNts0xY7WEI9r4rEIlhVBayGiCpjxx3zmzZ7Llu2aE436zXaVkyKSV4nlpOq1VVyJ06MthDhaO5x7wb845ZQ+DH7jI5584kVuvu4lvh75DZdf2YPtO7Txb8zaioMrbxUZsnawiouLb1r6ydp4ZNAVuXOnTdlj9y1qfxcURntkMvP55ZepjBwxibLSIvY7YHe0Z3HXbS/y8vMf0bbN9vR/aSQPP/Q8F195GK+9eS3t2pfw5psfc/ftQ5j683y23rYtP076jaGDvuLLkVPI1pRRGN+Kh+9/jU8++IRLL+1Jr2N3ZOst2zDrj2oe6Nef/Fhb2rc/kGeeHMM11z1O87Y2fU49hLKmRXz26Xi+GzeNffftSJcubbFMBjELaJ4AACAASURBVDGaXFNdS3lM/30GE8dPo8uOB/DViF/5aeJ8vhw5gXNPv5vvx85lhw6bsV+3Luy92wH8MXUhH3/0Jdt32ILtOmzhtyIN/oWsGxqsSQ1p9tirA9erPO7pO4gbbriL/1x/F8qGXbpuzSWX/wtt5vPDD6M58MBt6N69A3lx4ZhjurPN5tvx3FOv0r59CzbdvBWCxYEH70Y0z+OBhx7jtjseI78I/vOf4zjupM4oVYUYOPe8bsyZU8WVV9/H1dc9gBHD9h2b0+ffR9Jhp9Z4Jk2zlnk0bgLRvKDvPcpvIynab/yFywkn7M/kCXO58ZabKSqGG248l7NOP5iCksX06/s+XTv9z087sQyRGNxw08n0PGZXkCT+nRrYCaGgrhOkTZs2S8xXfqNbqdelWTj7rL246sr9wbh16Rmi/bUh4yAmz2+/jcJvV5jBkCaVyvDjD3OIRiNs074FYmVQVq67ica3OQvoe8cgfp82k0uv7MWmmzZFGQ+lPJAsynLBZNA6i4iDJU0ZO+Y3fvn1J9q134wt221G3HERnfDTRHQ+eAWgsogkEbygfaK/6mQk7Y/TK8LvhWr5dViVvzxqdDxoP275wXuVRiQFkvDHLILfPjRc719XNFiTihF/2jcGkSRIld+e0FjBaTV5cUOnzs0RHIxxAYNoF3AwOPgOiN/JOJlYRCI5AyV5KCxULjPJA8QJ+tKD51bRoUMxHTt1wbLiGO2C54KxEZVGVCWQ8lebMH4TZoPfr96L+416VQpjVQWrZRF/OVS0b7uK5ztIAnXtKLXfcdo4gEYwtSZRaJP+9axBgokAVtCVOJeYoYLW3G5whBUc5wY2nAJynYs9EBCyaM9l5h81zJ/lobaLoFQ26BllMAiiVaCzDGJ5iOV78p5O+cuw/omCj+P5WtTUNeX1E0sMRlXX9vn0tWEEE9S78sfn9wE19RNNgqbLiuBzmdxIQuFcV6yBkJq6HvK+VeCvw9T2J1tqKlyme7PUHixKU5CvKCh2sBwLz80G0+pS7omRQDjMaqR4+FpQjPgCKnrpV3OjCJSmRla4lUZRt8U7ZF2zXqTqXXXtCaA8UNW4bmqlwlcb/fmT8iImWNAM/j53z6yXFdZDlmC9EFKRJKgUvpkQXdXhy2J8m9IXXItlJXhFkiigg170Yljx2obUe5jah5IIrucBGqXqt1EPe6yuTVZDSHXdo/6UaZa+AHW//+k4omjQFmDVmQzUMx2C3/2oAywpdAYktwIktT+X1+Fzub+oVa3HL903Nei1agxGFFk3g6UMSlkYo31/DRV8P/WFNaShrEJIc2V3cgKq/3Hf918znUvwfQieZxDJ+tGE0Hb4SwgzJULWexpuk9bfniG5bSCmbmpusMat8/rrvBu1piddDXLmyvK0oap3TO6nB3gYbTDGxmDVO2yFxkZIA1iDZVEwkrPPbLRbyOyZGSZO/INmzWw6dCwJLMOcLbc6U2F9B8UKXPFAIFQ2ENJ68c+/jNz5/bgpksGYLH6szQb8RBa0ZuI3hjmz07TvWEDbzUqwnSyerkbnFi9qRxoKa0NZA+/eAjxcN0M66dD/5Y+4t+/rzJlbyRXXHEqHjof/+VMaQakInie4GRslBThWoa9UI0mMWghuNX/9cmQQ+MUBHccYhdYm8BUVIhbKiYAxvPjSY7z4/MfE43DZFX3oc8buNCr7i4e3kbEKmzS3SqSChF9V+7u/CgOOE2fw4Pe5v98zdD9sbyb+3J8rrz5h+edYiXCZwBvWmXI+fnc+x/W8m20378PmrXpx2IGX8+GwiXiJEjw3voJzrSq8X88JXOJR3wuvf64IRpcy/TdYNKcYndicyeMN11/5AueecRdjRk1DSSm3972Iyb+8z/En9ODee55j2NujCWu7rl1WQ5PWCWatbRhccDEenokwc46NE2vDjrtsTVl5BiWJIAEjyD4KEjz8qVL56+NLrO74SSdGFI88OJC+dw4mmamgZfMiRGm+mfANF104myuvOZnep3T0E10UGOPHKHOCZkT+hFgEgpkrFiFu7fKpaBt0lA/e/Z7b73iNr8f9SDDZU5wHjYpgt726sP2O7cCeR2G5cOIp3fn559loHcUYG6ykb+5oxapvoJCVsQaOU7A8qRxQDhqFCRSziBvEHwWw/aQOwJNsEDdf9qKJgDEW7Xcs49zLOrNL153oulsnCgsKePutz7nllpf49Y8ZpNLbE48rML6QG4IdAiYSBPWXV+DB76biJyyDH8m16pJDjOMPIBcDRaNwmDJlLjNmLeTgHjty3HF7stPOHWjRogWZbAKjKiE2G7c6iZhCUukUiWwWz9iIqLobMxTQNWaNVpxyWst1hWwQT8+1IDco0DG0m49Ige9omBqUnUKJh9HeEosDShRaNHvtvwW7H9AabSy0O5+sa7CUIs9RiJsmk04Ti2oQE+SH6tobxqzA+zfGwnhRIIJSNkjW30MlbqDP/aQTf8bwMOKCbZg45XdmzpnDhXsfxEE9OuJEwOhZWCqLWDUY5QShUZtkKkMmm8WOxrGcGJ5ngwkroqwN1ihOagSqqqupXlyJhYctHkosDHG0LiSdLuR/Q8ex957nUVpyGJde+CgzpqeAAoyp23ohInULMzrPz/V0S9GZZlx/9QCOPeo2yhq1o3v3Qykqzgu0tAdBypyIhWAh9T6OGFAmeFZp/pie5MzTnqFNi+PZbZczefShocxf4CIqD4hTWx8K23fcPI94zBCJgOPkY6t8jBfB6CiKPGxVgEUBFnHwLMrLmtO4qIQH7r6Xt4YMw9OB41WbCRbSUBokpAYBO4omxtNPvMOTDw+m887t6dJ1ewy+F5xJR3jgnnc457THqFnocHC3ffhu7Ex6dLual57+BDERPv3kc4445FoeuPsdjPaFVhB+nVzFaSc9TnmjntzX7w1E5RGLZ/GsWWgyKPHX52WJOGo9567e78Z4TJnkcfNV7/PxO9/TfpttKS9tx/19P+PBviOZO0PQnsUTD33AXjtfzUvPfYo2CitaipE8RGDYW59ywrGXsWvnE+m21yncesOTTPq+gmy6GHQ+Bs2mWzSmVatiZvzusXBGU0i3DGxw/2YKaTgN3y2atXn+6c946uF36LDNZhzZoytt25aAuLiezbC3v+DNwe+x2datuPnOE3m+/+VcfHlvigobM/33CrKpPKoWFDF/nkV1wsJzHUQZsm4NTVsU0m2/7bnp+tPo/3Jfep+wH8M/Gc0Rh17DA/e8SaI6gygbpRTKUogK6jjVqxXlp+gJYhwef3oQ73/xFlfd2oMBb9/IwGF38Phz1zN+4ne8NewLXFPI7LlV/PxrFTWpfGwnhlCBNjUYDcM/nsjvP8doUrgzc6aV0O/ezznxuHv5aNgk36yxFhErWMxJpx5Eh5134Lrr72fAq59hsuVYkr9WLtTGTINt0gXzq/hp4gJmz3I59tg9OOSwrtjRuUAaN9OIH7+vYdLEOVx61V4c2GMbRC3kiGO3pdfxd6O9FNqr5OAendmly85YNogSMBo74pHvaE7s0y3Irs+y1wEt2bnLZjz14AcMem0cW21ZyqFH7BTYv0F9UeMnIpvarPlAe3l5KB3jgAO7stteW+PEq9AkaNW6GdF4S5JpB9uyuOHWc7jxtgvQppJkah62uJx68qHsv8fhbLJFCS3bxBEREoksfW97gVdffI+pP9fQdfcsdiyJZ5LsuPO27NJxZ77/eipjxn7PnntvSdvNYmvjOm3UNDgLqnFpHkcctRs//zyLhx96gYw3k//cdAQFBVF+nfIHv/48i8ICm8LiBGIvBPHIuIJnIji2v51EIlkat1K1mUPGKMR4CGmMVePvTyJLXjEcfHgHxo39hff+9z4VFVVI4EUD/t8BSim0sahd5RKDESGibN4ePJp4LMoRR3Vl8qSpvPbKp3TqtAMHH9QRsTKgUrg6i6VcioqK8LKarbaBrdorUAm0qQQxlJVEabbJYlRBitkLZ1FdtRX5ReU40oR+973G8/0H0rSNTY9eXWi7ZRHGrVyrF2xjZDWyoLwghujib58IFi2Vx267teCJZ8/jzrsG8+57E+jU6Q96/Wt7kqlKqlNpmrYuovWmzRAnhutlSKUL+PTDKUQjij332RqxEli2FwRpHKoqHGbP0uTl2zRtbiOOhyFCogqee3YIg9/6iJ5HdmefA7uRVfmIjiOSwhhQCmwrhWW075AZ0Liks0mSJsMlV/+bPffeiml/TKHtFq3o/+bdlJc3wpAg6yWIqDSJqgqMVhQVFQERwCaVqsKyPewIGBzSKaiYZ0PaYsstSmnSPIptZ/hy1Lf8770vadXa4uZbj2fP/ctxZRaibERb4RboNaDh3r24oFKUNo5TXlaEcV20AeXYNG0Rp2XrOL/+spBJP2Qx6RbYegv++9gozjmtL8M//IaqqiSKIrLVbUguKsdNOnz+yXjO+fdd7L3HBTzQ7xMWzm3JgplN+b8bh3LnbW+idZrtdiigWfPGKN2MbKIJ2WQp6EJ/u4nyzQYRQQX2aSTmgvIY/NZAFlXOoUePHuy37/40btycJx59nrff+hS8YjI1LVHZ7TCZVmQTRbz+8qf0Oe5mRn1WQVR1QCc3wSQ35fknRzDwjS8pbGRT1izta2EE13XR2uOYo4+ha5eu/vuH/tJaYY2yoDQeWnsoAcc2KPFAG0rLFfvtvwVfj9mc++58gXcHDcdSDj9NnkbXrh05qte+NG1WQL+7X+CeO4ZxwcW9uOyaAzm8164sqrC47bb/ctstT3DXrU/gen45nJ12bMWlV/fkgEM64JkETzz4Bg/3G0JBkebaG06i17H7oT1BGVOX+iwWCJQWO0z7qYYLTn+YAw+YQDwe4ZPhI0mm5nHLHWchOs3llz/Es0+/w333nsnZ5/dk4YIqRn41nQFvXUOr8jiNi6PMn5vEzdqUNolz650X0OOIziQSi9DaX8iwUBQX5xGNKTzPr2sqYanzNabhQlovfc5fdheM8fB0DbbtcfAhO7H7nh34YsQ4Rnz2FW7W5ZLrerPf/l0oLIpjTCW9T96XwgKXJk0iKCy0W8mJp7bj+NPvZMGihUz6cTIKiy0334pGJSVB6EljK4sDDurEyNFT+PjDsSxalEWJhWirzm4WgzKCQbjuhiM5+ui9ePP1zxk//kdc1+Gcizpy6OGdadWqLXhJTu/TjcJoFU2aVpJK/Mp55x3J4T32ov+AQQz/9HMWLqxgp82b0/3QvTjg4N1p1jIPz1uE7WQwOkrjRs0oKigCU402yWBVLUzXXRusQaqeQgsIGsc2aC9Dslqhs8VYdhaxqiltHOWII7ty+GF74JuJSYykMF4NStk0b1bGGWedgjYpIIMJdoda2tC0uIimu+6CMSq3AooxHlprDIZt27dj5x3aM3/mdFq1yUeUh/E0YrS/zaRe2p9oxZZbNuGaG05GjAUmi6EKLVUISZQSOu3ckk47nY82izCSAhbRZtMCrrj6ZC678kTflLEsjPbwTLBipQWyjcEtYt6s36hZnEZZGqVyTYRD1gYNrk+a2+puVJqtt41SXJKi/8vDadGkHfse1Ao7NhXj1eBJFUYsjAkC8ABYaAPaSyImWVcIQnJ7h4IUqyCxxQQJJNpoP9BOlGQywewFFWzfqT07dmqHskAbCVYiA2MwFzcVD8vJYkwNRvkLBmiDMsGWD8liWIQRjYiHMpa/pCkVeCqD9jfp4xoN4tfXN2RJJRzS1U2Y9ttCnnjyOb6bMI6TnS4oy8EvXb7yboMhq8cqyuxoMB5nn72nX2YHN0iONxhUbWEFdB5ClC9H/syAl0ewy66bcPxJu4JKg2SC5GW/lKNPbr3d8xNCTP097ZYf7VwqwdmvjmeCnFMbRSHKNEKbJMZaSDbj7w2IOK4vm8FuAT8zatm0OcH4SSrB04qgRKQxdYcqD6M0Orhx/POoYCp3SSdsHnv4A6ZMmcG/jj+CHTttTSzPRdlpMLn2O8upHxDyp1iOJs0138olcdSlv9Xlb6hgP6jxtZXKgPHYdffW7LbHiYAb1FzKZbKbwFZcememBK8v/awEggD1tWLdhmEPZBFaFoLxxSsSMbVHGz+y7wf7g6VWU7v1tL6w1t0cOmca1PugfpKMBCl8OhBsVZdFg6LPaYcRi+UTjYFYCf87017wN+GkvzZYw333uenUJVe+pm6X0NJ70NeEIC2w9lT1BE30CiM9y9ZpWt6R9cenl9rwmVPJpt77Bh1WxEYEbCeF7bgoK0gTDGpkhVX31h5rqTjEkhvP/nnhwT8xYtHgFYIxuF4FTkRwIuAvzYbhpr+CtSSkstRjA9w6sYRm9KsJFhY3x5g0xqthg/u86xHLEdJc+CRnry0/091Hlnrun3qhlrJ/V/q6Hw0QFOgEghv8VTi9/1WsF7Wg/hnUnyn8spVGS5CpFVbc+ytZDSGtv9tzQ15BWVoTrmpmMKtxTMjaYOVCanLJw0GWO6reZfwnXaBVjfPPfBYTRBRyuwL+Sd/DP5Nwum8QoWCuSzbk+TtkAyHUpCGrQX17fV3NImo5/wsJWU8JhTRkNfg7bPC6DLJwug9ZTf4+QQ01ach6z2oF83N1t/7SQsshq8Hf4cD8/YSaNGQpcnVc/z4bdGlCm/QfxbrQnn9XosyK9WWoSUPWe0IhDVnvCYW0wawL223jcY5WRiikIes9oePUYNaFgxFm+kOoSUP+AYRCGrLeEwppyHpPKKQh6z2hkIas96yGd/9PitOtzOPemGKO9bZe1/7+z2W1hFSCAmZG9HqcCVVXgW/5L/9diRN/F2Y5//9nCutqNHbIdR3JPXKs20SEJbrn/QXHb1j8s4VyaTYKm3TjFNQNh/V6xUmCbGtjLAweWlyUEZSs4N7KdY4Wy69HKn4JcTEG7a24ROSGzT9fq673mlSMAc9i0Mu/8NQ905n5awnoApYdep1jJMrihWe+YP8ut/Pg/31Bxbx1Pep1wdLlj2TZ16S+efbPvUXXayEVQIxi1h/z+Gj4F9x+510Me+edlVRA9fvau5ksv/wygx9+nMr8RRVkXXc9dvj+Arx8yJaBW4LRjt8MY5mCwv8c1mshBTBa47lZ0B4tWjSjSZMmK+0u57cWz/0fmjQpp6RRydod0wou+PJs33VmDxvll3Y3Nq+/OpJ9druA3Xbuw4hPvwWs2haX/0TWoEUOS5XurqO2w/dSr+curlqOmPm16oV6pcD891AGT0EKaNq6Dc1btiDXNISgp2htDwjj+OcISpTbToRYXhzbtv3eEitpUrdsfftcYXUJmjrUfyX4HEotIbBK+W+g60UWJPisyxNsI/6xIsHgaqdos4Ix1RuvSG3roKWLGAv5JJMR7GgjItEibMdB6+xKZ/xcQ4/1kdUS0qUbOxgMrrb4fvwMBr8xnA47tOewI/bC9RYTi0WYOWMRn33yDdVVCfbd/wDabdsCT09HmwyJKofPPhzPkDc/Y3GFpqxJjCN77cb+B3VBrIzf8jZVxGcf/8Sbbwwhmapi23a7Mn9hBCcmOIVVfPTxT3z8wXfsf+DO7LNfR5RymPLTYn6bOp0ttimnRZsiXKXxlKAtjWdp0pkESpXx+Uczeft/w0mlF7Pjjjuw/yE70aJtAqWyWMSpte/EA2MhOo9UEl556T1Gj5pISanFUb26s1PnzbFUFR8Om8yEcfM4pMeubN+pBFFRJBPj5usfoNOOu3F4z070H/Aar7z4HmedfyaW8hg9YjyzZy6mcdMYx/beg3bbNQVjY1v5KKslb772Pm8NeZPEYsWhh3eh+1GdKSk1aFcQXcbrrw1ju+22Yeut29H/1bd5/r9DaNRYcd0t59C+XXsWLEqSyKRoWhonGmuM2I0w7lyU5eAm8nn66ScZ9fkkvEyMPffpRI8jutGkWRyxkvXbW6w3NFCTCk6khOkzpvL2sMlM+EEY+PpPfPTRcPbdrz15eTGGf/A98xZlOOSwqfznP0fTvkMLKhe73HPnWzz9yAdElIWlFNp4LF5sUd68KR07N0FMnOefH8b99wxi7uwUIsKgIb+RymgOO2RPtC5kxGdjeeSB0TQu34S99gOlLD4bMYqnn36TPv/uRe9TutVqTq00RhksacGg17/izrv6M23adIoKYOAbX3D3PRFuv/Mseh27C5iqep9Rk0wkQedz6eUv8forX5AXiYJK8PILYzn+pG78++xD+fiDKfR/6VO+/nYil1zdnU6dOnHdFY/yzNMfc8vt7VhYmSaZKGTm9AifvDuVSZOnMOLTrylr3Iism2Hw4JH8371n0O3ATijL5oIzb+SV50egBKJRGP7pJAYN+YRrrzuNDh06YKtyPvpgFplUCx7ody+DBn9OQT7IFPjmywoe6/cI7w77BjcdYc7sORx6yOU0bwX39buEFs3bcPnF9zDi00k4VhzHcnhn2GCefPI97n/sXLrs1gKFQhl7vRLTNTBU/J5KnrF4/8ORtG3ZjuuvuZmxY+cz5K1xXHjROdx2y2WMHvEt7777FWlXeOH5T3nxvx/Q49BuvPP+80z+9WO+n/gxzZtvz9tDfiRZXcD34yr48P3pLK6GO++9gvmLf+CKy8/EsUDjoL188CKBTxtMkUZIZzI4UkRBrA2WKoRcNzRAa8OE72bR/5VR6EyCZ565hslT3mfoW0+x2VadeOmFb/j6y2kYbAyW36PKRMgvaM1zz7zP8Hc+55Zbz2bqnKH8OvNdju/dncEDP+Xr0dP4v763cnjP7rz33reMGlHJlZc+zbMvfMDlV19Az2M7YztJysuaUxAv5anHB9K2dWu+HDOUyVNGM/yT99l80z3p/8o4fvm5gvvuGsjQ/33Dgd278c4HzzFh0odcfGEfxnxdyVdjFlBdGWVxRZRktfDUY68zYvhE+t55MeMnvMHkKR/S+8Qe2CqfbEpTkaqkWctG9Oy5B489fjOdOnXkk4/HMWXKPK686nzGTxjK1DmDOeuC7tTUuNTU+I1818dQVYM0qQgYU42oKgrjFif1PpgzLtyZrJ7L95M3o6RkO44+ZRMyiSJ++70XX4/5iYnfzSBVHaVz513oc84hbNsFxJqM48UpLk8zaMAItt6mHdOmzWDU5yO44JIjOPbEllS777PvIcV8NWY7SvKLyc+P4UQ94nmCZQfNysQCE6OkqCmFhYWAg9ERtPb7OXlZm4ED3uHDT77g6msu5KBDjiOWZzF77hjmzZtD5506UNqoud80Tfw6+KLzmPl7llGjZ9KovIw2m5SQzVaRqElStThNTU2GjFcF0R+4pe/hNG9RwMP3v868+XO5q9/59D61C44jWMrFya8maafosndXjj99R9puN5OMrsQuAiuWZOig0bTv0JIxo39m261bcumV3dixq0Z7Mzj3smP4euLvvD3sIzp32YSYs5iaRBXf//grz714Cz2O2gZDNUgFoOn3xAk0Ki3h2eeH0fO4XTjrwq40b16El82w7Q7NKSkr4N57n2XKL39w2VWncu0N53H1jSeinCqMyaxlGV2y/dCfx/+bBjtOWmuMNiRdKC5vQstWzahJGsrKmxCNWTRr3pKqCotIXoRFVdVULK4h6wqOHSe/IIKyUxhJIEFugChIpxNULEiSSYCjYjh2IWgX5RVgmQi2UqAV2rPQnuU3rzO+1sPE/Pr1kvGVvFZobfygvrFJpARb4IF7H+SF5x8nHtMsWuCy00478P/tnXl0VdX1xz/nnPuG5L0kQCBhCDIoKDiUKqiAEwpKnbCgrXUCrRZtf7a46rLqz6o/l1JttXWsLueqtaBUqYpa1DpQBBStIohaBhUJQ4AkJC/Je++ec35/3PteXkImMsjg+66VRcgd9jn37rvPPns857wjKBmosLICQdzrT28irF69jtKNZXzySSlXzrgTpWrYsqUaJFx93TROnzwaYxVK5hMIhEBYtBa4dbnoZBAV2I4jFUoGyJGSC6ZOZdSYPmg+RwhwkzloV1AyoICiPnloKzl89Gj6lJSQcJMIqwmGgkSDAZJ1xpsbFqMtF5w3kQOHF2NMzOs8mLEpMjYOaKQMAEG0DmAsHD5mCM/8Yzq/uORx/vr3ucyZO5frrr+Yiy6ZRG7YBes2sq12FB11JHgLfQd2994eNywFYX8MkWiUcDSKNgkcRxGNRojkRjDaReskxloSrkZriZJRDBItQuAoevQOEO0BwtE4AYWrBcmEJBzuxer/fsGqVevodeQ+aJNge02cWJ2L0WGsm0tSB6gut8RrG7Y6c12Xyu2VGCFxwjmEc0L85jeXcfSxIyjbUsqgAUMYOLg/Rm7EyA0IkQQTBgxCJrAqiRWGK6+axvgJwyndtIKehUV8f8Qo8gpycE05VRUB5v59AU/Pfonh3y+i16Ygv73+9/QovoEzzz4CQzlWQNx649GuQotcQk5PVn76DZs3VTJp8jiGHbgPLzz3AWUbK6nYlqBHz1ysqsWRBSDD9O5XRLRbLsWFvQnlRRgx6iD67pOPcLZhSYJx0q/TiBiQxBqF1RFMMoLRXtvLwm5DeGbO7axZs4ErLr+b2297mFdfmc8f7ryMEd8vxpoEwl+BOgcdjz5rRSdt7NWo/6k/IlEClAAHB0coz8RkJUoEcKSDEgpFgKCUfLnqv3y+vBQTL0aZEio35bChNMmYo45h4onHU9SjmJxAHlXldSRrDYkYfPbJOtavK0NgyQmFOHjoUEpK+rHum41sWl/Oxx+s5N1FH1O6YQvxWAwHTWFUEFICZR3cmhpyMSTqoKo6wf77H8TxE75Hn/4u/37nDT5Y9Dnx6jDCLWDtFzE2rK8EDEP3HcSAPr15dtZTlG/dwI/OPI1Rh41gwzebef3lhXyzOkbp2mrmPfcOOl7GeT85jpm3XMIhhx3Aow++wNIFpQg3D62993TbbTfxr/lLCIp92LIBHnrk73z+xQqG71/C0MElFHXrxj9feoXVn61CaIlJuvz2f69h3qvzOfiQ4fQp7oUkicZQUVFGIh5DCoESu425PgAAEqJJREFUIGXK+WHYd3AxRb0iBJWDNEG2baukrgZuvuEJnnxoMRs3lTFovwKef/lmRo4dyVsLv2bxeyupqanDc0N3iKc6HW0L1cuwe/rucRwngHZrqaspR5IgAFgTIGAFGIPjGirKyqnYug3ruui6zRx+eB6LF+Rw2/89xKI3V9C9e3feeWchBd0Fk6/9MY6oY9Lpo1m98itemPUWy98rJRarYn3pV0RDDo4VONRx0g+G8cGS4Tz14HzmP/8+cddQvq2S/Nww5dsqMLaOESMLGTa8F59/tJGNX1VywdRTWLNmG3f+7s8sW/QZgwYMYen7i1n2xUqmXjiB/iUT+HTZembeNJfCbj256uopDB+Rz4STBvLJRx/xp5mv8Pa8Umpra1m6dAkbNq3j9juv5D8ffcaCBYv4wx9nMHny0UhHMqNiC7fOnMPZZ83g9numkVeQA8aydu0mrr/6r/zlwXdZtWolX6xez4wrpnDcuOHk5MAJJx7A8mWrueGqWbwyp4zuhQW8+vrXHDGqN6NGFhEOgWvjIDVVsa0kamsROoRQSZ+xLMg4Z/3wXF6b9yUP3fcMNZUu7y75iBlXXMJnn8a59647ePzRwYw7bhyBQIhvVm2mfzEM7t+XnFAB0sZ2kQM11dN2R7TCpBmS1Na3yBECBAn69MnlsMP60rdvAKW2Y2UVk344CKtDCCAeL0fHKxjYv4Chw/swdOgQ+hYN5I7b5vL66/9ACIhEFBddMpljjumPEpX0Kpb89qbJ7D88xJNPvMjIkYdy7fVXMO/ldymvWEN1zRfsd+BB3HHfdC79xUTWrP6aPn36MuyAA3j04VlEouAozQ9OPJ5NX9cSieQzcIgkHA3z6FOX8/D93Xjgz6/w4bJ/MWbsUK7/3QyOHDOcYI6hT98ghx7Wm+JeRfQf7GDZwLkXHMfY0SP4/czHmDf/CSJRuPDiMzln2h1072FYvGQxhxzUg0EDHBS1WF3HKSePYMK4IwmFiiAY49X5/8ZauO++G3HNBp58ajYnTDyUB878FcP2H0BOTgIrapgy+Uj26deNmTfN4cVXHqEmDr/53/O48OIT6VYoARcnqBnY3zJ8WBEF3XLAuljTsF2Pcb5ixjXHcuut3/DcvNlcd/0ljB1XxKlnXss/5h7In++Zw90PP4JJwNgxPXnkLzdy0Ii+GFNJx6ykKSZrr5WgaUZtpZU4YA2XTj+mvpV4g5OFZ/CWvg5H0ntMNogUATy1QAEGY+sw1sWaANggwgbBP4asQTo1adeRtRJM0NMPhfY3DOBFOGmEFFiT6rycMSIb8u8Xrw+AFkmvg52wXjSVDnn3ThnsRRIhXJC+p8cGwCoQbv01JuUR8pcSoRHCxZJE2BwwOf578cZqrUGgMFbh2gBvvL6CmTfN5dLLpnL2BQdixDYcobyimq4B6yJEqr06YB2sDWIIYEUAKzTWJrG4CF+dkrgI6+J1vraeS9QXIgaDyVj+rBC+F0z43q0cUt2xBdrTxUki/CZIu4ZJU5rnjkzazo2THwAtXe+loLAmCHgv3/OuJbDCM2lYE8TqXO+LF3EQdSBjIAxCKAQOwob9rZjB60PvR9oLWz8BK7Am5N+niXaSMuaPLcWgPuOZMMbb8vveTv9B+F2VIQxa+l2gfWaxEd8frhFCYzH1+r8VWJRHR2hQ1aQzA0zI+zCFBjRYgzQGB4PUGqmt10QPF4PrM4lnpcAq7z5YrIj7zOPgNW3X/vPSfnt0vzN2qnhsI6QDavyPVVnfGiIMQtQi/I9SpPtQKf95t4shUi+gA9d2eulHv02hVWBz/b8JXwIJwMVajbX1O05kDekXaR0g6Cu5IKT1AyC8KCasnw2gYg3JpqRVOk0kIx3ESjC5ID3J6TGnTwcQQqcCBOoVa++A/7smpdZ5SNbTTJ2WeV3qQ2gcoCBcf/4WrEXZIDmhfHBC1NaGcZMOKmzSwQ+e8yDlt28wAF8eufWDsPipPMKX+E2/Pomsj1MQ1N/bWv8RpLIsLAiJsGFPeNiQb4Zqqp/srkMHgp5TX019IEb9cqX8B2QzHf54iWGmGbI7YapoypYnXSDuHcsM1rCpsab+ZtmxqW/GHICWU2XatpR50VgCGahh7NEDmfvsjYTDQYLO9vStjW8l9i7InLtI/yllUEunw2RIq5aeVmZwisV4dKz/PjIu9IJK/P3GbhrP2DWR+QKEFS3EfbZwqfAjj5qwg6R05SZhAp6uJbSnk4IvaVKSctfAigROEAoKLchtPueoXTIWIVKuYkEqntFry5lSreJ0cL3vErQhES/DPmplw2PppbKhJEozkpUZNjeRfkhCWMBN38ns+IE3PRpLht7WBKSLp9P64xSaTHnS+lwzz+mc+Eurg96Ypbdsp01FtEUm7/iZtyd42ZPXmSuar5qlqWgEAaxJbeB2mkSXog2SNCNTdId0BNvC/3dEfbxi43Mzlr1OQXN0dgHSzODrkrshhHD9f3fxQJrBnhuuncV3Bh3QSVOfnb8JEbJ+q2E9L1Xzkd4pZT1TXWgfvtv59d8NtF+SWp/BhPHMGCpAwlVUV0dwdaShZSa15Ik66g3z2lfUWzN3+Pqr9O2rqgohLdIWgoliRR3I7d45dtdukrLoGnRguRdgDda6GC2orsxl9pOfcfxRV/PHP8xu5LdIKe0h0Pmg8xFEEYSBQKMNWSNY5aUwJ3uCWwg6nzWf1zB92t386LSbefPlMmq398KaMG01D2WxZ0EVFBTc2PiP6aXT562RIwdw1NjBeJY9/4DwPSDk8NYbK5h+2d0sXx7jhut/zY/OHo3jxOrZxXd3VlUK3py/ki/XbKWoqBClBErRtN3ThxQRHnvoVab+5FbKNklGjDiAXr16MfrIY8nLK+auP81h4cKPOGBYf3oVRWhdMmexp6HdktQiMEKireLD/2ympiLET6dNZPzJheRGy/3j1P8gePGl17j22nuYM3sxG0urvGzLRkXELBYjLAYHY3KZPfsl7r1/LqvXJ6ipC5J0A8jwVnqUfMlpZx7EmLEjWLz4PT74YFk6SzOLvQttK1iWWbQsw57pGYGDmKSDdmtRThmGTSS1RpAHJHwXJYCissqhojKHnGgBkfwQGoPCc4tiPbekEcZz6ZkIa9dUMm/e11RsidCvZ3ei0QjBcMDPRQKjahHhBNuqFFurLVZ5hummFvw9uTjCdx1tq0/aRFU963uGDAqNwjUGY43nthNVWJXEWC8KSvim5LhbR5W7nUA0Sk40H812/w4ZklSANkEc1Z1Zs1/ntdc+5KzJZ7C1LEZSu76H3YIUoJIkbZx4UmP0bmATzaJL0GE7qdYaicaRBqNT+qD1uS1KoqY727dGSdZ0Q9g8rAYlBEpK3wPVUO45IkpAFrPonZUsWbiMS6afxZSzj6A6sRErXGSGf1kpRTgUQgiH2to4iUQiKzH3QnTYd79+fSmr1q7DCXsJdsZohIyA6cbzz7zNLTfPYvXqCoIKj3ddicoIoUMmvOXdOiAMybiiarvh5Zfep3/ffZky+RQqq79CSU1+fj7hcC7gRUdJZdlnQF/69i6mpiZObU2CUH4ow3baOHAkiz0R7ZSkAp3IY84TX3H2qQ/w4aIVXPHrU5l01hikFAgd5enH3uXWG1+gX89+PDfnFr5Z/xr/c/lPkCgEGm2SfLZyLdPOvZuLzn+QT1dsxuhufLqslkt+eg/zX1/CSWfsy+ADBVbFcImjQppAyAECeEEAtfz4/CM478Lx/PXBZdx+w8ds+jqCdXO8AGzr7nb5OlnsPNotSbdu3cr7S//Df1ev5ZczpnLmlMkkExtwTRKbLGTNmjpWri1lyvnjOem0g4nHy8mNGpRSSOEAmmEH9ufeB35OIllLOJzLlk11PP7YS7z6yttce/1UJp5yJNokiFUniVUncBOC2PYgSgUJRxMICeFwDpdOv5TStWHuf/Bx+g3U/PyX40GkNlBZKbqno906ae+SAo4/uYRDDsvj/nv/wg3X3UNtjYtUiuXLV7Fi2RcccegQvndwEbXxTXhpFQJttKeHCoU2CfIKFIW9QoTCgsVLlrD4vaX87Gfn8LOfngNuHlL3oWyDw4b1ce6562lGHTqJJ554DoslmTSUrotzzVW38bdZD3DNdacy9eKjEKrOD9PbrWsEZ9FGtKtgmRBgbIIJp4wmruH2W55n8ZIVLFw4gpNOHUJSl+G6mv2GDGLYgcPIyY16OfIESNgkWgqUCoBwcV2JRWNJEgxCbkDyt8fn8MRjz1KXTKatqAEkPXtZghGLE05iZS1GB5jzzIv8859vc+7UYzl32kgiET83Kx2Tml3v93S0X9RYz/B+wgknsHRJnGdmzad0/SbiyRKi3QIUFAb5pvQrPlu5ipKSIwmG8khoL/lBCYWQfgqKCft7mxjHjRtDbU2AZ5+ZhzGG8SdOYPyJJ/DWm0u4649Pc/7UM5h+2clIVYa1MbCSzZu3sm3bNnr3LqawsAeexym7xO9NaBeTegldXkpDKBSiW16Y/JwAgWAAay0DBnWnZGB35s17ky8+reD00/bj7QULeH/xB4QDoCRgBbEqyfPPzCcSDXLGWYejQjFOnXIQp0w+yKMDBIMCubCchLsdKRXhHIlJ+fOtg5QSpQSO41Xpy7pF9z50SGmTUuIEgiACuFqgpEIpRV40wMybL+Ws037I/fc9zSFDRzNw3/7kOCHy8/PYXl1BIl5NfkE+NVUuW8rKiVXXUdAt7GVOes5RLz3O3U5xcZh9SnpSWx0jVlVOJE8DAZQKEgwECCiF2tHkmsVegg7uLAzJZA2JZC3xhCERD2C0JEEZ0sQYPkpyz+OngZ2C1WEEDsrRBBQIZTHG5edXHod2jV9YTKSzMtORpsLlhBNHMn7iKLAuVleDCSCtQMko4UCUvv3yKOzp59xnsdehnbv7+g2JpY6BgxQiuJ25Lyxg2dJKRLIP0kqU1ShjUUajqENSg8QrqpBIVJNIVqFNwo9J1T5zCq/4gfB/AGFcrHFxpEMgIJBSgonwxquf8+pLy+nTpx+DB/dFyuwmaW9EB4KevSAPoaqZNOUILr/8ZJZ/tJQTjv0Vt818ivqIfQMyiVBxhKrF2Gq0qfEZE4SfoCdE04EhApHeB2nXxWjNonc/5vRTrubUSVeyraqMaRdN5NBR+7crOzWL3R+tlNmxYA3TLz2aq68a75d1SS3DytMfhfYKFZhc4rE8NqyrI5C7lb77uE3R84iKRlmlvrnISyb1s0Ezy8RkMKoQLsqWUL21CEQtke51WFGFtTEEyfriCemRZrGno006aeOqel6hDb83kDCkQvJC0UoGDgNhJcIGMoKZG/nPbcNfvGofmVLTNjgnVQvVqzUhsKwn0qPUq4mPx/QyVfygIYEs9gK0e+OUTkJuMvWjce52y0Z1kebhps9JV7hJM7sfQJL+YLJG+70ZXeI3tH6Doc5vcNViYZk2nJPFnoguYdLW04vrddHOQ5Y591Z0UQRG1qqeRechGyaUxW6C5lXDLJNmsZugQ0V0/ZI4GTXzm8bO7rB3rMZXT69xYYnm7rtj4bM9W9XYmbnvyTR3Dg2Y9NtLYtvTmSmLbxPZqnpZ7PZIS9LOlaKtScquWFIyK/V9WzRTdLtqru1dcbpyyW5pTB2JQvtWNk47o9ukGKot5za+LvP3nS/k2/noSpqtPUNaON5V6Kr5dnr3kbZgV+idLdHcWyVpk0WFOkCzNeymktQI0Kky9P78U8Ns6tYWmary1PRRa7DCYDO7XQhINS+jwbX1DzxV2Ec0+TC8djMt0bWi+WC+zG4dOwOZaozQDIywDeeZSZPGrNT2DzvdAqfpozvcuQGVBnOtpymwWJHq1NzE9VZ4EW/NMJQRzdNt/fm2gUmbcmUKKbDWIFV/pBiHMQlScR7WH3OiScrNP2xhQdpUgErGhDI8pS0ZnHZ8sfU0M0JPmqAr/AfVwqtt5ikK632kph1crIzAi8XekW7qGTYHYZs7LvyPtZm5pOv079xcU5FmzV8m/OuaOsEg081nm7y01ciLpo/LHeNJ0wO2qTA6ryKzoQ6T6lTXKtoiETp7SWqsrzYmlxEG+G2iK+ha0by0A49Ju2KuLc6l8d6gsyDbUvoRrAkiCOIIBW2KbBKtM3PLn+zOI/UA0yF9jentoo1GV9AVrTAprUvSdtNt7r6pHked/kG2yqQCIbxKY9amurK1JWW4DUza2ZLUtkZzV+2Gu4KuAFqSpDv80ol0m7lvA5qd+V5t80y6o466Ew/btqJ/COj0/GPR0nLfnAu2M9BS2GHX0fUERtO7aSFbsxl3FM3NtbljHSEl2tLvXvglFFNfbhuYtJmkuob4tm2aXS1Jv017psjoCdoUMvu+diZamktX6aQtSNLGyJSs2UK1WXyb+H8NVaYRpQY0cAAAAABJRU5ErkJggg==;" parent="1" vertex="1">
                    <mxGeometry x="226.5" y="780" width="169" height="226" as="geometry"/>
                </mxCell>
                <mxCell id="15" value="&lt;div style=&quot;color: rgb(212, 212, 212); background-color: rgb(30, 30, 30); font-family: Consolas, &amp;quot;Courier New&amp;quot;, monospace; font-weight: normal; font-size: 14px; line-height: 19px;&quot;&gt;&lt;div&gt;&lt;span style=&quot;color: #4ec9b0;&quot;&gt;exports&lt;/span&gt;&lt;span style=&quot;color: #d4d4d4;&quot;&gt;.&lt;/span&gt;&lt;span style=&quot;color: #9cdcfe;&quot;&gt;e&lt;/span&gt;&lt;span style=&quot;color: #d4d4d4;&quot;&gt; = &lt;/span&gt;&lt;span style=&quot;color: #b5cea8;&quot;&gt;5&lt;/span&gt;&lt;/div&gt;&lt;/div&gt;" style="text;whiteSpace=wrap;html=1;" parent="1" vertex="1">
                    <mxGeometry x="65" y="820" width="130" height="40" as="geometry"/>
                </mxCell>
                <mxCell id="16" value="" style="shape=image;verticalLabelPosition=bottom;labelBackgroundColor=default;verticalAlign=top;aspect=fixed;imageAspect=0;image=data:image/png,iVBORw0KGgoAAAANSUhEUgAAAJQAAADUCAYAAAB6ZAq4AAAgAElEQVR4nOydd5gUxdaH31PdPWFzIidFRRRFBFHEDJgQDJhFr5hRr9lrzvipiDnnq14TJkAMiAEQBZVoAEFBVCTnTZO6q74/umd3gSUsgoDM73nm2Z2ZnurqrtPnnDpRmjdvbgCMMRgDGMEYj7599+e6a7ohxiWDDNYX6q8PIcEw8teHymCrh22MAUBEAIPBoERQIogIUpNQjMFUvRH/ZYK/64QB0f7fDP6x2AgcKoMMqpEhqAw2KuwN+9nqYs5g0KRFp/+JYFY5qvq7DP6ZUNUEsC4IYIFxwFirfGfQJsQLz33OPnv15dmnP8BSFqCDl6l6GePieQpDBFEGMV6Gvv5BqIPI06BSoCpBxZG0gi0pjCSwJIfKsgJ+myksmp+F62VjUFTvAAVjBONFefTBD7j+qv8x+9cUmGjdppHBFo06rKSAMSBJRBl+/G4OHw7+gT9/T6GIYCSBsjW2baMcjWVrf3hT/RKEJUuWMvv3ZTzz5OcMfH10MLbeFNeWwWbAehOUAbRYaLJJmiyGfPoTvc54nP+7fxjzFhs8EyIrq4icnGL/WDyMgDZhtPLQVgwtHgUlUQY8ej7zVrzMxVftj1GVGLEwEiGecognw2DlU5EwlMXieKjVNLEMtlzUSSk3xkbrCAnPIRZ3AIeSek0oKGqKJoWHkNJCKuWwcG4e8YpcigqiRLKTKKccUZUo20V7YZTlICqOZ1LYTgHKqs/ypQkmjp+C4zi0br0j2bkeqdQKbLsSS9wMWW0FqBNBuSmb7ybOY+w3M/h2zM9YVoivRk/h5muXc/Ah7TBag0nxzdgpfD9hKt+MnUAqBQfsty/X3XgmHfZtQGV8If93x/OEQrlcc91hREJhKpaHuPeuZ3jwsdexbEPEhkQMunbdl8v/04sOexdjORkX0NaAOmnD4XA2Y7/6mX63PMOYLybiuhXMmPktM2eNAyrRxiOpPUZ/NZFQ2GPI+wO46dbefD1+LEPeG0Xp8gTxSg8voREtGM8GYzPswy/4+KOvOWS/fRky+B6mz3qTa2/ozRdfT+LzUZPrOs0MNiPWm0MJYMwi/n3Vnlx05cvcP2AYL77wKVddcwpn/GtvbFvxzJNfYwPNmjocfnRz9uiYT0mjtkyd9hu/TFvArJlLadUmB9sJY1kWth3BkMIQQ0slS5YuZsnicpywx+XXd+XSaw/CkjCWeJvuDmSwUbFBj74yYBmwEWxRWCJYgGAAj1N7H88ZvU/BBnJyssjOzWb+/PnMnTOXVNLFaLAshWXZKFH0OuEIbrv9CsSyOL33nRzb/UZGDv8VnSxEWQax4iAu4FFt18pgS8RfkiVKBEsplFRbzjUaZadwnJQfDpN2MgcvbQza+GYCN+XieS5GlXHoUTvz3geP8n/9LmHGjGWceNydnN37PsaPWYCXioCxAYtMZMOWjToSlE84ogQloEShlIURQaMh2OQrSQHJwNYAYnQQvQAYF2M8BE0oZBEOhXhvyGA++vgNcgoXc+l/jmTEyCc56eTDGfzhNwz/ZCZeMh9DCI2DWYmo1jfSIYO/C3UjKCMICoXGEs0fv8/l+0mzub//hzz6yHtobTCekIyFiSXCeEpwkxaSChFSli8axWChiVdWUFFRyuLF8M2XHmf3foOL+z7B9z9OoTJRiqggrEb5YrTfrW/SsPhcHnlwFJ4bCeYDGYLaslBH53DAEURz4ildWbggwSuvDCI7J8Ll/zmB3XbbkWOP258W2xViWSBGEXIURUU2+x24C3t22ImCQmjfYTuU2OTmRhGinH/B6eTmljDwzcG8/doXGKCwMJ9rrjyTPmd1J5JlE41E0aJ49r+v0qxFkuOO6xrEamUIakuCNG/e3BhjEJGqMGDB0PeC/bl2lRBg373rIIGPzo2HEJOFY0fwWIE4ghDFTa1ASzlKHJSEMV4YzwMrVIZYCdxkCDcFlq2xLAcjEZQdxUuFScQVrgvhkEMomsSwHFs8EhX1uOWmV5kxczQ33HocHTvujPG0r6eR2QVuKagThxLwowPEBdHYkThar0AjWAJoX9l2bPCMxmiNMUmQUuwQgAbP4NiakG0FxOBiVAxjloLShKKGUHA+rX3/oWcML734Bh99OJwLLupO+3atAmLKENKWhrrHQ0ngyDVpZ7GgA6njBxFT/T1pPShQyAOVzRiDqclVNGAM1mrmAINgYzkh+px9DGf2OQYnpH3FXguIojo0JoMtARsYYBcgMAUAVcTlG0D9/zfOOrsYowlHU2ijMdrGaAVirRzvnsEWgb9GUOvA+gfv1fgNAqv8zhgBbERHfCKV5D+UmNY3ojW9GUlz5y0nEnY1ghKMn92iTSCaDFItx6ietARBvjW+qjmOEAQFr05Yq75Pbwpq27FVfWKUT0hVH6wthmpNu78NFY/pxdM13q+NoFc9T83ja/6/ynHGWmtmUHVQtf/Sse1IpspwspbhOLrGagTjSvX4xmwsibF21G6HMgEx1SSsdb1qma3UFInrCanxO5HVuVUtk2XlUONNhL8lBSzQS9dyPUaqX5+PHMHCxctwnPAmntf6Y5OKvAw2MkRTQ1wgloeyPFBesMPe/GrABhJUtdjbdFhZvK7/uTbO3KTm+Y1UjyzaF78bOH4VPZhAfK1CJLXNpPp8Lkgq+CwCxkJrjfZ0lSd1JYlQMwnX/D361QYQVLWcFhUYJo2Fdr2VZPbfh1WITXRN28Uq81kbsVXrSWL89HoxgvhapK89VY29qjK8oTAYE2wvxI/XX3kuaSj/3CrpJ4qYEHgRsnOiGKPwdALHcv2MpJV0tb9/PVbToYxZ1xQEEQuwSSUsvvlqJrde9yJD3vmCjTV5k140SVvp19flWHPyNUNd0n/Xxuk0iAeiMeLrMEY0Rkmw2GnukJ7ThhGTkQSGOCIpjE7686yVvj3/fJL0iUmHMW4u2rXRHmAsvvj8e2685gkmf1MKbn2UREkHElXPsWbm0aZH1UqtTbmuhj9Bo0OkElGefPgTenW/l0cf+JKfpi7bODMSQVkg4qDdLDyXOljEq7fTxsulYlk94mVFvnhYXxgF2EgoG2Nno8kDVYKYYhRFiOQANTlB3aCI4CVz0ToHy44Ee47a7rnCGItkXDC6mERlMV6iGKWLERyMJJn5628M/3gyxx99De8PGYObdNDa8u2AmylurIqgqnZWVYuycgqU//Llvlg2b705jBefH8Il/76ARUu+4sab+1D9NGzYEyGAKIXWYW6/dShdD76Fjz6cgus5te0hazlPIKrE5r57X2LXnU/kor73MWXKrOBBWZeuYoGxERNh1rRy/nXSE9QrOJX87BPovE9fPnr/O1KJHIypi6YgGBGM8j0KEybN5Nhj7qLVDmfy/tAf0RIhqKKENlloQmgUWkdB52HcIq7+9wB2aNGDG697gj9nLwp8qXDSyYfz1djX2PegA7n/geeYOP7HzW6KWolDVSFNQDUIxKDQovBEcAXmLwCRZrTYoQCJzsKTFWjjoE0IbWy0qOAmarToVTifCfa+dmB7sTDKwkgBP02NcfppT3Fv/6E44QJyCgqwnLWJvGq2Lkb5iqpxaNh0O4oaNCCcnYUTzUNLBC12YI+pSYg1tunGArchzz8+iWOOvJ22bXdj1tzBLCx9h84Htueccwbw2BNDKa9Isk7irHHfXBFSJpeJ45LccM0wWmy/Gx07t+Oe/i/x6Wfj0aLQKIy4aPFIGUVlLIcXnp5Ah47XMOPPBXz0xZ3c99QZNGuZFyjzfui0k7WQpo0V035KMG+Bi7EMRhk/yVZ0IKrddSj+Gw91VsqNCcr9KD8dXXse2vNQK42UTuw0aQGEiA5U2+DCRKp2IaI8jITBLeat14fzwXvfogV22mUXWrZsiTG6TvzOaE3DBg0oKSn29T2TBToP161AEcdey1WXl5UzafJP/P7nQvJLDJG8BSCV3HbXecQqw0yfNpd5c5eR2yp//SYjvlKvyOeVF19l+vQfOfvCgzj8qJ7YFOOEKoGymj/AUUXMmFHJ2+9+Sasd87np9l602b0RRqfWSMe2BWoLyOXYILNBLBajvLKixpZXMMYC0pZeCyGE0SGMUYCHSAwkga9sp3Ui/w7E43GQEO+8MZiP3h/OaacezfxlpRQW51NYlIvIijqycsGybbRYKDsfWzVgxbJcLDtJVk4CDw0mcFj7Wywwvm/QDicoLHG57KouHH7UzihRCEXk5NTDDoWxPAvHceowF8uPbDVhEgmbwqIiSkqi5Oa7KDzclMHoNL8UEItUMswd/Z9g+oypPP7YFezRbie0TqL1GoydxgWtMZ4VOM1l3fbgTYS60bRyEeUx788K5vxRRjQb8ksiOJEoIgqj81gyvx6D35jP6cc/zs4tzuaEHvczbkwlIiW4OoU2SZRE0akiPDeEkTiOHeKHybN4770vObBbWwqKk4wfM4biQpucPCfQ79Z/miIgCCHL5tefF3Nun7vYoWUP6jXozYXnDOf3aY0Q0xDXeHjaQlEPpbIxYghlu9x2zyncfOfJNG6aj/YsjBfl/v6P8u7gD2nQuDFFRYXrf8vEoEwU11V4XpK8whBOuAQxDUl5lbjGQ5lmWG5bypYXo91c3nhlJL9Pm8H5555Mh/YH881ow+MDfuSJ+39k1tSmuLGd8HSoyg3TaueWFBYWMfuP5ZSuAAjjx8VKlc3970KdCMpLRUiU12PYe1MY9v4XdN63Lft22hXjVhKLpRj20XjOOO06zjv/Gib++DXt9m7KguULOKPPlTz31HtoLxvLjvLME++yV9uTePaJIf4216qk/d7Neea/V3D9LadghyN4OkxOdgRjUhij62yXS3ku8WSCL8d+yeSpkzijT3duufEMJk4Yy9PPvcrCxQmi0ebcf89Q2u1yOm+8NpzqXWK1gp6IWcz7s4zvJy3FciM0a5pPJLpq9Zk1QxvDS8+O4Lzej/PN2N+Z8v0iLu57J2effT1jxv5ARZniwr530aTRvnz43gQ8T/HZiK/49df5/PjdQroffhFdD+9Dv7sf5u57HqbLIT24967nWbYgD4siwKbbYfvTsmUzHn7oOUaN/I5kIhRIjL8fdeNQXhaPPfAhN1z/Avt0Opgzzz6BovrgmUqMl8u4sXMYN/FHrrr+eH74eSBvDL6H2/qdQovm+Xw/aS4L56TQrktOroNlZxFP+s+OEgtlJcgtSJKdrbDEUFSYR05u7jrMGGtGZWUlFYkEOHDDbady5wNH85+bj6bLoXvx+itD+OTDb0kl43hSjqsS6FWjPg1oNwyp+vTvN5hB74zm+lv6ctLpnbDD8TrMxDBu/I+8N/QjZv42k3gyxc8/lzJ4yFQWL0oQzXIoLDbYIUikKjGkSAHl8STDP/mIJs0ijBp1H/OWvMG8pcPoceyBPPjwK4we9RteohDR2TRqXMRRRx+IHa7HGac9yHNPfUZpaTmbowhJnXQo24GikjBF+RG+mzyWsd+U0KbDEdihEBHiXHvrkfznpl4smLeCF58ewWefjeT776axZCEsX5zg67HNOLbZLhx/8v6cdOoRiHgY42J0BK195RwTxvXCOE4YW4FOJbHUmm7M6pZvCUKx8Dwc43FSr64ccUR7wtFlGDdJdo5BYygtryCRTHHF1adz3Q1nopSL1l6wUVBoIwx6dyiPPjgMN1bC2+8OoFvP7XCZDa741upVzg1gjK7ebIjv7H3o4Qt47PHt6Hve/cxZ8At33HkRe7RvhKECkVLuvucCbrrufMKRHOyIiwNEQxb9+p/FaWd0JSvbA4mDNY8nnrmCFaUeI0d+zh5tdmOnNq1ApZj83QQWLVxAqx2a0rhRIba1eTT02glKtF8MTPwQiLTCaEycsy/sjLEXc/tt7zJo8Ezatl3I3vvVxzMpxo2fykP3vs+oEZNp0aIZhxx8EF0uO50vR41l4vjRlFdWIJZg8PBMDIL9T5X1WStQK8AqhRrnTwdurBSBIYFibewafjchbUlTaDCGkAMh26B0DkYU5ZUVJOKCEwohloVlgyGFq02wIwNHCvll2lIGvjaLZKKEW++4lP27NifpLsWYHAQPjanhIQni8b0cSJag7OUoq9TffyBYyqWicgVuKoVOCm6yAmXiaEmB0RgpJyvPQUwCo11CSlOUn0uTBk3Jilooy69QI5LNlGlzWLh4BTvt1JZwTi6eSvHeoOl8OfZ3mrWI8tjT/6LTPm3QphII/H6ruXI2HWohqBp2GUnbZ/ybhiRBCaf27sXCOREGvf0pv/42m70PbM6U7+bwyMPDGTfpJ/oNOI9z+h6NMSnKliumz5xE7Js4WgxYNsaL+LFSkgTj+OZJo3yXlRhsCyxLo0RjK6qe9HSMj0HAOP5vVjJYrvx/0kBlMobrphBsFNkYHcEOC9k5Dk7IRZMEcTDaw+BhdDZjxv7Erbe+wYLZlfS74xIO77EHRpXiub6pwEgMLTEEFyMKN2VQSrCdJEbKwKSq7qYYsIygAgezZaXQpgKjkyiV8v1zRqGwUSqJUUIkIixZvpx4Ko6yXIzEQSKI5PDYI08wedL3nHPOaeRkZYMYxo8fx5IF83n2+dvYd9+dEFWOMoI28nf5hKtQB74YcAtjiESFUMQXC1q7eG4C7Vk4osjPDeOEPaAcpZK8+eZA3npnUJUupMhi2WLN9CnLWLLIwydUb6WnXRuhvCJGRUUFnqdrOBiF8uWG6T+W8su0pVTEyqpNEasgOyebrGiUN18fw+svT2b5gvr8/INm7uwVHH98NzrttyOiEiycl2Tqd0tZttiAl8fMaaU88dAHTPhqKuGQS79+d9Go5GCKs4+mQf4JFOeewHNPf4aXymLZEovvJ8xn1s9xyksF15QhobmIvYKq2HtYKa4rFivD8+KI8h3DlkSZ+XMpX4+ezZLFHloLt95xGV0P3Y/+dz/D58N/omJ5LibRgNtveob3h3xNj54H07Z9AZZdrcu5GlJeJYYKDHEMqeC+bCZf3vrBA1xEDJaNnyMAgNBuzx3p0XNvlCf85+JnadX4dHZucjq3XfU2icUFREwuGEMqaXj6yWF0OeBmXnlxLBJwJUEhQX10WyAVj6G1xnaclZ6yhwcMZf+ON3B4lxsYNHACiuyq74wIRhRahOycXPKz6hORbB677212bnEsh+x3BgvmLOXont1o0bwEnVQ81P8DDul0LUPe/hplFD/98Ae//7ICy8ti2cKlNG5Yn5N7HcPF553FuWeeytGHH0SLZg1xUx6PPvAmx3bvxwGdL+eT4ZMJhUOsmtJllEGLQSk/q9rzPJTlO3BFw5KFMW664V2OOrIf/312OIsWlFNQGObcM0+kINqcPr3vosdhl7HvXifw5KODOerIHtxy25Xs3KYxqDi+NLFwLMGJRBDLt5FVdcb4O4IPa6BO1VfAoFCBzQm0B8rYKBMCSXHCyZ058qh9WbIoyfKllYgo8guKGPjaYL7+ahzNmrYkHA5x2WUncdwxh5FbELhgJHiKjGA0XHrFyfS9qDd5+QpjUv53wUJdevnZVKwo5Ln/vs3yFeJ/GnADMYFRD4t27XbggAPrc+ihvTn88MNZsWIJSbeMHVrVp34jCySO1lEuvfwoTjy+G01bZCFUctzxe9GzxwEYI4Szs8Bo3EQFGt+F4Xku4YiFZcHpp5/MtB9chg3/isqKFKlYFCUOmHT9UV2l30UjFnvuVUDjZm0pyi/B04AY8gtyueOO3vQ5owu77roThfnZGFPG4b2256DD7mbK5FlMmTKdopJi2rTPpUHTCLa1xOfcEgcM4VCW7zB2BePVEHOBRFl7lMXGRd0s5cbyWbdVSb2GMZKJBUyZvISK7o3JKVyC7fxBfpGhqJ6FUhZaJ8HM46Z+BwAHgYrjqTnkFodpUxTCGM8PNDQ2aaVaIeTmJtE5MUR0kHhajWi2RW4h9Dxmdw44uAlixTBeQO4SREtIglBOjCtv6uIr82YOSiwgijFlVa4csYQmTR2aNA0s35IEswQnKijlRzloNBLyq82IWNgOeBo0Ni12KKRN2zwaN+9Ip86NsMPloAXRiurgtmBLYy3kossO8+Pn/Vp/gEJsTatd8tmpdX7woCbRGlKJ+dgRzR77atp2ahk4jIMwOpNEROGoApJlLfjzz1Ka76AobpgE5SFeGL/rRe3qwKZELSLPvwnpcJbVYECM5oReR9C797E8/9yr7NzyAB7o/zzKhFHGAi0Y14AnAbd1fUXVA1JhcMPgRsELrZwAIRojHqRtwMYvu1hTB5j60wSM+oNjT2jHrrvsCHqVZ8KEQWcFUQOADiE6F6OdIHtGEL8QEco4/vY//dKRINRFobXPj0UslNgo5SCEECJYykEZGPH5RySTSzn1jG7sunsRSlKoNXACTycwpBBW9ktq7WEkAZLwXSjiIcpDKQLxH8aRbEIqhKMEhfaLj6B56b+v03mfHkwY9wXXXXsuHdrtCF4Sgxvcx5rxUH8PpFmzZtVLGiQlYDwuOH9/rr32UES8Nd4kox3mz6lg8qQp1G+UTYeOrVjZNrSqnWhdEZM1j1v3k5VOn990qBmZuW6RIVU70DUeQfV9qe2gtd8DHQQQCv61P/XQSLJzsjmiRxuKG2b9jYJtzbBrLojPlfxdVZpDrdWHJnEaNrE5smnH4Gamn4qqA1b9wVoGq3u46qYlJqir7mHMuo5d1zWu/XsJIlnTQXm77taS7bZvQf0GYQx1sd5vOtipVGqlD3xRsz4LZYJQYMFkilX8LajZ9gQgpZeAlY/YxQR23M0OW+uV3RoqPWkRlFKs2R9UHagmmyU5YduGMYaDu3T0Nw/a2yKICWrZ5dUUI1XZvLVO1gTb9b/PrJ8B1NTDfHOW56spm1178mGvltlbJaf9GKQthfIzWBn+uq2aFbT5F2sLCBrN4J+EWp3D1TUL1meIdW2FM9h4WHXXueXdcxtW2X6bmpYQ33Rfe+mc9GeZTlJ/DasSxdpMFWsioC2HqGp1vRhj0NpsSfP8B2NLMEduPGR0qAw2KjIElcFGRYagMtioyBBUBhsVq9fYDJIkN1fmaQZbN2yodjpWmQ82oDbm34u6h7psvdi6rjUj8jLYqNhKCWrLf1I3Hraua92KqwBvXTf6r2HrudbVXS8ZZPAXsFL4igT9WcRk/HMZbBjscDhcxaGMMXiu61eZ3aKwtuSGfxq27msNdCgVhPFqlGUholDKz+SVdQbe/x3YEubwd2HrvtZamgcRWDe37gvLYPNgKzUbZLClIkNQGWxUKF/I6eq3W7kMz2DzIsOhMtioyBBUBhsVGYLKYKNC1eYjymhRGWwoMhwqg42KbYSgast9y+xoNwW2EYKqEfFoLPzL3jwNCv/p2IrjoeoAo4Cg94kk8Ykpw6E2Bf7ZBGUUiEFMlFS8hMqKJKFoOZGcSqpLHW5xoRVbNeok8gygZcNeZqVx/NKl6e+CHga1Hr8+yRJmTecR/xwuigH3PsNuux7PS/8dg/Gy/S5YdeJS/6yU8U2F2msbrOEzg4MWg5EUovMRk4Pn+iWUxV6OUqVYVhhLikErtCzFSBzthkilwuhklEQ8iRMtR4UdLKsQESGVjCM6G0wE5VSirDKUVAYt5cMoy8akinETUTyzAhVajgqV+uWoReO5ERT5YC8GBFINEcdB7MV4bjnGeCwtTbCiwiMhK0gSIyQS1IyxUSYfRS6JRBLXK8MJe/i9dxL4ndAhQ0zrhzpxKK0q8KScFcvh1hvfpDj3GEryepKf14O+fR9n9uwyKiuyueWGN2nc6GiefPIjLKshv/1WwYXnP06LJr145pkhWKEs7rr7bbp2+Q9nn3Un+3S8gJL63anXoAsH7deXoYO/w/WiQQ/jbG6+djC52d0pKjqERiXHstdu5/H2a+NAZ1NZHub2m99g++Yn8tSjY7jtxvdoUHIseZGjeGTAeHRsd2b94jB/nks4ks0v05cycvhsfp9RTll5nLIyuPiiZyjKO4KGJUfTvFFvWrfow5uvfYH/vGUIqS6o4y5PU17q8tCAD3nswSFccP5ZzF/4I7/8/AXZThMefOADli5fQb36RShTyLNPfMbddwzk3jvfY8hbY/j3v8/kwotPQQSUtpnwzXQGvf0N+QUFDBzYn8WLf6Br1x489tAgRnzyHZgcnn1qCP/73zCuvOpcZsz8nFGj36Ldngfx5OMf8MEHoygr0yxfKpQvDXH//73Dqy98zmmnHMfo0S/So/v+XHLRXezT/jQGDf6CFTHN22+P5Z5+A/l5egU5OY25/943+HbsZB557C7mzp/C/155ivrNd+Hq65/jrTe/AOOQqX+1/qiDUm7QXoQRn3zDp8PGcPZZp3LpVUejssfTIF9R0lQxfvw85i+awVkXHIqt8nnogRe49+7XCVshrrzyLC6/+lgi2Qm0CaFMCG3gxBOO5ZZbTqPFTkIiMR2xlzFu/HQmTJxNq12aM37iH4jOpUXzCMWNFlPSMJfTzjiI/vf8zneTltFm9xiuTuIaxdLlLn0vPJ5/X3YMDZsobMflpttOou+FZ/LgI2/w7rtDufHGs7nw38diWctJuRXEYorsPE1x0z/xIl9z4BF5DNn3WuIVCQoLw/gtwjJYX9SBQwliosyYluCXaaVkZWWRl1eA6BIqlxejUlk0KCymIL+IcFYlZ557OOed9y+ywgVcePF5/Oe6PmRlxxEqUcZDDLRskcvBXSM02H4BSb0IUUnE0sGshIkTpjL1h1mcefZRHH9KJ4wqRas/2aN9c1q33oWUq0kkk3jGr4++a5uW7N+tIQ22K0NCZWgSNG5u07ZjFg0aODiWYIUq0WY+nrcCZRm6HbE7SEMuOOcFXv3fl3gGcoo09ZsK0Zy4v1MMuitksG7UreewpxHRgMfjj/+XFk0PoV5hD+rVP4pvJ/5An3MPo3GzfDydZOHCRfz+x28sLVvOtxMmMXnSdxitEeMiEkeZFI3q16Nxg4Y4EkVMCBEHsEk3xYwl4ySSCeywQYUTeFKOhxCLWTHW4qoAACAASURBVMQSGq391jwifrPGXiccRZduByBK+VX3NIg2Ve3+lAVK/LE9gZSu4MBue9LzuL3QJsJlF/+XNq1O49mnP6WyQhClESsBKkZ1gdQM1oY62aEikQiOE8W2o1x22dmc2vsoli1bTGFxDgUlEM1dTlbEZsXSKI898jbPvjCQaDaM/XoMTzzlcGPRSezQKh+Di1aapOtSHqskkdQoFUGZCK5rs33LBuyySwPscAXRqCYaCWFZIbQWQiqHOX8uZtH8hezUuhHhsN+oSDlxQlkrsJx4VX3Q2ks5BtAWQhStHS665GTOPLMPg9/5jGee/h+33/gKE8ZM4uprerJ72+b+QyRpm8SmbgeydcPKz8+/DWrYe4zfE6pjh+3Zf78dq94LCqM9ksnFzJgxizGjp1FSlEeXQ/dDexb33vk/Xn3pM1o0352Br4zhsUdf4vJrevDGuzfQuk0B7777OQP+bwizflnMzru24Kdpv/HeoG/5ZsxMUhUl5EZb8dhDbzDyk5FceWUvjj9pT3beqTnz/izn4QcHkh1pQZs2h/H8M+O4/sanaNTCps9ZR1LSII8vRn3H9xP/4JBD2rHPPi2wTDLILfS7klrKY/bvc5j63R/ss+ehfDv6V36euphvxkzlonMG8MP4xezRdge6dOnEQZ0P489fl/H559+we9sd2K3tjn4HNmTtBJoBUEcOZUiw/4FtuVllcV//Qdxyy73cdPO9KBv27rQzV1x9Mtos5scfv+aww3ahe/e2ZEWFE0/szi477MaLz75OmzaN2X6HpggWhx3RmXCWx8OPPsmddz1Jdh7cdNMpnHJGR5QqQwxcdHFXFiwo45rrHuC6Gx/GiGH3do3oc+6xtG3fDM8kaNgki+L6EM4K+uah/LZmojFowOW007oxfcpCbr3jdvLy4ZZbL+KCc44gp6CMB/sPo1OHob7L2NKEInDLbf+i14n7gvi9kX0OlTFurgvSvHlz4zcJkhrdqIS+FxzItdd0A+NWu1ZF+zZt4yAmy28Jlm5CLUkMCeLxJD/9uIBwOMQubRojVhJlBU2J0Pg6Ug797xrE73/M5cprjmf77RugjIdSHkgKZblgkmidQsTBkgaMH/cbM379mdZtWrJT65ZEHRfRlb6LV2eDlwMqhUgMwfM77RiCLp8Jf55eHn5vGsvPElMx/7p0FLwswPINmZJAVAykwp+ziN9t3WT8f+tCnTiUGPFFnzGIxEDKQLzAg28DmqyooUPHRn6HSeMCBtEu4GBw8JVbv29crHIZlbE5KMlCYfmdzDG+e02coK8deG4Zbdvm067DPlhWFKNd8FwwNqISiFoBxPE7g5p0I3W/350X9ZscqTjGKgus/CEkONYY8Rsi2ongKoOWI+JhjArsUH5nztXqaGWwGuroHBbA8rOMJe1UVUHfLTc4wgqOc0k3vPebKAL4zaqFFNpzmftnBYvneajdQn6HcGN8UYXfFTNYPsTyEMvf0Xk67rt6/IGCS/B87mSqGxr5TmGDUeXBXNNcJoTBb6PqN5c2pL2JVTB+Ry5FcF0mPZMMIa0LdSQof8GDfzHBxsdU9Q9aRRzIqgsgVQeL0uRkK3LyHSzHwnNTgWhZRfU1EiykWQ/3rM9dxIhPTKJX/TY9C38cU+N6VkP6YcgQUV2w2cJXrr3hNFAeqHJcN75WQqnasddxbSXoCpEm/DR9bxHlGv6h2GwEJRIL2sS7QLjuAxjl6zoG/OC5WrjhmqDtgE2t2oF0tZOs8lcFTSc1xqRFZM32brLK322Pu62BoHT1q6bYMKs6SKvf19lOIxq0BVjVYpMa4jN47+8+YeWFNyBpy3X1Iq46s9rf4IfFbBD8CjXapEVrcH4xq4j8bde8UGs3qpWJSW91D9rGE2nBAyPpWHTBGC+g9+DzNIfyy9Zs87aqjMczg42KuulQNUNsJR3KW90PbbVNXZ0GTj/pac1Z/dVB1wNpkb0qR0lzmZrn9tuwaq0xIr7NSySwY+mg8fe2y5nSqKPrBYykyyfaaDeX+XOTTJ36Jw0b2rRtVxBoMmm9a31usNR4WcGWzLcNoVLVYmWTW6nT42tfPxMPY1L+e2ODiaKU4EQMP45TzJpZTqvdCmixQz6hkIsxMbTxdTMx2y5p1XGXZwEerpskEXMY+Opn3N//LRYsXMF/rj+Ktu2OrvsMjKBUCM8T3KSNkhwcK9dnVqEYRi0Ft5xNv0SBYQ0HdARjFFr7nU0xCiGKchywKnn55Wd45plR2CG46qrenHX+fhTX21ZJaGXUokOlDXoqCC5TVe/FBHZvJ8rgwcN56MHn6d7jIKb+MpBrrjtt9d+nn/qqcVZGerF0sj6fD1vMKb0GsOsOfdih6fH0OOxqPv1wKl5lAZ4brR5rtbmuayHTHLM2s4Ks8j6E0UXM/k1YujAfL96Sn76Hm659mQvPG8C4sX/gJrK4464rmP7Lx5x68hE8cN+rfPT+t1QbQbeyHcxGxho4VA2CqCIEf2HEeHgmxNwFNk6kOXvuvTMl9ZIoqQycpxojpnr7b/xTiHjISvTrO4yNwOOPvEn/e4YQSy6nSaM8RGkmTZnEZZfO55rr/0XvM9v5TmpFYP9JE4j4zt81Xl7gl6viPmkCD8QrgHhVLhm8bD4Z9hP/d/frTJw4BTeIVSjIgoI82O/gDuy+V0PCWTGKwmX8q08PZs1cAiYLoyNglSFof+xaHqBtAXVUygMXiHJAOWgUJiASES8wVPrD+gZA8CTl84JattMivi7WZs96XHRVR/bu1J5OnTuQm5PDB0O/5I47XuHXP+cQT+xONKogqJ9uCCJHje1v56Wm3paGwRjPX2DxTyZVwXEq+J1HmqMYo1E4zJy5kDnzlnB4z9055dQDaN9hTxo3bkwyVY6RUshaiLZCaC+fWDxJPJVCGxsR5euXJk2w2ybqbClPcwPXFVKBbTHdEs0YC0wI7WYjkoNSFpgKlJ1AietHCdTYtSlRaNEc2G1H9ju0GdpYaHcxKddgKUWWoxA3QTKRIBLWICbgGbqKuGtzIQIYbaG9EErCKGWDpPyYdXED0ktbyRXgYcQF2zB15izmzp/HpQcdwuE998RxFEbPw7LiiIphVBJDERibWDxJMpXCCkexnAieZ4PZtjOR68yXjUBZeTnlpSuw8LDFQ4kFhDE6h0Qil/ffm8hBB1xMUUEPrrz0CebMrgRyMMaqCv3wPf0EkjTLj1Vyi9DJhtx83ZucdNydlBS2pnv3o8jLzwqs2z5HERFELAQnCCkJAusMKCNYCMrSzPkzzvlnP0/zxqfSee/zeeLR91i8xEVUFhCl+nmy/U2B5xGNaEIhcELZ2Cob44UwOowiC1vlICYLo208bahX0pDivAIeHnA/Q4d8iKcFJB1tsW1ivQnKIGCH0UR47umPeOaxwXTcqw37dNodn28YEkmHh+/7iAvPfpKKpQ5HdD2Y78fPpWfX63nluZGIcRg18kuOOfIGHh7wEUb7IkgQfp1extlnPEW9wl488OA7iMoiEk3hWfPQJAOiNUGBfqo3C2aVzYNRGOPx6zSP268dzmfDfqDNLrtSr6g1D/X/gkf6j2HhHEF7Fk8/OpwD97qGV14cgUZhhYswko0o+HDoV/Q+6Rr22/t0uh3UhztvfZbpP5bixQvwEjlo19CiZRH1G+fy528uS+c0gEQT0CG2ZcW8blkvKZuXnvuCZx/7iLa7tOTYnp1o0aIAxMX1HD784CveHfwxLXduyu33nM5LA6/m8qt7k5dbzOzfl5OKZ1G2JI/FiyzKKy0810GUIeVW0KBxLl277M5tN5/NwFf70/u0LowY+TXHHHU9D9/3LpXlSUTZKKVQlkKU3/GhZoF+P2xFEOPw5HODGP7VUK67oydvfnArb394F0+9eDPfTf2eoR9+hWtymb+ojF9+LaUino1tRxCWo005RsPIz6by+4ww9fI6svCPfB4cMIbTT3mQT4dN86NWrcVEcko546zDadtxD268+SHefP0LdLIEJVkbfaG2FtRJh1qyuIyfpy5h/jyXk07anyN7dMIOLwQSuMlCfvqhgmlTF3DltQdyWM9dELWUY07aleNPHYD24hivlCN6dmTvffbCskGUgNHYIY9sR3N6n66+BZoUBx7ahL32acmzj3zCoDcm0mqnIo46pn3Q5CGo72Q0xvg7PZEaW3YvC6UjHHpYJzofuDNOtAxNJU2bNSQcbUIs4WBbFrf0u4hb+12GZgWx+CLshMtZ/zqabgccx/Y75tOkRQQRIRZL0r/fi7z2v0+Y9XMlyS4aOxLD8yzad9iVvdvtxQ8TfmPc+B844KCdaLH9BkRP/ENQp2iD4qIsjjmuM7/8Mo/HHn2ZpDeXm247hpycML/O/JNff5lHbo5Nbn4lYi8F8Ui6gqtD2LaNwUXEpbip8ukGhTEKMR5CAmNV+PHgpMjKhyOObsvE8TMY9sFwlpWWYcSGYDdltOVHhyq9ssYivinCtmzeH/w10UiYY47rxPRps3jjtVF06LAHRxzeDrGSoFK4noslLnl5eXhJTatdDK3aKMSqQLMMEUNWfpgG25WhcmIsWLKApcti1G9UhGMX8tC9/+PlgYNp1Cybo3sdQIsdizDe0k21Xls81hBt4AXuBxc/BDZwjCiPzp0b8/QLF3PPvYMZ9vEUOnT4k+NP3p1YfAXl8QQNmuXRbPuGiBPB9ZLEEzmM+nQm4TAccPBOiFWJZXuBWdGmbIXD/LkuWdkhGjSyEcfDEKKyDF58YQiDh35Gr+OO4JBDD8KTMKKjiMQxBpQC2/bApC3aoHFJpOIkdJIrrzuXAw5qxR9/zqTFjk0Z+O4A6tUrxFBJyqskpBJUli/HaEVeXh4QAgkRT5Rh2x52WDA4JBKwfGEYYlF23KE+hSVhRMG330zlw08m06xJiH79TuTgrvnAHF8x30YTGuq2yxMXVJyi4ij1SvIwros2oBybBo2jNGkW5dcZS5n2YwqTaIytd+S/T47lwrP7M+LTSZSVxVDkkSpvTmx5Pdy4w5cjJ3Phef05aP9LePjBkSxd2IQlcxtw963vcc+d76J1gt3a5tCwUTFKNyRVWZ9UrAh0rm9bUgZRftNtFehToYgLymPw0LdZtmIBPXv2pMsh3SgubsTTT7zEB0NHgZdPsqIJKrUbJtmUVGUeb706ij6n3M7YL5YTtvZAx7bDxLbnpWdG8/Y7Y8ktDFFQEsNIDBBSrovneZxw4ons06lTVeYQ23ASQ52jDTQeWnsoAcc2KPFAG4rqKbp025EJ43bggXteZtigEVjK4efpf9CpUzuO63UIDRrm8OCAV7jvrg+55PLjuOr6wzj6+M4sWxbizjtf4s47nubefk/jen7KePs9m3Lldb04tPtueCbG04+8w2MPDiUnT3PDLadz/EmHoD1B1XDGilggUJTv8MfPFVxyzmMcdugUotEQI0eMIRZfxB13XYDoBFdf/SgvPPcRD9x/Pn3/3YulS8oY8+1s3hx6Pc3rRynOj7BoYSVuyqaoXg797rmU7sfuQEV8qR9kZxQKRX5+FuGwwvM8LGW2Qb5UjboRVI2QEj9aww8483QFtu1xxJHt2e+Atnw1eiKjv/gWN+VyxY296dJtH3Lzwhizgt7/OojcnCT164dQWGh3Baef1ZpTz7mHJcuWMu2n6SgsdtqhFYUFBb65wLjYlnDo4R0YM3YWn386kWXLXJRYiE5bvP15KSMYhBtvOZYTTjiQd9/6ku+++wnXdbjwsnYcdXRHmjZtAV6Mc/p0JTdcRv0GK4hX/srFFx/L0T0PZOCbg/js8y9ZtnwZ7Ts3pnv3gzjsiP1p0KgQTBnRiMYYKC5qSF5uHoZyNDFUOmJiGyapOoavKLSAoHFsg/aSxMoVOpWPZacQq5yi4jDHHNuJo3vsj6/WxDASx+gKlFI0aljCeRecidZxkGQQT2SwNDTIz6PBvntjjEp7WTDGQwdRkrvuujN77bELi+f+TtNmUUS5GNePRRKpmRfjp2HttFN9rr/lX4ixwKQwlKGlDCGGUkKHvZrQof2/0WYZRuLAMppvn8M1N/Thqmv/hTEGZVsYz8MzHiIp3+aWKkZ7xSya9xvlpQmU0ijlx0tt6xGbdaoPlU6FMyrBzruGyS+IM/DVETSu35pDDm+KHZmF8SrwpAwjlu+KIS0CBG1AuzHExKqTOgUMrn9UsPMDFThVBG00WoNlOcTiMeYvKWX3vXZnz71aoyxBG4Vxa7g70nYp8bCcFMZUYJRvPEUblPFLOCIpDMswohHxUMby3SayHE0KrTSiwDUaAqu8fz2QqMjll1+W8vTTL/L9lIk4oX2wlINR6fipv7osWy9qSUXXYDz69j3AT0XHDdxvBj/1MUga0FkIYb4Z8wtvvjqavffdjlPP2BdUAiQZOEn98jw+/KC1qpepkfNmbH/cqrhsf4dUnaErfttaslGmAG1iGGs5qYQfMxpytE9HAZfyIxBWT6iQwHaF8cdL5+b5+Xn4DmOlMcqrmk+asEWrKu7z2MPD+emnOZx0ag/23KsV2VkpLCsJJhk4sLddLhUQlCCi/XCSYAve94L9ue6aboipmV1SIyUl7elHBYZGD0OyOlykKrR2Q29sbb+tkWWzQWnhtc9LqM5aMbIqIdYyislC44C4iGifsRrffvbXr3vrxgbk5aVFSsBxgqBf/9Oaob9/9YaufWE3rL5A7fMyaVm+lmNqzkepBGKSQXiMx0rBhNsoIaXxFxI9VxYn25LakE7y9Jnktr2rWxV/IaywZnLBtmkVzmB1BBwqrUimFeXagsRWTbdOf7at8KZVxVlt9yODf3avl02KDCHVhjUQ1KqZKzU/31Y51D8Z69pMrP86r05QJh2oFkQ/omqcqrZkgE2N9NkzhLtpkL6/a1rXunHibTPXJ4NNhgxBZbBRkVHKM1gDaupV669uZDhUBhsVGYLKYA3YsB18RuRlsBZscoJam71iU9qkVpXnGRPCloo1GjZr1iOtxuZYzG2dgDb1w7Su8ep2vowOlcFGRUaH2uKxdXHoDIfKYKMiQ1AZbFRkCGqLw9Yl4lZFhqAy2KhYQxXgrfcJ2fqxdSc6ZDhUBhsVGYLKYKMiQ1AZbFRkCCqDjYoMQWWwUbGGkohbEzZXBEQGtWENvrygUgnaL3ezqdfErJqutQrSnUVX/2LttSyrWnb804lqy8kMWnOLWKlRCbgKf6+NpKrrQrpq7PoeL1uvHWfDsPkJKY1/rA617RHVloEtLnwl3WncGAuDhxYXZQxqTfSR7pAlFsb4ZXmUZSHGoD29BT27fyc2X92FLZJDiQE8i0GvzeDZ+2czd1YB6BxWn26NAmTK4uXnv6LbPv/HI3d/xfJFf/OkNzuC8gFSU0X5+x+nLY6gBD8Vft6fi/js89H83z338OFHH62lApXfF89NppgxYw4//jSLxcuWk3LdTb+Z2JLgZUOqBNwCjHb8ZtuboV76FkdQAMZoPC8F2qNxo4bUr1/fL7q6BvjtztL/Q/369SgoLPibZrsZYaygNKXNW6+P4eDOl9B5rz6MHjUZCJor/c3YgK7odTtB+ilRtZCEAEYE7deErnEOgycQF2jQvDmNmjQmXbzXbyhNdbN044AIWnx9yXZCRLKi2I5dNd/anlNjTC1zqq6PaWRlnpgubLsqqron1Hjvq3W1cwcjoNNjmZpiKhDd69jQVs8jqK0cdE4VsonFQtjhQkLhPGzHQetU9X2t7T4YSV/tWs64Lqy8818jQVWpdVULbXC1xQ/fzWHwOyNou0cbehxzIK5XSiQSYu6cZXwxchLlZZUc0u1QWu/aGFfPRuskleUOX3w6mSHvjqJ0uaakfoRjT+hM18P2RqwUxgipRD6jRvzMu+8MIRYvY9fW+7J4qY0TEZzcFXz2+TQ+/+R7uh22Fwd3aYdSDjN/LuW3WbPZcZd6NG6eh6s0nhK0pfGUJpGsQFnFfPnZXD54fwTxRCl77rkH3Y5oT5PtYhhSWGRRVYFPPIxWiM4iHhNee/Vjvh47lYIii+OO7077jjugnFI+/WA6UyYt5sie+7J7+3xQYUwqyu03P0z7dp05plcH3nzrDV7738dc8O/zsZTH16O/Y/7cUoobRDip9/603q0BGBvbykZZTXj3jeEMHfIulaWKo47eh+7HdaSgyKBdQXQJb70xlDZtdqd169YMfP19XvrvEAqLFTfecSFtWrdhybIYlck4DYqihCPFiF2IcReiLAe3MptnnnuGsV9Nw0tGOODgDvQ8piv1G2ahVBKFDuyOG0JYKxuP68ChBCdUwOw5s/jgw+lM+VF4+62f+eyzERzSpQ1ZWRFGfPIDi5YlObLHLG666QTatG3MilKX++4ZynOPf0JIKSzl1x4vLbWp17A+e3RsgDFZvPjyhzx03yAWzo8jIgwa8hvxpKbHkQegdS6jvxjP4w9/TXG97TiwCyhl8cXosTz33Lv0Ofd4ep/Ztardr1YaowyWNGLQm99yz71v8ccfs8nLgbffHsuAAQ7/1/98jj9xHzDlNa5RE4+lQOdw5dWv8NZrX5EVCoOq5NWXx3PqGV05t+9RjPjkVwa+MoqJk6ZyxXXd6dChAzf+5wmef+5z7vi/1ixbkSBWmcvc2SFGDpvFtOkzGT1qAiXFhaTcJIMHj+Hu+8+j62EdUJbNJeffymsvjUYJhEMwYtQ0Bg0ZyQ03nk3btm2xVT0++2QhyXgpjzx0H4MGf0lONshMmPTNcp588HGGfTgJNxFiwfwFHHXk1TRqCg88eAWNGzXn6svvY/SoaThWFMdy+PiDwTz39Mc89ORF7NO5MWCjjLVR9oR1FLIGjOAZi+GfjqFFk9bcfP3tjB+/mCFDJ3LpZRdy5x1X8fXoyQwb9i0JV3j5pVH877+f0POoLnw0/EWm//o5P0z9jEaNdueDIdOJl+fw48TlfDp8NqXlcM/9/2Fx6Y/85+rzcSzQOGgvG7xQUP4sEBNGSCSTOJJHTqQ5lsqFGtV8tTZM+X4+A1/7Bp2s4PkXrmX6r8N4b+jTtGzVgVdemsyEb/7AYGOw/BrsJkR2TjNefH44Iz76kjv69WXWgvf4de4wTu3dncFvj2LC139wd/9+HN2rOx9/PJmxo1dwzZXP8cLLn3D1dZfQ66SO2E6MeiWNyIkW8exTb9OiWTO+Gfce02d+zYiRw9lh+wMY+NpEZvyynAfufZv33p/EYd278tEnLzL158+4/NI+jJuwgm/HLaF8RZjS5WFi5cKzTw5k9Iip9L/ncr6b8g7TZ35K79N7YqtsUnHN8vgKGjYppFev/Xnyqdvp0KEdIz+fyMyZi7jm2n/z3ZT3mLVgMBdc0p2KCpeKiiQb27Sw3hzKV3PKEVVGbpbFib0Oofe5bXAiZfwwvSUFBbtxwpnbkazM47ffj2fCuJ+Z+v0c4uVhOnbcmz4XHsmu+4BY03G8KPn1Egx6azQ777ozf/w+l7FfjuaSK47hpNObUO4O55Aj8/l23G4UZOeTnR3BclxC4f9v79zDo6rO/f9Za+89l8zkRkhCuAYQBaQ0cpGLVauIcrxhQXvUWkGtxdp6ir/2seqx6M/H8tNWW+vl6LG2XusRpEqtiAe1WjkIVD1SRC6WSxUIhAC5zkxm9t5r/f7YezKTmISEk4Ac8+WZ5wmzZ6/ru971rvd91/uCNNLB8w3QIQrySsnNzQUstAqglBdz3LVNlixezhtvr+LmW27gnBmXEgob7N33HtXVVUwcP5Y+hWWgIggRR+AgVA6Vn9qsXlNJYXFfBpcXYNsNxGMJGuqTxGIpUm4DBDdw5z0XUtY/ykP3v0D1/n38/Fc/4FtXTcKyBIZ0sCKNJMwmJp0+mcuuOYkhYypJqTrMPDBCCV5+aQ0njh3Ae2v+zugTBvB/bprGSZMVyt3F9T+6hA82fsqyV99k4qRyQlY9sXgDH23azpPP3MkF3xiFphFELaD41b9fTmGfAn731KvMuvRk5v3LZMrK8nDtFKO/WkZB3yj33fc7tm3dxY9+chW3Lvg+N99+BdJq8CMad5/Ns0tCuXcUhYQNxQMGMPy4ISSSVfQtLiEYMuhXNoCGWoNAToCahkZq62PYjsAyw0SiAaTVhCaOl97HRUhNMhmn9kCCVBwsGcIyc0E5SDeKoQOYUiK0gesIHBuUxssFowOgQyAkXuYG0EqilPYUnNok3iQxBfz6vgd5+qlHCYcUNQdcxo0fy+VXnMyAcgMtahAihVAGQkXYtm0nlXur+eijSn48/34MI87+/Y0g4ebb5nLhrCkobWDIPCwrCEJ7CbCbcnDtAIZVjykNDGkRlpIr58xh4tQyXLYgBDh2GNcRDByST0lZLq6WnDxlCmUDB5JybIR2CQQDRAMWdpPy+oZGuZorr5jBiaNLUSrmZazIogGlk4CLlBYQwHUtlIaTp45g8R/n8f1rn+T3f1jKkqVLuW3Bd7j62pnkhByEjiNE99k7u3bK87MshE1JJGAgpSQSjRKKRnFVCtM0iEYjRHIiKNfBdW2U1qQcF9eVGCKKQuKKIJgmfUoDRAtBmC6mZeC4AjslCYWK2fb3T9i6dSfFkwfjKhs7pXBdQIXQTg62a9FYo0kmMmH3NeA4DnX1dSghMUNhQuEAP/nJdZx6egXV+ysZOmQE5cMGoeRetNyLkg6oEKAQMoU2bLRQ/PimuZw1fTSVVR/Tt6iEkyomkpsfxlE1NNRaLP3DSp5b9AqjTyqhuCrATxf8nD6lt3PxpZNQ1KAFJLXXHtcxcEUOQbMvmzbuYl9VHTNnncGoEwfz8osfUL23jtqDKfr0zUEbCUyZDzJEvwElRAtyKC3qRzA3QsXEMfQfnIcwD6KxQZnNU6hEDLDRykC7EZQdQbnefBUVjGDxknvZvn0PN97wAPfe8zivLV/BL+7/HieNL0U5Lt1FU+3IUK2DtnofiZfCXiiB1BpDgImJKQzvCK4lhrAwpYkhDAwsAlLyj61/Z8uGSlSyFEMNtNzbQgAAE9pJREFUpK4qzJ5Km6lfO40ZZ59JSZ9SwlYuDTVN2AlFKgabP9rJ7p3VCDTBgEn54EH0LSlm5669VO2u4W8fbOLd1X+jcs9+krEYJi5FUUHQEBjaxInHycEllYRYo83IE8YwbfpXGTDIYdU7b/Lh6i2kGkMIJ58dn8TYs7sOUBw/fChDyvrxwvPPUnNgD9+8+AImjq9gz659vPHqKnZti1G5o5FlL76Dm6zmisu+zsKfXcvY8SP53WMv8/7KSoST6xG/hnvuuZM/r1hLQAxm/x74zW//wJZPPmb0CQM5fthASgoK+M9XlrNt81aEK1G2w0//9RaWvbaCr4wdTVlpX6Rw0EJTW1tNMpFAatObDZFWMzgMH15CSXGEgGEiVYCDB+toisNdtz/NM79Zw96qaoYel89Lr97FhFMm8Paqz1jz103U1ca7rgvqAG1wKE+vILL0F+n0J4Zp4jhxmuI1SFJYgFYWlhagFKajqK2uofbAQbTj4Dbt4+STc1mzMsw9//dxVr+1kcLCQt55ZxX5hYJZt/4zpkgxc+ZUtm36jJeff5sNf60kFmtgd+WnRIMmphZYJLnwogo2rNvKs4+tYMVL75F0FDUH68jLCVFzsBalm6iYUMSo0cVsWbeXvZ/WceWc89m2vYZ7736ED1dvYWj5CN57bw3rt2xiztXT+eHA6Xy8fjcL71xKUUFfbrp5NqMr8ph+TjkfrVvHrxYu5y/LKkkkErz//lr2VO3k3vt/zIfrNrNy5Wp+8cv5zJp1KtKUzK/dz90Ll3DpJfO598G55OaHQWl27Khiwc2/56nH3mXr1k18sm0382+czdfPGE04DNPOHsmG9du4/abnWb6kmsKifF574zMmTezHxAklhIICp6kJJRzqYzXYqQRSW54OrjnhgOaSi67k9Vc+5TcPLyZe5/Du2nXMv/FaNm9M8tCv7+PJJ4ZwxulnYllBdm2tYlApDBtURm5OBKmT3aZV7zisdJafkhAgSFFWlsP48f3p39/CMOrRsoGZ3xiKdoMIIJmswU3WUj4on+NHl3H88SPoX1LOffcs5Y03/ogQEIkYXH3tLE47bRCGqKO4RPLTO2dxwuggzzz9JyZMGMetC25k2avvUlO7ncb4Jxx34hjue3ge131/Btu3fUZZWX9GjRzJ7x5/nkgUTMPln84+k6rPEkQieZSPkISiIZ549gYef6SAR/9tOR+u/zNTTzmeOxbOZ/LU0QTCiv79A4wb34/S4hIGDTPR7OFbV36dU6ZU8POFT7BsxdNEonDVdy7m8rn3UdhHsWbtGsaO6cPQISYGCbTbxHnnVjD9jMkEgyUQiPHaiv9Ca3j44Ttw1B6eeXYR02aM49GLf8ioE4YQDqfQIs7sWZMZPKCAhXcu4U/Lf0s8CT/51yu46jtnU1AkAQcz4FI+SHPiqFLy8yJo7Xhzo/FWuxYoazvzbzmNu+/exYvLFnHbgms55YwSzr/4Vv64dCz/9tBiHnj8CZQNp0ztw2//3wLGVPTH1Y3g7TvdQlBtpDfz0n1dN++0THqz7De0AG0gpC9zYHtbrw4ghQX+xggKpZtQ2kErC3QAoQPgP0PGkWa8WeWttQQV8OQZ4frCKHieBC5CCrQSnsCd3SId9MtLZpzthA3CRgjteS24Qa9sX3npPXNA+oKDtjwzhnAy76i0Jju9r7gI4aCxEToMKuwzc6+tWisEBkobONrizTc+ZuGdS7nue3O49MoTUeIgpjA8rbSjQHuZrDJbgYnWARQWWlho4aK1jZdJ3hMppNaIFlmv0nlmNAqFSm8l2kvxpry0qwhM77fa9P/vJZNE2AitfWGmewiqC0K572wnHW8AMdAqAHgT5VklUmiR8tixCqDdHI9ARRJEE8gYCIUQBgIToUO+0TeTxw4t/UH2xTst0Crol9NGyhAZ89uWJiafSFQI5R39/JXsW+GF6xNKCFzp59nzJ1ZH/JXvIoSLzk6mqAUaL50bwgWjkWaPURX0FpFwARe0QiqFiUK6LtLVeGY1B4XjT6h3WvVSxHlEoUXSm2hMvDynrj9erp+1ND1W0Jb+qNkY7i8sQxteOkDhIISDkHE8b9w04RmZcesmdIGgZKYROifdBX9lC8BBaxetMycPZJzmQdcmEPCFMrxs5sIrU2tvEhAKjFjLatNcoNnVN+s4oiWoHJDeavMIya8HEML1xypLEPQe+H+7PndNV2Zn6kz/rEX+PL8NrYVY4fj997i7oQOEg3lgBkkkQji2iRFSzcZQT5GatuO1aIAvwTqZRmh8s4hBsymghV3M40ISmbE/CjJlp5NLCp1lM5QIHfIWeprDt5nfp+voooNd+lCYMaJmWLbhd0ZnGwDxGqraqaoLCrUWfj7p5jhA0nuWbWjV6bamv9N8fsCy+gB07O7cOddnz+tBIK04p5xaztIX7iAUChAw65uLVr4Wznshu++i+au0EiTjAp05jHc0WtmGZY3y6tH+lzrTN5Fe5CKdLKr73Fy6z2NTgNDp1KxdfNW3nrd10mhtzW8BZYEOexxMJr3vfDmhOwepq9AihRmA/CIN8qA/y8ZRaYsQvjkq20NBC0R6AZKkO7e9wwja6iWmbr3CmyddyyzPDdHcIU/GyqwS5TMy76ftrxKtyZIz2oB0vHK1v4r9LKM0l9sRWtfbPf5DyskBBEJ6W5fO2lcPzes+vyS9sW3e59KDSUfjJpplpfTP0vKSP2/CoSfyHHaRoFp34NDsUrTb+SzW3y049CAfGYhWW0z3Ttj/rH/Z5NwzY/SF9NjsxbGLw9jyoFnAFTKziWntCYXtXl8SWSe1LMH9MPDlvX/3xUfnOVT6yJq+BCokwrBIOQaNjREcN9LyNK19IVQ0kfYG8JSASdrUJ7WsDHA8QVs0gdGAkBqpi0BF0aIJZL33G310BfBetETnCSrjxI3WDsoVNNblsOiZzZz5tZv55S8WtdK2pgXCILh5oPIQOooQIcDKCNFtQRvetSm7LzhF4OaxfUuceXMf4JsX3MVbr1aTqC/2FasZb4NeHH0Y+fn5d0DW9uHTwYQJQ/jaKcPwNCf+A+Frbgnz9psfM+97D7BhQ4zbF/yIb146BdOMZabWJ8CGOsFbKzbxj+0HKCkpwjAEhkHbeiUfUkR44jevMeeyu6muklRUjKS4uJgpk08nN7eUX/9qCatWrWPkqMEUl0TpLqVc90BkFKNHtyFHBV0UygVaSJQ2WffhPhI1Qa6ZO4Oz/qkP4ehBTzUosj4I/vTK69x664MsWbSGvZUNSCk9k0bWNqWFQgmFwkSpHBYteoWHHlnKtt0p4k0BbMdChg7QZ+A/uODiMUw9pYI1a/7KBx+s9+1VvfiioP1gGdkBM3Sz1QBv27OwbRPbTSDNfbhiH0opBLlAyjeDABjUNZjU1oUJRwuI5IVxAQPDs0tpz/ThEZMLOsqO7XUsW/YZtfsjDOhbSDQaIRCyfN9vUEYCEUpxsMHgQKP2RDX1ReIG+st1wbQV2g3n01H0FYWBwsD1b6dKJIoGtJlC6WY3PDSQdJpocOqxolHCkXxcXYfQCkNkcyiNUgFMs5DnF73B66//N5fMuogD1TFs1/EtbhqkAMPG1kmStotydcbk0l4/egX2I4rD0kO5rovExZQK5ablF39y3SipeCH1B6LY8QKEzkW7YAiBIdOa85b8xBRRLFnK6nc2sXbVeq6ddwmzL51EY2ovWjjILOIzDINQMIgQJolEklQq6bvcHPYY9KIbcVi2vN27K9m6YydmyLt8oJSLkBFQBby0+C/87K7n2batloBvpdGOxEjLTSoEMuVpIbSJFgo3adBYr3j1lfcY1H84s2edR13jpxjSJS8vj1AoB/C8EKShGTykP/37lRKPJ4nHUwRyQ76lH28rzbJb9eLIogscSuCmclny9Kdcev6j/Pfqj7nxR+cz85KpSCkQbpTnnniXu+94mQF9B/Dikp+xa/fr/OCGy5AYCOHiapvNm3Yw94r7ufrKR9m4cR/KLWDj+gTXXvMgK95YyzkXDWfYiQJtxHBIYgZcrKCJxsI7QSX4529P4oqrzuL3j63n3tvXs3dnDsoNoUmhteNZPXo51lFBlzjUgQMHeO/9D/n7th38y/w5XDx7FnZqD46y0XYR27c3sWlHJbO/fRbnXPAVkskacqIKwzCQmKBdRo0ZxEOP/ICUkyAUymH/viaefOIVXlv+F25ZMIcZ503GVSlijTaxxhSOLYjVB5BGgHA0hZAQCoW5bt51VO4I8ehjTzKg3OH6G6Z7ytb0waEXRwVdkqH6DcznzHMHMnZ8Lo889BS33/YgibiDNAw2bNjKx+s/YdK4EXz1KyUkklV4rrECV7kgJQgTVyXJzZcU9Q0SDMLatWtY+9f3+e53L+e711wOTi7SLaN6j8me3UkeuP85JoybydNPv4hGY9uKyp1JbrnpHv7j+Ue5+bbzmXvNqUgjgecJ4R/7uju2ZtpJUPvutG3cCsp8vrwE3elgGUKA0immnzeFpAv3/uwl1qz9mFWrKjjn/BHYbjWO43LciKGMOnEU4Zyovw1ZpLSNIxykoUGkcN0gmhQKF8tShC147sklPPXECzTZdjMpWAiKiiEY1VjhJNpoQLkWS174M/+54i2+NfdUrrhqHJFchdai2QO0ezwPWsthVsachO27f/Tuq63RNaFce94606ZN4/21SRY/v4LK3VUk7YFECyzyiwLsqvyUzZu2MnDgZALBXFKu58BqSgtpeNxDqwBaKBAxzjhzCk0JkxcWL0MpxVlnT+ess6fx9ltr+fUvn+Pbcy5i3vUzkEYVWsdAS/btq+HgwVr6lZZSVNQHTxHVw+4rzW7MdMIW+eVFpwnKc3b33FKDwSAFuSHywhZWwEJrzZChhQwsL2TZsrf4ZGMtF15wHH9ZuZL31nxAyAJDAloQa5C8tHgFkWiAiy45GSMQ4/xZYzhv1hivHiAQEMhVNaSceqQ0CIUFKm3f0yZSgmGAaXm3l79YppcvN7qsNpBSYloBEBaOKzCkgWEY5EYtFt51HZdc8A0eefg5xh4/hfLhgwibQfLycqlvrCWVbCQvP494g8P+6hpijU3kFYSab2Fo31vRdeopLQ0xeGBfEo0xYg21RHJdwMIwAgQsC8uQGKKDYK7dDhO0d/kB7dJ8KaIXLXAYeiiFbcdJ2QmSKUUqaaFcSYpqpIoxeqLkwScvAD0b7YYQmBimiyE10vBuuFz/46/jOr7ck/ahErrZE1wLh2lnT+CsGRNBO2jVCMpAaokho4SsKP37RyjqG+jQyNxt0CavvbqS9ev+wfEjRlFT/wnjpoyg4qtj0K7T8/UfQ+jCKS8jm2iaKB9qIAL1LH15Jevfr0PYZd6EaxdDaQzlYtCEJI7UNgIb246RshtwVcr3qfICAHjGE4EU/gcQykErB1OaWKZACu/K1JvLt/DanzZSVjaIYcP6I+WR4RLnTD+X6+fNJ9ZoM6ZiIqNGjiTVlDgidR9L6JrpRXsGWmE0MnP2JG644Vw2rHufaaf/kHsWPkvGk1OBtBFGEmEkUMRwVMInIpBCeh8p245bmeUC4joOSjmsfvdvXHjurZw/82YONlQz9+qzGTfhhPZCWXYvhIOQkmg0j36lpYQtiSXBNL9wYd6POtoJltFar5J+ojEVaCEJByTzvnsRc7/1bfbsbMLKOeBfUGwb6fuMstmtM+tUlnWhrPl3WffU0JJTvzaNk/7jMhAJIoVNaBrQxI6cZV843oLQAcBGSEnb+We+3GiDoDzFnPCVeOl7gt5Ea7TvZJd2UwlG6ygf5b0pOorT2Dzx6etO7T33/pMW0BEglIGmikjhPi+GJp7cJZvjHHSzqkBnKyj9hsoGEGG2bN6GNkOMqSjuvvr+F6FLPLv54lNH7rvdBEFaqZpNNFnMTPeQvildSfNemtbsenLf4EHDKChIoLTryXW9aIFjYEQ6Ipwe9CpIxwJInyJ1ELRBoqkW1wVDBnum3mMcx7hU2VMCVNYtXQAkWzZvZdU7r7BlYyUiOJzBuwMU9c0lEAj0UBuOTRzjBNWTyHBGgWDU6NEMHzYWoS3qGncSytWEckIox+64mC8ZegmqMxAOGAmCUQt0EwVBC3B6iakN9BJUZyA0aBtw0RpMU/ihrf+3mF4OJYt2/gDUBkGlnUeyb75kI1uO/3JcAtBa+Ul7dFYklO7qd3sBLHpyXFsTUHq+2/tt59HLoToNP9JeLzrEMaA26MWxhG7kUN23D3e97J6osyP0VF9FO393Bj3V17QHbOd4jwlkQkp3Wchsay/uSAl5OBcy0+V/kexmPTl5bf0NbctZRwJdG38T6MbTSk9prns51KG//wJxqLagBLhpO276JjgddUeiaC8WpkZqP2tka/cALbx327mceUgy0l6K2bbSlQjteTK0y/t0B/0REoVs5932CUpokDheX9t46/PldX6xtJfu1n/aZunZ7crUkqlToH3//rYvXQht+KHCO9fGFlteOsCq1gppDEKKM1Aq1Wz1d/1OuW2WfYhB1mnjsv78a212JfN9x10R3r/PFZAuuONInu3lzZFaIYRqh1A7ao63QNp6sdnc3EGDhG7/uUjfjG49Wq2zS7SDtsrVZBhGm++QXqztLa2WC0cMHjy4+ZfprU9rL9KcogmVznBwSHSmUz3BltupV6ed9I6wzNHj9bY1hj1oJD9kf1q2p51wPqBVAEEAUxjQKTcNcWjC62gpHC7aW50trlUdQfR0vf8DDnV49R2iP+KQBCX81O066+TXGYVeJwiq2x3hOhrIo30qOoIcqicJ6lD9abVn/n/s3cB1OyC8gwAAAABJRU5ErkJggg==;" parent="1" vertex="1">
                    <mxGeometry x="235" y="1030" width="148" height="212" as="geometry"/>
                </mxCell>
                <mxCell id="17" value="&lt;div style=&quot;color: rgb(212, 212, 212); background-color: rgb(30, 30, 30); font-family: Consolas, &amp;quot;Courier New&amp;quot;, monospace; font-weight: normal; font-size: 14px; line-height: 19px;&quot;&gt;&lt;div&gt;&lt;span style=&quot;color: #569cd6;&quot;&gt;this&lt;/span&gt;&lt;span style=&quot;color: #d4d4d4;&quot;&gt;.&lt;/span&gt;&lt;span style=&quot;color: #9cdcfe;&quot;&gt;f&lt;/span&gt;&lt;span style=&quot;color: #d4d4d4;&quot;&gt; = &lt;/span&gt;&lt;span style=&quot;color: #b5cea8;&quot;&gt;6&lt;/span&gt;&lt;/div&gt;&lt;/div&gt;" style="text;whiteSpace=wrap;html=1;" parent="1" vertex="1">
                    <mxGeometry x="75" y="1030" width="110" height="40" as="geometry"/>
                </mxCell>
            </root>
        </mxGraphModel>
    </diagram>
</mxfile>